<svg version="1.1" id="Layer_1" xmlns="http://www.w3.org/2000/svg" xmlns:xlink="http://www.w3.org/1999/xlink" x="0px" y="0px"
	 viewBox="0 0 80.4 89.2" style="enable-background:new 0 0 80.4 89.2;" xml:space="preserve">
<style type="text/css">
	.st0{fill:#FFFFFF;}
</style>
<title>AppDynamicsALogo_white</title>
<path class="st0" d="M23.6,52.2L11.4,24.6C-2,35.7-3.8,55.7,7.3,69c6,7.2,14.9,11.3,24.2,11.3c1.5,0,3-0.1,4.5-0.3L23.8,52.5
	C23.7,52.4,23.6,52.3,23.6,52.2z M31.6,0c-3.9,0-7.9,0.5-11.7,1.4l7.2,16.2c1.5-0.2,3-0.3,4.5-0.3c17.4,0,31.5,14.2,31.5,31.6
	c0,9.3-4.1,18.2-11.3,24.1L59,89.2c22.3-15.1,28.1-45.5,13-67.8C62.9,8,47.7,0,31.6,0z"/>
</svg>
