<svg id="iconPath" width="100%" height="100%" viewBox="0 0 24 24" xmlns="http://www.w3.org/2000/svg"><path d="M4.784 20.83a1.872 1.872 0 0 1-1.866-1.866V4.696c0-1.026.84-1.866 1.866-1.866h14.268c1.026 0 1.866.84 1.866 1.866v14.268c0 1.026-.84 1.866-1.866 1.866H4.784z" fill="#6AB84A"/><path d="M7.564 13.143h1.955l-.982-2.928-.973 2.928zm2.39 1.305H7.13l-.537 1.611H4.878L7.79 8.24h1.492l2.927 7.82h-1.712l-.543-1.61zm4.72-4.2l.049.67c.415-.518.972-.777 1.67-.777.616 0 1.075.18 1.376.542.3.362.454.902.46 1.623v3.754h-1.551v-3.717c0-.33-.071-.57-.215-.717-.143-.15-.382-.223-.714-.223-.437 0-.764.186-.983.559v4.098h-1.552v-5.812h1.46z" fill="#FFF"/></svg>
