<svg id="iconPath" width="100%" height="100%" viewBox="0 0 24 24" xmlns="http://www.w3.org/2000/svg">
        <path d="M19.134,21 L4.866,21 C3.83680394,20.9967065 3.00329345,20.1631961 3,19.134 L3,4.866 C3,3.84 3.84,3 4.866,3 L19.134,3 C20.16,3 21,3.84 21,4.866 L21,19.134 C21,20.16 20.16,21 19.134,21" fill="#585E67" fill-rule="nonzero"></path>
        <path d="M18.345,13.513 C18.345,13.236 18.248,13.023 18.053,12.876 C17.857,12.728 17.506,12.571 16.998,12.407 C16.49,12.243 16.088,12.081 15.792,11.921 C14.984,11.485 14.581,10.897 14.581,10.158 C14.581,9.774 14.689,9.432 14.906,9.131 C15.122,8.83 15.433,8.594 15.838,8.425 C16.2715485,8.25028931 16.7356263,8.16393346 17.203,8.171 C17.711,8.171 18.163,8.263 18.56,8.447 C18.957,8.631 19.266,8.891 19.486,9.226 C19.706,9.561 19.816,9.942 19.816,10.368 L18.35,10.368 C18.35,10.043 18.248,9.79 18.043,9.609 C17.838,9.429 17.55,9.339 17.179,9.339 C16.82,9.339 16.542,9.414 16.344,9.565 C16.1520504,9.70292647 16.0405387,9.92669819 16.046,10.163 C16.046,10.395 16.162,10.588 16.395,10.744 C16.628,10.901 16.97,11.047 17.423,11.184 C18.256,11.434 18.863,11.745 19.243,12.117 C19.625,12.487 19.815,12.95 19.815,13.503 C19.815,14.118 19.582,14.601 19.117,14.951 C18.651,15.301 18.025,15.476 17.237,15.476 C16.7233834,15.4828303 16.2141652,15.3805777 15.743,15.176 C15.293,14.976 14.951,14.701 14.715,14.353 C14.4760743,13.9949682 14.3525342,13.5723494 14.361,13.142 L15.831,13.142 C15.831,13.926 16.3,14.319 17.237,14.319 C17.585,14.319 17.857,14.248 18.053,14.106 C18.2446939,13.9707238 18.3546509,13.7474207 18.345,13.513 Z M13.595,11.985 C13.595,12.685 13.471,13.298 13.223,13.825 C12.9971437,14.3278164 12.6276544,14.7526247 12.161,15.046 C11.701,15.333 11.173,15.476 10.577,15.476 C9.987,15.476 9.462,15.334 9,15.051 C8.53113461,14.7603325 8.15774401,14.3386167 7.926,13.838 C7.672,13.312 7.543,12.708 7.54,12.024 L7.54,11.672 C7.54,10.972 7.666,10.356 7.918,9.824 C8.171,9.292 8.527,8.884 8.988,8.598 C9.448,8.314 9.975,8.171 10.568,8.171 C11.16,8.171 11.686,8.314 12.147,8.598 C12.607,8.883 12.964,9.292 13.217,9.824 C13.468,10.356 13.595,10.971 13.595,11.667 L13.595,11.985 Z M12.11,11.662 C12.11,10.917 11.977,10.351 11.71,9.963 C11.443,9.576 11.062,9.383 10.567,9.383 C10.076,9.383 9.697,9.573 9.429,9.956 C9.163,10.338 9.027,10.899 9.024,11.638 L9.024,11.985 C9.024,12.711 9.158,13.274 9.424,13.675 C9.692,14.075 10.076,14.275 10.577,14.275 C11.068,14.275 11.447,14.082 11.71,13.696 C11.973,13.31 12.107,12.748 12.11,12.009 L12.11,11.662 Z M6.5,15.378 L5.084,15.378 L5.084,10.095 L6.5,10.095 L6.5,15.378 Z M5,8.728 C5,8.516 5.072,8.342 5.213,8.205 C5.355,8.069 5.548,8 5.792,8 C6.032,8 6.225,8.069 6.368,8.205 C6.51109073,8.34061353 6.58933915,8.53095735 6.583,8.728 C6.583,8.943 6.51,9.118 6.366,9.255 C6.221,9.392 6.029,9.46 5.792,9.46 C5.554,9.46 5.362,9.392 5.218,9.255 C5.07343648,9.11858239 4.99440871,8.92665782 5.001,8.728 L5,8.728 Z" fill="#FFFFFF" fill-rule="nonzero"></path>
</svg>
