<svg id="iconPath" width="100%" height="100%" viewBox="0 0 24 24" xmlns="http://www.w3.org/2000/svg"><path d="M20.084 2H3.916A1.916 1.916 0 0 0 2 3.916v16.168C2 21.142 2.858 22 3.916 22h16.168A1.917 1.917 0 0 0 22 20.084V3.916A1.917 1.917 0 0 0 20.084 2zm-.306 17.778H4.222V4.222h15.556v15.556zm-8.057-5.039l2.153-.478a1.84 1.84 0 0 1 1.228-1.535v-2.068a1.85 1.85 0 0 1-1.21-1.358L10 9.022a1.846 1.846 0 0 1-.696.824l1.005 4.023a1.84 1.84 0 0 1 1.412.87zM8.295 6.445c.857 0 1.571.585 1.782 1.376l3.968.284a1.845 1.845 0 0 1 3.51.809c0 .81-.524 1.492-1.25 1.744v2.068a1.845 1.845 0 0 1-.601 3.595 1.847 1.847 0 0 1-1.574-.885l-2.152.479a1.845 1.845 0 0 1-3.682-.211c0-.65.337-1.22.844-1.55l-1.005-4.022a1.846 1.846 0 0 1 .16-3.687z"/></svg>