<svg id="iconPath" width="100%" height="100%" viewBox="0 0 24 24" xmlns="http://www.w3.org/2000/svg"><path d="M20.084 2c1.058 0 1.915.858 1.916 1.916v16.168A1.917 1.917 0 0 1 20.084 22H3.916A1.917 1.917 0 0 1 2 20.084V3.916C2 2.858 2.858 2 3.916 2h16.168zm-.306 17.778V4.222H4.222v15.556h15.556zM8.591 15.19l-2.382-2.63a.834.834 0 0 1 0-1.118L8.591 8.81a.834.834 0 1 1 1.234 1.118L7.95 12l1.875 2.07a.834.834 0 1 1-1.234 1.12zm5.81.058h.004a.834.834 0 0 1-.059-1.178L16.223 12l-1.88-2.072A.834.834 0 1 1 15.58 8.81l2.382 2.632c.287.317.287.8 0 1.118l-2.382 2.63a.834.834 0 0 1-1.178.058h-.001z"/></svg>