<svg id="iconPath" width="100%" height="100%" viewBox="0 0 24 24" xmlns="http://www.w3.org/2000/svg"><path d="M20.084 2H3.916A1.916 1.916 0 0 0 2 3.916v16.168C2 21.142 2.858 22 3.916 22h16.168A1.917 1.917 0 0 0 22 20.084V3.916A1.917 1.917 0 0 0 20.084 2zm-.306 17.778H4.222V4.222h15.556v15.556zm-8.376-8.893l-.373 1.836h1.775l.372-1.836h-1.774zm-3.393 0V9.359h2.146l.622-3.004h1.555L11.71 9.36h1.775l.608-3.004h1.554l-.604 3.004h1.775v1.526h-2.087l-.373 1.836h1.837v1.525h-2.147l-.623 3.004h-1.556l.622-3.004h-1.773l-.608 3.004H8.555l.606-3.004H7.386v-1.525h2.087l.373-1.836H8.01z"/></svg>