<?xml version="1.0" standalone="no"?>
<!DOCTYPE svg PUBLIC "-//W3C//DTD SVG 20010904//EN"
 "http://www.w3.org/TR/2001/REC-SVG-20010904/DTD/svg10.dtd">
<svg version="1.0" xmlns="http://www.w3.org/2000/svg"
 width="880.000000pt" height="880.000000pt" viewBox="0 0 880.000000 880.000000"
 preserveAspectRatio="xMidYMid meet">
<metadata>
Created by potrace 1.11, written by Peter Selinger 2001-2013
</metadata>
<g transform="translate(0.000000,880.000000) scale(0.100000,-0.100000)"
fill="#000000" stroke="none">
<path d="M1490 7430 c-30 -5 -58 -6 -62 -4 -5 3 -8 0 -8 -5 0 -6 -3 -10 -7 -9
-7 1 -104 -12 -123 -17 -3 -1 -25 -7 -50 -15 -25 -7 -49 -14 -55 -16 -67 -14
-386 -164 -393 -185 -2 -5 -9 -9 -15 -9 -32 0 -303 -234 -377 -326 -49 -61
-113 -147 -123 -167 -7 -12 -28 -47 -47 -77 -19 -30 -35 -57 -36 -60 0 -3 -16
-37 -36 -77 -43 -86 -116 -309 -124 -378 -3 -27 -8 -54 -12 -59 -3 -6 -8 -21
-10 -35 -9 -52 -10 -2958 -2 -3021 5 -36 11 -82 14 -102 3 -20 10 -56 17 -80
6 -24 13 -53 15 -66 6 -32 51 -168 70 -212 38 -85 115 -230 153 -285 23 -33
49 -71 59 -85 46 -67 217 -243 297 -306 28 -21 51 -42 53 -46 2 -5 8 -8 12 -8
5 0 37 -19 72 -43 121 -83 376 -196 498 -221 14 -3 36 -8 50 -11 14 -3 37 -8
53 -11 35 -5 84 -14 122 -20 47 -9 5614 -11 5670 -2 28 4 68 9 90 12 22 3 49
7 60 10 137 31 173 40 188 48 10 5 29 12 42 14 13 2 45 13 70 24 26 11 53 20
60 20 7 0 15 3 17 8 2 4 33 22 70 39 36 18 69 37 73 43 3 5 15 10 26 10 10 0
19 4 19 9 0 5 13 14 29 21 16 6 37 19 47 28 11 9 45 37 78 61 32 24 66 51 75
60 10 9 38 35 64 59 26 23 47 44 47 46 0 2 23 27 50 57 50 53 146 186 191 264
42 73 109 215 109 229 0 8 4 17 9 20 5 3 11 18 14 33 3 16 12 48 21 72 14 37
24 78 51 203 2 9 7 48 12 85 10 84 11 2925 1 3008 -8 67 -14 101 -29 160 -5
22 -12 51 -15 63 -14 68 -87 266 -115 312 -4 8 -17 33 -29 55 -11 22 -31 58
-45 80 -14 22 -28 47 -32 55 -4 8 -12 21 -19 30 -7 8 -39 49 -71 90 -67 84
-179 200 -244 251 -24 18 -46 36 -49 40 -10 12 -173 119 -201 131 -16 7 -29
16 -29 20 0 5 -4 8 -10 8 -5 0 -40 14 -77 31 -38 17 -77 35 -88 40 -56 25
-224 75 -290 86 -16 3 -64 11 -105 18 -61 11 -582 13 -2880 13 -1543 0 -2830
-4 -2860 -8z"/>
</g>
</svg>
