<?xml version="1.0" encoding="UTF-8"?>
<svg width="55px" height="38px" viewBox="0 0 55 38" version="1.1" xmlns="http://www.w3.org/2000/svg" xmlns:xlink="http://www.w3.org/1999/xlink">
    <title>Group</title>
    <g id="Page-1" stroke="none" stroke-width="1" fill="none" fill-rule="evenodd">
        <g id="Group" fill-rule="nonzero">
            <path d="M43.75,0 L10.56,0 C4.72787304,0 0,4.72787304 0,10.56 L0,26.79 C0,32.622127 4.72787304,37.35 10.56,37.35 L43.75,37.35 C46.5506861,37.35 49.2366635,36.2374318 51.2170476,34.2570476 C53.1974318,32.2766635 54.31,29.5906861 54.31,26.79 L54.31,10.56 C54.31,4.72787304 49.582127,0 43.75,0 Z" id="Path" fill="#FFFFFF"></path>
            <path d="M38.09,27.61 C38.0690647,27.6449493 38.0456725,27.6783668 38.02,27.71 L37.53,28.71 L35.16,28.71 L34.69,27.84 C34.6376295,27.7739751 34.5908036,27.7037362 34.55,27.63 L33.1,24.79 L32.43,23.46 L26.91,12.66 L17.57,12.66 C14.2562915,12.66 11.57,15.3462915 11.57,18.66 C11.57,18.72 11.57,18.78 11.57,18.84 C11.6567256,22.0910607 14.3177829,24.6811565 17.57,24.68 L24.87,24.68 L22.92,20.84 L17.06,20.84 L16.06,18.84 L15.06,16.84 L20.82,16.84 L22.91,20.84 L26.91,20.84 L30.91,28.68 L17.57,28.68 C12.0471525,28.68 7.57,24.2028475 7.57,18.68 C7.57,13.1571525 12.0471525,8.68 17.57,8.68 L29.17,8.68 L36.32,22.38 L43.49,8.63 L47.49,8.63 L38.09,27.61 Z" id="Path" fill="#000000"></path>
        </g>
    </g>
</svg>