<?xml version="1.0" encoding="UTF-8" standalone="no"?>
<!-- Created with Inkscape (http://www.inkscape.org/) -->

<svg
   xmlns:dc="http://purl.org/dc/elements/1.1/"
   xmlns:cc="http://creativecommons.org/ns#"
   xmlns:rdf="http://www.w3.org/1999/02/22-rdf-syntax-ns#"
   xmlns:svg="http://www.w3.org/2000/svg"
   xmlns="http://www.w3.org/2000/svg"
   xmlns:sodipodi="http://sodipodi.sourceforge.net/DTD/sodipodi-0.dtd"
   xmlns:inkscape="http://www.inkscape.org/namespaces/inkscape"
   width="300"
   height="300"
   viewBox="0 0 300 300"
   version="1.1"
   id="svg2216"
   inkscape:version="0.92.3 (2405546, 2018-03-11)"
   sodipodi:docname="_NEW-MASTER-TEMPLATE-FRAME.svg">
  <defs
     id="defs2210" />
  <sodipodi:namedview
     id="base"
     pagecolor="#ffffff"
     bordercolor="#666666"
     borderopacity="1.0"
     inkscape:pageopacity="0.0"
     inkscape:pageshadow="2"
     inkscape:zoom="1.4"
     inkscape:cx="130.38644"
     inkscape:cy="140.62169"
     inkscape:document-units="px"
     inkscape:current-layer="layer1"
     showgrid="false"
     units="px"
     inkscape:window-width="1280"
     inkscape:window-height="737"
     inkscape:window-x="-8"
     inkscape:window-y="-8"
     inkscape:window-maximized="1"
     fit-margin-top="10"
     fit-margin-left="10"
     fit-margin-bottom="10"
     fit-margin-right="10"
     inkscape:showpageshadow="false"
     scale-x="1" />
  <metadata
     id="metadata2213">
    <rdf:RDF>
      <cc:Work
         rdf:about="">
        <dc:format>image/svg+xml</dc:format>
        <dc:type
           rdf:resource="http://purl.org/dc/dcmitype/StillImage" />
        <dc:title></dc:title>
      </cc:Work>
    </rdf:RDF>
  </metadata>
  <g
     inkscape:label="Layer 1"
     inkscape:groupmode="layer"
     id="layer1"
     transform="translate(250.96359,-149.09241)">


<g
       aria-label="g"
       style="font-style:normal;font-variant:normal;font-weight:normal;font-stretch:normal;font-size:5.33333349px;line-height:1.25;font-family:'Open Sans';-inkscape-font-specification:'Open Sans, Normal';font-variant-ligatures:normal;font-variant-caps:normal;font-variant-numeric:normal;font-feature-settings:normal;text-align:start;letter-spacing:0px;word-spacing:0px;writing-mode:lr-tb;text-anchor:start;fill:#000000;fill-opacity:1;stroke:none"
       id="text829">
      <path
         d="m -158.79904,172.86453 c -32.8125,16.79687 -56.11388,40.27776 -69.52534,71.13714 -9.76563,22.52604 -13.67188,44.92187 -11.71875,67.1875 2.21354,27.08333 13.0971,50.26228 26.93638,71.32254 14.45313,19.14063 33.09164,33.71608 56.39893,44.65358 1.17187,-46.875 0.87786,-93.93558 -0.29401,-140.68037 -23.17709,-1.04167 -37.23959,-1.23698 -42.1875,-0.58593 -1.43229,8.85417 -1.43229,17.70833 0,26.5625 1.04167,0.52083 3.64583,0.71614 7.8125,0.58593 3.77604,-0.13021 6.11979,0.39063 7.03125,1.5625 v 29.49219 c 0,16.14583 -0.52083,25 -1.5625,26.5625 -13.15104,-10.02604 -21.41927,-26.75781 -24.80469,-50.19531 -3.25521,-22.39583 -1.10677,-43.03385 6.44531,-61.91406 6.38021,-16.14583 12.76042,-25.78125 19.14063,-28.90625 0.65104,2.99479 0.91146,7.29166 0.78125,12.89062 -0.13021,7.68229 -0.13021,12.23959 0,13.67188 12.23958,1.69271 21.35416,1.49739 27.34375,-0.58594 0.39063,-7.16146 0.22879,-27.68787 0.22879,-63.36495 0,-11.45833 -0.25439,-17.13121 -0.26616,-19.42764 z"
         style="font-style:normal;font-variant:normal;font-weight:normal;font-stretch:normal;font-size:400px;font-family:MONOGRAMOS;-inkscape-font-specification:MONOGRAMOS;fill:#FFFFFF;fill-opacity:1"
         id="path823"
         inkscape:connector-curvature="0"
         sodipodi:nodetypes="ccccccccccscccccccscc" />
    </g>



<g
       aria-label="e"
       style="font-style:normal;font-variant:normal;font-weight:normal;font-stretch:normal;font-size:5.33333349px;line-height:1.25;font-family:'Open Sans';-inkscape-font-specification:'Open Sans, Normal';font-variant-ligatures:normal;font-variant-caps:normal;font-variant-numeric:normal;font-feature-settings:normal;text-align:start;letter-spacing:0px;word-spacing:0px;writing-mode:lr-tb;text-anchor:start;fill:#FFFFFF;fill-opacity:1;stroke:none"
       id="text829">
      <path
         d="m -86.560989,342.53961 c -0.78125,7.03125 -0.976563,18.94532 -0.585938,35.74219 0.390625,16.01563 0.130209,26.75781 -0.78125,32.22656 -4.296875,1.17187 -9.179686,1.75781 -14.648433,1.75781 -6.38021,-0.13021 -10.74219,-1.17187 -13.08594,-3.125 v -48.24218 c 0,-26.17188 0.71615,-41.73178 2.14844,-46.67969 1.82291,-0.39063 5.85937,-0.58594 12.10937,-0.58594 6.250001,-0.13021 10.742188,-0.45573 13.476563,-0.97656 1.5625,-12.89063 1.302083,-21.67969 -0.78125,-26.36719 -2.473958,-0.65104 -7.096352,-0.84635 -13.867183,-0.58594 -6.51042,0.26042 -10.61198,0 -12.30469,-0.78125 -1.30209,-31.90104 -1.30209,-63.80208 0,-95.70312 3.90625,-1.69271 8.98437,-2.47396 15.234373,-2.34375 7.03125,0 11.653646,1.30208 13.867188,3.90625 -1.432292,22.13541 -1.432292,44.01041 0,65.625 8.984375,1.43229 17.51302,1.43229 25.585937,0 0.651042,-10.9375 0.911459,-25.65104 0.78125,-44.14063 -0.130208,-24.60937 -0.130208,-39.58333 0,-44.92187 -10.546875,-5.07813 -24.218751,-7.7474 -41.015628,-8.00781 -17.57812,-0.26042 -31.18489,2.40885 -40.82031,8.00781 -1.30208,88.54167 -1.30208,177.14844 0,265.82031 11.45833,3.90625 25.0651,5.79427 40.82031,5.66406 15.755211,-0.13021 29.16667,-2.27864 40.234378,-6.44531 1.302083,-29.81771 1.302083,-59.50521 0,-89.0625 -13.541667,-1.17187 -22.330729,-1.43229 -26.367187,-0.78125 z"
         style="font-style:normal;font-variant:normal;font-weight:normal;font-stretch:normal;font-size:400px;font-family:MONOGRAMOS;-inkscape-font-specification:MONOGRAMOS;fill:#FFFFFF;fill-opacity:1"
         id="path823"
         inkscape:connector-curvature="0"
         sodipodi:nodetypes="cccccsccccccccccccccccsccc" />
    </g>



<g
       aria-label="v"
       transform="scale(0.99115575,1.0089232)"
       style="font-style:normal;font-variant:normal;font-weight:normal;font-stretch:normal;font-size:5.28616428px;line-height:1.25;font-family:'Open Sans';-inkscape-font-specification:'Open Sans, Normal';font-variant-ligatures:normal;font-variant-caps:normal;font-variant-numeric:normal;font-feature-settings:normal;text-align:start;letter-spacing:0px;word-spacing:0px;writing-mode:lr-tb;text-anchor:start;fill:#000000;fill-opacity:1;stroke:none;stroke-width:0.99115574"
       id="text829">
      <path
         d="M 24.015399,236.71642 C 15.368598,218.64847 6.7217961,206.32355 -1.9250056,199.74166 c 0.5162269,4.12981 0.4516986,11.29246 -0.1935851,21.48795 -0.7743405,9.80831 -0.7098121,17.16454 0.1935851,22.0687 0.5162269,2.83925 1.87132273,6.64642 4.0652874,11.42152 2.5811348,5.42039 4.1943441,9.29209 4.8396278,11.61511 2.8392483,10.19548 4.5169854,19.03587 5.0332124,26.52116 1.548681,20.39097 -4.3234003,41.36269 -17.6162448,62.91516 -0.3871702,0.64529 -1.0324539,1.87133 -1.9358511,3.67812 -0.9033972,1.67773 -1.6132093,2.9683 -2.1294362,3.8717 -1.9358509,2.83925 -4.3234009,4.25887 -7.1626489,4.25887 v -65.81894 -70.27139 c 0,-28.77965 -0.193585,-44.40923 -0.580756,-45.6998 -7.826942,-6.60858 -16.327685,-10.37119 -25.908556,-15.59624 -0.345623,47.27763 -0.163574,91.10592 -0.229294,126.84949 -0.129057,52.65515 -0.380526,92.85426 0.264758,124.60222 12.983623,-4.89309 21.873705,-12.88224 37.8501664,-25.16606 C 17.560612,372.12655 32.948551,347.38648 37.316549,314.2189 39.63957,287.11698 35.630506,261.36625 24.015399,236.71642 Z"
         style="font-style:normal;font-variant:normal;font-weight:normal;font-stretch:normal;font-size:396.46231079px;font-family:MONOGRAMOS;-inkscape-font-specification:MONOGRAMOS;fill:#FFFFFF;fill-opacity:1;stroke-width:0.99115574"
         id="path823"
         inkscape:connector-curvature="0"
         sodipodi:nodetypes="ccccccccccccsccccccc" />
    </g>




  </g>
</svg>
