<?xml version="1.0" encoding="UTF-8"?>
<svg width="992px" height="117px" viewBox="0 0 992 117" version="1.1" xmlns="http://www.w3.org/2000/svg" xmlns:xlink="http://www.w3.org/1999/xlink">
    <!-- Generator: Sketch 53.2 (72643) - https://sketchapp.com -->
    <title>logo/horizontal</title>
    <desc>Created with Sketch.</desc>
    <defs>
        <path d="M726.164251,9.73956835 C731.936677,9.73423264 737.472957,12.0469752 741.546671,16.1654676 L748.037692,9.62877698 C739.19039,0.708730781 725.877593,-1.96413482 714.309815,2.85709099 C702.742037,7.67831679 695.198619,19.0436489 695.198619,31.6510791 C695.198619,44.2585093 702.742037,55.6238415 714.309815,60.4450673 C725.877593,65.2662931 739.19039,62.5934275 748.037692,53.6733813 L741.546671,47.1366906 C734.584927,54.1625792 723.803517,55.5999423 715.266138,50.6403757 C706.72876,45.6808092 702.566836,35.5625074 705.121123,25.9762225 C707.675411,16.3899376 716.308211,9.72896025 726.164251,9.73956835 L726.164251,9.73956835 Z M117.638509,1.61151079 C108.547078,1.61151079 99.1956069,1.70215827 90.0941749,1.70215827 L90.0941749,61.6302158 L93.9447808,61.6302158 C97.076728,61.6302158 99.615673,59.0734074 99.615673,55.9194245 L99.615673,43.228777 L117.618505,43.228777 C146.112989,43.047482 146.032976,1.61151079 117.638509,1.61151079 Z M117.638509,34.3956835 L99.6356761,34.3956835 L99.6356761,10.4244604 L117.638509,10.4244604 C133.28097,10.4244604 133.380985,34.3956835 117.638509,34.3956835 L117.638509,34.3956835 Z M498.788477,1.69208633 L472.094277,61.6201439 L482.205868,61.6201439 L487.81675,49.0402878 L520.031819,49.0402878 L525.722714,61.6201439 L535.844307,61.6201439 L509.150107,1.69208633 L498.788477,1.69208633 L498.788477,1.69208633 Z M491.43732,40.2877698 L504.0193,11.7841727 L516.551271,40.2877698 L491.43732,40.2877698 Z M193.530449,1.61151079 C184.439019,1.61151079 175.087547,1.70215827 165.986115,1.70215827 L165.986115,61.6302158 L169.836721,61.6302158 C171.340735,61.6302158 172.783149,61.0285449 173.846648,59.9575638 C174.910146,58.8865826 175.507613,57.4340205 175.507613,55.9194245 L175.507613,43.228777 L193.510446,43.228777 C222.014931,43.047482 221.924916,1.61151079 193.530449,1.61151079 Z M193.530449,34.3956835 L175.527617,34.3956835 L175.527617,10.4244604 L193.530449,10.4244604 C209.17291,10.4244604 209.262924,34.3956835 193.530449,34.3956835 L193.530449,34.3956835 Z M26.6941999,1.69208633 L0,61.6201439 L10.1115909,61.6201439 L15.7224737,49.0402878 L47.9375422,49.0402878 L53.6384392,61.6201439 L63.7500301,61.6201439 L37.0558302,1.69208633 L26.6941999,1.69208633 Z M19.303037,40.2877698 L31.8850166,11.7841727 L44.4669962,40.2877698 L19.303037,40.2877698 Z M799.105727,25.905036 C791.284496,24.7971223 784.653453,23.1654676 784.653453,17.3438849 C784.653453,11.5223022 790.434363,8.27913669 798.42562,8.27913669 C804.626596,8.36978417 810.327492,10.847482 813.127933,14.9568345 L820.359071,10.0719424 C815.358284,2.01438849 806.756931,0 798.175581,0 C787.463895,0 775.171961,4.7942446 775.221969,17.2028777 C775.221969,30.0446043 786.443735,33.0359712 798.225588,34.6676259 C806.556899,35.7856115 813.437982,38.0014388 813.437982,44.5079137 C813.437982,52.0417266 805.536739,54.4388489 798.435621,54.4388489 C791.554539,54.4388489 784.153374,51.8705036 779.902706,44.5985612 L772.761582,49.3928058 C778.202438,59.4647482 786.953815,63 798.345607,63 C810.75756,63 822.909472,57.9640288 822.999486,44.5079137 C823.0895,31.0517986 811.337651,27.6374101 799.105727,25.9251799 L799.105727,25.905036 Z M436.288643,7.4028777 L436.288643,44.3165468 L402.543334,1.68201439 L395.222182,1.68201439 L395.222182,61.6100719 L399.162802,61.6100719 C402.294749,61.6100719 404.833694,59.0532636 404.833694,55.8992806 L404.833694,19.3280576 L438.579004,61.6302158 L445.80014,61.6302158 L445.80014,1.70215827 L441.949534,1.70215827 C438.825393,1.70770211 436.294148,4.25675649 436.288643,7.4028777 Z M592.873279,29.8532374 L573.24019,1.77266187 L562.17845,1.77266187 L562.17845,61.7007194 L566.029056,61.7007194 C569.161003,61.7007194 571.699948,59.143911 571.699948,55.9899281 L571.699948,15.7021583 L591.703095,44.0345324 L593.70341,44.0345324 L613.936593,15.7021583 L613.936593,61.6705036 L617.787199,61.6705036 C620.903589,61.6705817 623.436106,59.1382383 623.458091,56 L623.458091,1.78273381 L612.456361,1.78273381 L592.873279,29.8532374 Z M656.463284,7.4028777 L656.463284,61.6201439 L660.233878,61.6201439 C663.365825,61.6201439 665.90477,59.0633355 665.90477,55.9093525 L665.90477,1.69200628 L662.164181,1.69208633 C660.654975,1.68404482 659.204841,2.28216387 658.134844,3.35401783 C657.064848,4.42587179 656.463263,5.88303186 656.463284,7.4028777 Z M264.401599,1.69208633 L241.888057,1.69208633 L241.888057,61.6201439 L264.401599,61.6201439 C285.224876,61.6201439 294.576347,46.3007194 294.236294,31.142446 C293.996256,16.3366906 284.734799,1.69208633 264.401599,1.69208633 Z M264.401599,52.3741007 L251.319541,52.3741007 L251.319541,10.857554 L264.401599,10.857554 C278.403803,10.857554 284.544769,20.9294964 284.80481,31.0618705 C285.074852,41.5870504 278.953889,52.3741007 264.401599,52.3741007 Z M340.493571,28.1510791 L324.090991,1.69208633 L312.789213,1.69208633 L312.789213,2.11510791 L335.742824,37.0446043 L335.742824,61.6100719 L339.59343,61.6100719 C342.725377,61.6100719 345.264322,59.0532636 345.264322,55.8992806 L345.264322,37.0546763 L368.89804,2.12517986 L368.89804,1.70215827 L357.416234,1.70215827 L340.493571,28.1510791 Z" id="path-1"></path>
        <path d="M29.9592517,65.9308035 L14.3785377,31.067696 C1.44806946,41.8262795 -3.34174907,59.5051887 2.3968171,75.2914488 C8.13538327,91.0777089 23.1739001,101.592013 40.0156342,101.592956 C41.9309375,101.594804 43.8439633,101.461295 45.7403301,101.193434 L30.216863,66.4159382 C30.1023691,66.2542266 30.0260398,66.1020275 29.9592517,65.9308035 Z M40.0251753,5.36922705e-05 C35.0352066,-0.00652128063 30.0628844,0.590789148 25.2172953,1.77888073 L34.3577264,22.2020982 C36.2541667,21.9349315 38.1671432,21.8014262 40.0824223,21.8025755 C56.9224078,21.8075216 71.9572425,32.3232496 77.6933255,48.1085534 C83.4294085,63.8938572 78.6391046,81.5703697 65.7099776,92.3278358 L74.8313264,112.751053 C97.3280703,97.5313051 107.226646,69.4553192 99.2294208,43.5491196 C91.2321959,17.64292 67.2123821,-0.0254152578 40.0251753,5.36922705e-05 Z M95.7550899,104.29449 L96.8141586,104.29449 L96.8141586,107.71897 L97.5297456,107.71897 L97.5297456,104.29449 L98.5888144,104.29449 L98.5888144,103.685694 L95.7264664,103.685694 L95.7264664,104.29449 L95.7550899,104.29449 Z M102.204914,103.685694 L101.145845,106.330154 L100.086776,103.685694 L99.3330248,103.685694 L99.3330248,107.71897 L100.048612,107.71897 L100.048612,105.169635 L100.926399,107.347985 L101.355751,107.347985 L102.233537,105.169635 L102.233537,107.71897 L102.949124,107.71897 L102.949124,103.685694 L102.195373,103.685694 L102.204914,103.685694 Z" id="path-3"></path>
    </defs>
    <g id="logo/horizontal" stroke="none" stroke-width="1" fill="none" fill-rule="evenodd">
        <g id="logo/logotype" transform="translate(169.000000, 26.000000)">
            <g id="logotype">
                <mask id="mask-2" fill="white">
                    <use xlink:href="#path-1"></use>
                </mask>
                <use id="Mask" fill="#19212B" fill-rule="nonzero" xlink:href="#path-1"></use>
                <g id="brand/atmosphere/3" mask="url(#mask-2)" fill="#F8F9FA">
                    <rect id="Rectangle-21-Copy-15" x="0" y="0" width="823" height="64"></rect>
                </g>
            </g>
        </g>
        <g id="logo/mark/tm">
            <mask id="mask-4" fill="white">
                <use xlink:href="#path-3"></use>
            </mask>
            <use id="Mask" fill="#19212B" fill-rule="nonzero" xlink:href="#path-3"></use>
            <g id="brand/atmosphere/3" mask="url(#mask-4)" fill="#F8F9FA" fill-rule="evenodd">
                <rect id="Rectangle-21-Copy-15" x="0" y="0" width="105" height="117"></rect>
            </g>
        </g>
    </g>
</svg>