<?xml version="1.0" encoding="UTF-8"?>
<svg width="51px" height="57px" viewBox="0 0 51 57" version="1.1" xmlns="http://www.w3.org/2000/svg" xmlns:xlink="http://www.w3.org/1999/xlink">
    <!-- Generator: Sketch 53.2 (72643) - https://sketchapp.com -->
    <title>logo/mark/no-tm</title>
    <desc>Created with Sketch.</desc>
    <defs>
        <path d="M14.6923902,33.0773077 L7.10295053,15.9077556 C-1.23299142,22.8129015 -2.35274482,35.2546059 4.55240113,43.5283394 C8.28491245,48.007353 13.8214709,50.5579024 19.6068635,50.5579024 C20.5399913,50.5579024 21.4731191,50.4956938 22.406247,50.3712768 L14.8168073,33.2639332 C14.7545987,33.2017247 14.6923902,33.1395162 14.6923902,33.0773077 Z M19.669072,0.604459149 C17.2429396,0.604459149 14.7545987,0.915501759 12.3906749,1.47537846 L16.8696885,11.553159 C17.8028163,11.428742 18.7359442,11.3665335 19.669072,11.3665335 C30.4933548,11.3665335 39.2647564,20.2001436 39.2647564,31.0244264 C39.2647564,36.809819 36.714207,42.3463775 32.2351934,46.0166803 L36.714207,56.0944608 C50.5867075,46.700974 54.1948017,27.7895833 44.8013149,13.9170829 C39.1403394,5.58114091 29.684644,0.604459149 19.669072,0.604459149 Z" id="path-1"></path>
    </defs>
    <g id="logo/mark/no-tm" stroke="none" stroke-width="1" fill="none" fill-rule="evenodd">
        <mask id="mask-2" fill="white">
            <use xlink:href="#path-1"></use>
        </mask>
        <use id="Mask" fill="#19212B" fill-rule="nonzero" xlink:href="#path-1"></use>
        <g id="brand/deep-space/0" mask="url(#mask-2)" fill="#19212B">
            <rect id="Rectangle-21-Copy-15" x="0" y="0" width="51" height="57"></rect>
        </g>
    </g>
</svg>