<?xml version="1.0" encoding="UTF-8"?>
<svg width="100px" height="100px" viewBox="0 0 100 100" version="1.1" xmlns="http://www.w3.org/2000/svg" xmlns:xlink="http://www.w3.org/1999/xlink">
    <title>Artboard Copy 4</title>
    <g id="Artboard-Copy-4" stroke="none" stroke-width="1" fill="none" fill-rule="evenodd">
        <g id="vw">
            <rect id="ee-background" fill-opacity="0" fill="#FFFFFF" fill-rule="nonzero" x="24.86513" y="24.9141736" width="50.2206964" height="50.2206964"></rect>
            <g id="Group" transform="translate(0.037782, 0.024409)">
                <polygon id="Path" points="0 0 99.9351434 0 99.9351434 99.9351434 0 99.9351434"></polygon>
                <path d="M51.8983418,80.9755909 C35.9930554,80.9755909 22.9622184,67.9331766 22.9622184,52.0914148 C22.9622184,48.5286089 23.6009849,45.1566676 24.8146413,41.9755909 L41.7419541,75.8858683 C41.9335841,76.331219 42.2529673,76.7129482 42.7639805,76.7129482 C43.2749937,76.7129482 43.594377,76.331219 43.786007,75.8858683 L51.5789585,58.5171896 C51.6428352,58.326325 51.7705885,58.1354604 51.9622184,58.1354604 C52.1538484,58.1354604 52.217725,58.326325 52.3454783,58.5171896 L60.1384299,75.8858683 C60.3300598,76.331219 60.6494431,76.7129482 61.1604563,76.7129482 C61.6714695,76.7129482 61.9908528,76.331219 62.1824827,75.8858683 L79.1097955,41.9755909 C80.3234519,45.1566676 80.9622184,48.5286089 80.9622184,52.0914148 C80.8344651,67.9331766 67.8036281,80.9755909 51.8983418,80.9755909 Z M52.4622184,44.9755909 C52.2696508,44.9755909 52.2054617,44.7880909 52.0770833,44.6005909 L42.9622184,24.6005909 C45.9149211,23.5380909 49.1243806,22.9755909 52.4622184,22.9755909 C55.8000563,22.9755909 59.0095157,23.5380909 61.9622184,24.6005909 L52.8473535,44.6005909 C52.7189752,44.8505909 52.654786,44.9755909 52.4622184,44.9755909 Z M43.1181817,65.9755909 C42.9255212,65.9755909 42.861301,65.78779 42.7328606,65.599989 L27.9622184,36.5534401 C30.5952459,32.6096198 34.127356,29.2918028 38.4301083,26.9755909 L49.0906588,50.0751094 C49.2190991,50.4507113 49.5402001,50.575912 49.861301,50.575912 L54.9989157,50.575912 C55.3842368,50.575912 55.6411175,50.5133116 55.833778,50.0751094 L66.4943285,26.9755909 C70.7328606,29.2918028 74.3291909,32.6096198 76.9622184,36.5534401 L62.0631358,65.599989 C61.9989157,65.78779 61.8704753,65.9755909 61.6778147,65.9755909 C61.4851542,65.9755909 61.420934,65.78779 61.2924936,65.599989 L55.7053377,53.2051255 C55.5126771,52.7669232 55.2557964,52.7043229 54.8704753,52.7043229 L49.7328606,52.7043229 C49.3475395,52.7043229 49.0906588,52.7669232 48.8979982,53.2051255 L43.5035028,65.599989 C43.4392826,65.78779 43.3108423,65.9755909 43.1181817,65.9755909 Z M51.9622184,83.9755909 C69.6902184,83.9755909 83.9622184,69.7035909 83.9622184,51.9755909 C83.9622184,34.2475909 69.6902184,19.9755909 51.9622184,19.9755909 C34.2342184,19.9755909 19.9622184,34.2475909 19.9622184,51.9755909 C19.9622184,69.7035909 34.2342184,83.9755909 51.9622184,83.9755909 Z" id="Shape" fill="#001E50" fill-rule="nonzero"></path>
            </g>
        </g>
    </g>
</svg>