<svg id="iconPath" width="100%" height="100%" viewBox="0 0 24 24" xmlns="http://www.w3.org/2000/svg"><path d="M9.61 17.19a.94.94 0 0 1 1.81.48l-.73 2.7a.931.931 0 0 1-1.8-.48l.72-2.7zM12.5 6.35l.73-2.7a.931.931 0 1 1 1.8.48l-.72 2.7a.94.94 0 0 1-1.15.66 1 1 0 0 1-.66-1.14zM2.93 9.59a.92.92 0 0 1 1.14-.66l2.7.72a.94.94 0 0 1-.48 1.81l-2.7-.73a.93.93 0 0 1-.66-1.14zm13.54 3.61a.94.94 0 0 1 1.14-.66l2.7.73a.931.931 0 0 1-.48 1.8l-2.7-.72a.94.94 0 0 1-.66-1.15zm-10.18-.66a.94.94 0 0 1 .48 1.81l-2.7.72a.931.931 0 0 1-.48-1.8l2.7-.73zm13.54-3.61a.931.931 0 0 1 .48 1.8l-2.7.73a.94.94 0 0 1-.48-1.81l2.7-.72zM9.55 3a.92.92 0 0 1 1.14.66l.73 2.7a.94.94 0 0 1-1.81.48l-.72-2.7A.92.92 0 0 1 9.55 3zm3.61 13.54a.94.94 0 0 1 1.15.66l.72 2.7a.931.931 0 0 1-1.8.48l-.73-2.7a1 1 0 0 1 .66-1.17v.03zm-5.8-1.22a.94.94 0 1 1 1.33 1.33l-2 2a.94.94 0 0 1-1.33-1.33l2-2zm7.9-7.92l2-2a.94.94 0 0 1 1.33 1.33l-2 2a.94.94 0 0 1-1.33 0 1 1 0 0 1 0-1.36v.03zM6.025 5.116a.92.92 0 0 1 .665.284l2 2a.94.94 0 1 1-1.36 1.3l-2-2a.92.92 0 0 1 .03-1.3.92.92 0 0 1 .665-.284zm9.9 9.908c.25 0 .489.1.665.276l2 2a.94.94 0 1 1-1.33 1.33l-2-2a1 1 0 0 1 0-1.33.94.94 0 0 1 .665-.276z" fill="#F0213A"/></svg>
