<svg id="iconPath" width="100%" height="100%" viewBox="0 0 24 24" xmlns="http://www.w3.org/2000/svg"><path d="M7.58175798,16.492506 C5.45537399,16.492506 3.77198666,14.8091186 3.77198666,12.6827346 C3.77198666,10.7335493 5.27817532,9.13876132 7.13876132,8.87296332 L7.58175798,8.87296332 L7.75895665,8.51856599 C8.64494998,6.83517866 10.3283373,5.86058599 12.1889233,5.86058599 C14.5811053,5.86058599 16.61889,7.54397332 17.0618866,9.84755598 L17.150486,10.379152 L17.7706813,10.379152 C18.6566746,10.4677513 19.4540686,10.910748 19.8970653,11.5309433 L21.9853516,11.5344873 C21.3651562,10.116898 20.1628633,9.13876132 18.6566746,8.87296332 C17.8592806,6.03778466 15.2013006,4 12.2775226,4 C9.79674131,4.08859933 7.67035732,5.32899 6.51856599,7.36677466 C3.94918533,7.80977132 2,10.113354 2,12.771334 C2,15.7837113 4.48078133,18.2644926 7.49315865,18.2644926 L14.1381086,18.2644926 L13.0749166,16.492506 L7.58175798,16.492506 Z"  fill-rule="nonzero"></path><path d="M21.6 13.7h-6.3c-.6 0-1 .4-1 1V21c0 .6.4 1 1 1h6.3c.6 0 1-.4 1-1v-6.4c0-.5-.5-.9-1-.9z" fill="#FF3B30"/></svg>
