<svg id="iconPath" width="100%" height="100%" viewBox="0 0 24 24" xmlns="http://www.w3.org/2000/svg">
        <path d="M7.58175798,16.492506 C5.45537399,16.492506 3.77198666,14.8091186 3.77198666,12.6827346 C3.77198666,10.7335493 5.27817532,9.13876132 7.13876132,8.87296332 L7.58175798,8.87296332 L7.75895665,8.51856599 C8.64494998,6.83517866 10.3283373,5.86058599 12.1889233,5.86058599 C14.5811053,5.86058599 16.61889,7.54397332 17.0618866,9.84755598 L17.150486,10.379152 L17.7706813,10.379152 C18.6566746,10.4677513 19.4540686,10.910748 19.8970653,11.5309433 L21.9853516,11.5344873 C21.3651562,10.116898 20.1628633,9.13876132 18.6566746,8.87296332 C17.8592806,6.03778466 15.2013006,4 12.2775226,4 C9.79674131,4.08859933 7.67035732,5.32899 6.51856599,7.36677466 C3.94918533,7.80977132 2,10.113354 2,12.771334 C2,15.7837113 4.48078133,18.2644926 7.49315865,18.2644926 L14.1381086,18.2644926 L13.0749166,16.492506 L7.58175798,16.492506 Z"  fill-rule="nonzero"></path>
        <path d="M21.708142,13.0885993 C21.5309433,13 21.442344,13 21.2651453,13 L14.8859933,13 C14.3543973,13 14,13.3543973 14,13.8859933 C14,14.063192 14,14.1517913 14.0885993,14.32899 L15.1517913,16.1009767 L16.2149833,17.8729633 L17.2781753,19.8221486 C17.5439733,20.2651453 18.0755693,20.3537446 18.518566,20.176546 C18.6957647,20.0879466 18.784364,19.9993473 18.8729633,19.8221486 L20.4677513,16.98697 L21.97394,14.32899 C22.239738,13.8859933 22.1511386,13.3543973 21.708142,13.0885993 Z" fill="#FF9600" fill-rule="nonzero"></path>
</svg>
