
<svg id="iconPath" width="100%" height="100%" viewBox="0 0 24 24" xmlns="http://www.w3.org/2000/svg">
        <path d="M7.84499907,5.19223945 C8.22058134,5.56782172 8.31447691,6.13119512 7.93889464,6.50677739 L4.08917637,11.1076602 L7.93889464,15.8024386 C8.31447691,16.1780208 8.22058134,16.7413942 7.84499907,17.1169765 C7.7511035,17.2108721 7.4694168,17.3047676 7.28162567,17.3047676 C6.99993896,17.3047676 6.71825226,17.1169765 6.53046113,16.9291854 L2.21126503,11.7649292 C1.92957832,11.3893469 1.92957832,10.9198691 2.21126503,10.5442868 L6.53046113,5.38003058 C6.9060434,4.91055274 7.4694168,4.91055274 7.84499907,5.19223945 Z M19.3941539,10.8259735 L15.8261223,6.60067296 C15.45054,6.22509069 15.5444356,5.66171728 15.9200179,5.28613501 C16.2956001,4.91055274 16.8589735,5.00444831 17.2345558,5.38003058 L21.5537519,10.5442868 C21.6476475,10.6381824 21.741543,10.7320779 21.741543,10.8259735 L19.3941539,10.8259735 Z M13.6665243,5.09834388 C14.1360021,5.28613501 14.4176888,5.75561285 14.4176888,6.22509069 L11.2252395,16.5536031 C11.0374484,16.9291854 10.6618661,17.2108721 10.2862838,17.2108721 L10.0045971,17.2108721 C9.44122372,17.1169765 9.15953702,16.5536031 9.34732815,16.0841253 L12.5397774,5.75561285 C12.633673,5.19223945 13.1970464,4.91055274 13.6665243,5.09834388 Z"  fill-rule="nonzero"></path>
        <path d="M20.8543764,12 L14.9389557,12 C14.3755823,12 14,12.3755823 14,12.9389557 L14,18.8543764 C14,19.4177498 14.3755823,19.7933321 14.9389557,19.7933321 L20.8543764,19.7933321 C21.4177498,19.7933321 21.7933321,19.4177498 21.7933321,18.8543764 L21.7933321,12.9389557 C21.7933321,12.3755823 21.3238543,12 20.8543764,12 Z" fill="#FF3B30" fill-rule="nonzero"></path>
</svg>
