<svg id="iconPath" width="100%" height="100%" viewBox="0 0 24 24" xmlns="http://www.w3.org/2000/svg">
	<path d="M7.2 5.8c-.4-.4-1-.3-1.4.1l-4.6 5.5c-.3.4-.3.9 0 1.3l4.6 5.5c.2.2.5.4.8.4.2 0 .5-.1.6-.2.4-.4.5-1 .1-1.4l-4.1-4.9 4.1-4.9c.4-.4.4-1.1-.1-1.4zM19.6 11.8h2.5c0-.2-.1-.3-.2-.4l-4.6-5.5c-.4-.4-1-.5-1.4-.1-.4.4-.5 1-.1 1.4l3.8 4.6zM13.4 5.7c-.5-.2-1.1.1-1.2.7l-3.4 11c-.2.5.1 1.1.7 1.2h.3c.4 0 .8-.3 1-.7l3.4-11c0-.5-.3-1.1-.8-1.2z" /><path d="M22.4 14c-.2-.1-.3-.1-.5-.1h-7.2c-.6 0-1 .4-1 1 0 .2 0 .3.1.5l3.6 6.2c.3.5.9.6 1.4.4.2-.1.3-.2.4-.4l3.6-6.2c.2-.5.1-1.1-.4-1.4z" fill="#ff9600"/>
</svg>
