<svg id="iconPath" width="100%" height="100%" viewBox="0 0 24 24" xmlns="http://www.w3.org/2000/svg"><path d="M7.3 5.4c.4.4.5 1 .1 1.5l-4.1 4.9 4.1 4.9c.4.4.3 1-.1 1.4-.1.1-.4.2-.6.2-.3 0-.6-.2-.8-.4l-4.6-5.5c-.3-.4-.3-.9 0-1.3l4.6-5.5c.3-.5 1-.5 1.4-.2zm12.5 6.3l-4-4.8c-.4-.4-.3-1 .1-1.4.4-.4 1-.3 1.4.1l4.6 5.5c.3.4.3.9 0 1.3l-1.6 1.9-.3-.6c-.3-.4-.6-.8-1-1l.8-1zm-6.3-6.4c.5.2.8.7.7 1.2l-3.4 11c-.2.4-.6.7-1 .7h-.3c-.5-.2-.8-.7-.6-1.2l3.4-11c.1-.6.7-.9 1.2-.7z" /><path d="M19 15.9l-.7-1.2c-.1-.2-.3-.4-.6-.4-.3-.1-.6-.1-.8.1-.2.1-.3.2-.4.4L13 20.9c-.3.5-.1 1.1.4 1.4.2.1.3.1.5.1H21c.6 0 1-.4 1-1 0-.2 0-.3-.1-.5l-2.9-5z" fill="#FC0"/></svg>
