<svg id="iconPath" width="100%" height="100%" viewBox="0 0 24 24" xmlns="http://www.w3.org/2000/svg"><path d="M3.8 17.2c0 .7 2.7 2.1 7.1 2.1h.6l-.3.6c-.2.4-.4.8-.4 1.2C7 21.1 3.1 20 2.2 18c-.1-.3-.2-.6-.2-.9V6.6C2 4.8 6.2 3 11 3c4.5 0 9 1.4 9 3.9v6.7c-.5-.8-1.3-1.3-2.1-1.4V9.4l-.1.1c-.7.4-1.6.7-2.6.9-1.3.3-2.9.5-4.4.5-1.5 0-3-.2-4.4-.5-1-.2-1.9-.5-2.6-.9l-.1-.1v2.7c0 .4 1 1.1 2.8 1.6 1.1.3 2.6.5 4.4.5.3 0 2.1 0 3.9-.4l-1.2 2.1c-1.6.2-2.7.1-2.7.1-1.5 0-3-.2-4.4-.5-1-.2-1.9-.5-2.6-.9l-.1-.1v2.7zM11 4.8c-4.5 0-7.2 1.4-7.2 2.1 0 .5 1 1.2 2.8 1.6 1.1.3 2.6.5 4.4.5 1.7 0 3.2-.2 4.4-.5 1.8-.5 2.8-1.1 2.8-1.6 0-.7-2.7-2.1-7.2-2.1z" /><path d="M20 17.7l-1.7-3c-.1-.2-.2-.3-.4-.4-.2-.1-.4-.2-.6-.1-.1 0-.3.1-.4.1-.2.1-.3.2-.4.4l-.4.7-3.1 5.5c-.3.5-.1 1.1.4 1.4.2.1.3.1.5.1H21c.6 0 1-.4 1-1 0-.2 0-.3-.1-.5L20 17.7z" fill="#FC0"/></svg>
