<svg id="iconPath" width="100%" height="100%" viewBox="0 0 24 24" xmlns="http://www.w3.org/2000/svg"><path d="M3.8 14.5l.1.1c.7.4 1.6.7 2.6.9 1.4.3 2.9.5 4.4.5h1.3v-1.2c0-.2 0-.4.1-.6h-1.4c-1.8 0-3.3-.2-4.4-.5-1.8-.5-2.8-1.2-2.8-1.6V9.4l.1.1c.7.4 1.6.7 2.6.9 1.4.3 2.9.5 4.4.5 1.5 0 3.1-.2 4.4-.5 1-.2 1.9-.5 2.6-.9l.1-.1v2.3H20V6.9C20 4.4 15.5 3 11 3 6.2 3 2 4.8 2 6.6v10.5c0 .3.1.6.2.9.9 2 4.9 3.1 8.8 3.1h1.3v-1.8H11c-4.5 0-7.2-1.4-7.2-2.1v-2.7zM11 4.8c4.5 0 7.2 1.4 7.2 2.1 0 .5-1 1.1-2.8 1.6-1.2.3-2.7.5-4.4.5-1.8 0-3.3-.2-4.4-.5-1.8-.4-2.8-1.1-2.8-1.6 0-.7 2.7-2.1 7.2-2.1z" /><path d="M21.6 13.7h-6.3c-.6 0-1 .4-1 1v6.2c0 .6.4 1 1 1h6.3c.6 0 1-.4 1-1v-6.3c0-.5-.5-.9-1-.9z" fill="#FF3B30"/></svg>
