<svg id="iconPath" width="100%" height="100%" viewBox="0 0 24 24" xmlns="http://www.w3.org/2000/svg"><path d="M11 19.3c.2 0 1.5.1 3.1-.2l1 1.8c-2 .2-3.9.2-4.1.2-3.9 0-7.9-1.1-8.8-3.1-.1-.3-.2-.6-.2-.9V6.6C2 4.8 6.2 3 11 3c4.5 0 9 1.4 9 3.9v4.9h-2.1V9.4l-.1.1c-.7.4-1.6.7-2.6.9-1.3.3-2.9.5-4.4.5-1.5 0-3-.2-4.4-.5-1-.2-1.9-.5-2.6-.9l-.1-.1v2.7c0 .4 1 1.1 2.8 1.6 1.1.3 2.6.5 4.4.5h1.2c-.1.2-.1.4-.1.6 0 .4.1.8.3 1.2h-1.4c-1.5 0-3-.2-4.4-.5-1-.2-1.9-.5-2.6-.9l-.1-.1v2.7c0 .7 2.7 2.1 7.2 2.1zm0-14.5c-4.5 0-7.2 1.4-7.2 2.1 0 .5 1 1.2 2.8 1.6 1.1.3 2.6.5 4.4.5 1.7 0 3.2-.2 4.4-.5 1.8-.5 2.8-1.1 2.8-1.6 0-.7-2.7-2.1-7.2-2.1z" /><path d="M22.7 13.9c-.2-.1-.3-.1-.5-.1H15c-.6 0-1 .4-1 1 0 .2 0 .3.1.5l.3.5 1.7 3 1.1 1.8.6 1c.3.5.9.6 1.4.4.2-.1.3-.2.4-.4l3.6-6.2c.1-.6 0-1.2-.5-1.5z" fill="#FF9600"/></svg>
