<svg id="iconPath" width="100%" height="100%" viewBox="0 0 24 24" xmlns="http://www.w3.org/2000/svg"><path d="M8.9 19.6h5.4l1.2 2H8.3c-.8 0-1.5-.7-1.5-1.5v-3.5C4 16.1 1.9 13.7 2 10.8V5.4C2 4.1 3.1 3 4.4 3h.5V2h2v3.9h-2v-1h-.5c-.3 0-.5.2-.5.5v5.3c0 1.8 1.1 3.5 2.9 3.9 2.5.6 4.9-1.3 4.9-3.8V5.4c0-.3-.2-.5-.5-.5h-.5v1h-2V2h2v1h.6c1.3 0 2.4 1.1 2.4 2.4v5.4c0 2.9-2.2 5.3-4.8 5.8v3zm8.8-11.9c-1.2-.5-2-1.5-2-2.8 0-1.9 1.8-3.3 3.7-2.8.9.2 1.6.9 1.9 1.7.7 1.8-.4 3.4-1.8 3.9v4.1h-1.8V7.7zm.8-1.7c.6 0 1-.5 1-1 0-.6-.5-1-1-1s-.9.4-1 1c0 .6.4 1 1 1z" /><path d="M22.7 13.9c-.2-.1-.3-.1-.5-.1H15c-.6 0-1 .4-1 1 0 .2 0 .3.1.5l2.5 4.3 1.1 1.9.1.1c.3.4.8.5 1.3.3.2-.1.3-.2.4-.4l3.6-6.2c.2-.5.1-1.1-.4-1.4z" fill="#FF9600"/></svg>
