<svg id="iconPath" width="100%" height="100%" viewBox="0 0 24 24" xmlns="http://www.w3.org/2000/svg"><path d="M11.3 3c1.3 0 2.4 1.1 2.4 2.4v5.4c0 2.9-2.2 5.3-4.8 5.8v3h3.4v1.3c0 .3.1.5.1.7H8.3c-.8 0-1.5-.7-1.5-1.5v-3.5C4 16.1 1.9 13.7 2 10.8V5.4C2 4.1 3.1 3 4.4 3h.5V2h2v3.9h-2v-1h-.5c-.3 0-.5.2-.5.5v5.3c0 1.8 1.1 3.5 2.9 3.9 2.5.6 4.9-1.3 4.9-3.8V5.4c0-.3-.2-.5-.5-.5h-.5v1h-2V2h2v1h.6zm6.4 4.7c-1.2-.5-2-1.5-2-2.8 0-1.9 1.8-3.3 3.7-2.8.9.2 1.6.9 1.9 1.7.7 1.8-.4 3.4-1.8 3.9v4h-1.8v-4z" /><path d="M21.6 13.7h-6.3c-.6 0-1 .4-1 1v6.2c0 .3.1.5.3.7.2.2.4.3.7.3h6.3c.6 0 1-.4 1-1v-6.3c0-.5-.5-.9-1-.9z" fill="#FF3B30"/></svg>
