<svg id="iconPath" width="100%" height="100%" viewBox="0 0 24 24" xmlns="http://www.w3.org/2000/svg">
	<path class="st0" d="M8.8 3.9h7.3V13h1.8V3.6c0-.9-.6-1.6-1.4-1.6H8.4C7.6 2 7 2.7 7 3.6v15.8c0 .9.6 1.6 1.4 1.6H11v-1.9H8.8V3.9z"/><path class="st0" d="M10.9 5.1h3v1h-3z"/><path d="M16.872 17.108c-.111.001-.223.002-.334.012l.162.175.172-.187z" fill="#fff"/><path class="st0" d="M20.481 16.168l-1.288-1.287-2.32 2.321-2.322-2.321-1.287 1.287 2.321 2.321-2.321 2.322 1.287 1.288 2.321-2.322 2.321 2.322 1.288-1.288-2.32-2.322z"/>
</svg>
