<svg id="iconPath" width="100%" height="100%" viewBox="0 0 24 24" xmlns="http://www.w3.org/2000/svg">
	<path class="st0" d="M8.8 19.1V3.9h7.3v7.3c.3-.1.6-.1.9-.1s.6 0 .9.1V3.6c0-.9-.6-1.6-1.4-1.6H8.4C7.6 2 7 2.7 7 3.6v15.8c0 .9.6 1.6 1.4 1.6h3.2c-.4-.6-.6-1.2-.8-1.9h-2z"/><path class="st0" d="M10.9 5.1h3v1h-3z"/><path d="M17.9 13.2c-.3-.1-.6-.1-.9-.1s-.6 0-.9.1c-2 .4-3.5 2.2-3.5 4.3 0 .5.1 1 .3 1.5.3.8.8 1.4 1.4 1.9.8.6 1.7 1 2.8 1 2.4 0 4.4-2 4.4-4.4-.1-2.1-1.6-3.8-3.6-4.3z" fill="#4cd964"/>
</svg>
