<svg id="iconPath" width="100%" height="100%" viewBox="0 0 24 24" xmlns="http://www.w3.org/2000/svg"><path d="M17.402 10.136c-3.951 0-7.166 3.217-7.166 7.171 0 .234.013.465.035.693H6.16v-4.5H4.685v5.143c0 .502-.495.91-1.105.91-.446 0-.826-.22-1-.534a.77.77 0 0 1-.105-.376V13.5h-.012a1.097 1.097 0 0 1-1.094-1.094V9.962c0-.602.493-1.093 1.094-1.093h15.496c.603 0 1.095.491 1.095 1.093v.374a7.152 7.152 0 0 0-1.652-.2zm-2.279-6.952v4.21H5.3l.021-4.21c0-.926.884-1.684 1.964-1.684h5.763c1.081 0 2.076.758 2.076 1.684zM6.16 19h4.287c.128.525.313 1.027.55 1.5H7.252a1.097 1.097 0 0 1-1.094-1.094V19zm6.017-13.57c.54 0 .982-.442.982-.982a.986.986 0 0 0-.982-.983.986.986 0 0 0-.982.983c0 .54.442.982.982.982zm-3.93-1.965a.986.986 0 0 0-.982.983c0 .54.442.982.982.982s.983-.442.983-.982a.987.987 0 0 0-.983-.983z" /><path d="M17.402 11.836a5.48 5.48 0 0 1 5.476 5.471 5.48 5.48 0 0 1-5.476 5.471 5.474 5.474 0 0 1-5.466-5.47 5.474 5.474 0 0 1 5.466-5.472zm.005 9.398a3.931 3.931 0 0 0 3.927-3.927 3.931 3.931 0 0 0-3.927-3.926 3.931 3.931 0 0 0-3.927 3.926 3.931 3.931 0 0 0 3.927 3.927zm.59-3.974l2.21 1.311-.615 1.005-2.8-1.68v-3.21h1.204v2.574z" fill="#ff3b30"/></svg>
