<svg id="iconPath" width="100%" height="100%" viewBox="0 0 24 24" xmlns="http://www.w3.org/2000/svg">

	<path d="M10 0C4.477 0 0 4.477 0 10c0 5.522 4.477 10 10 10 5.522 0 10-4.478 10-10 0-5.523-4.478-10-10-10m0 2c4.411 0 8 3.589 8 8s-3.589 8-8 8-8-3.589-8-8 3.589-8 8-8" /><path d="M5.478 10.375a.663.663 0 0 1-.47-1.137l.762-.763-.763-.764a.661.661 0 0 1 .001-.941.657.657 0 0 1 .469-.195c.181.032.345.069.472.195l.763.763.764-.763a.666.666 0 0 1 .941.941l-.763.764.763.763c.26.26.26.682 0 .942a.681.681 0 0 1-.941 0l-.764-.763-.763.763a.661.661 0 0 1-.47.195h-.001z" fill="#585E67"/><path d="M14.23 8.475l.763-.763a.669.669 0 0 0 0-.941.685.685 0 0 0-.943-.001l-.762.764-.764-.763a.683.683 0 0 0-.941-.001.668.668 0 0 0 0 .942l.762.763-.762.764a.667.667 0 0 0 0 .942.68.68 0 0 0 .94-.001l.765-.763.763.763a.661.661 0 0 0 .47.195.662.662 0 0 0 .472-.195.669.669 0 0 0 0-.941l-.764-.764z" fill="#585E67"/><path d="M7.167 14.264h5.5S12.41 12.57 9.98 12.57s-2.814 1.695-2.814 1.695z" fill="#585E67" stroke="#585E67" stroke-linecap="round" stroke-linejoin="round" stroke-miterlimit="10"/>
</svg>
