<svg id="iconPath" width="100%" height="100%" viewBox="0 0 24 24" xmlns="http://www.w3.org/2000/svg"><path d="M9.522 6.152V4.248H7.363c-.192 0-.41.048-.654.144-.244.097-.47.238-.68.425a2.42 2.42 0 0 0-.536.715 2.199 2.199 0 0 0-.22 1.011v3.196a1.436 1.436 0 0 1-.579 1.198 1.54 1.54 0 0 1-.51.256 1.75 1.75 0 0 1-.459.076v1.479c.125 0 .278.025.46.077.18.05.35.13.51.238.158.107.294.252.407.433.114.181.17.402.17.663v3.298c0 .385.074.722.221 1.011.148.29.326.527.536.715.21.187.436.328.68.425.243.096.462.144.654.144h2.16v-1.904h-.919c-.204 0-.365-.04-.484-.119a.878.878 0 0 1-.28-.297 1.035 1.035 0 0 1-.128-.4 3.578 3.578 0 0 1-.026-.408v-2.72c0-.363-.065-.66-.195-.893a1.907 1.907 0 0 0-.46-.56 1.726 1.726 0 0 0-.552-.306 2.294 2.294 0 0 0-.476-.111v-.051c.125-.011.284-.045.476-.102.193-.057.377-.156.553-.297.175-.142.328-.34.459-.595.13-.256.195-.593.195-1.012V7.393c0-.136.009-.278.026-.425.017-.147.06-.28.127-.4a.878.878 0 0 1 .28-.297c.12-.08.281-.119.485-.119h.918zm4.939 11.696v1.904h2.159c.192 0 .41-.048.654-.144.244-.097.47-.238.68-.425a2.42 2.42 0 0 0 .536-.715c.147-.289.22-.626.22-1.011v-3.298c0-.26.057-.482.17-.663a1.43 1.43 0 0 1 .409-.434c.158-.107.328-.186.51-.237.181-.052.34-.077.476-.077v-1.479c-.136 0-.295-.025-.476-.076a1.54 1.54 0 0 1-.51-.255 1.537 1.537 0 0 1-.408-.477 1.435 1.435 0 0 1-.17-.722V6.543c0-.385-.074-.722-.221-1.011a2.408 2.408 0 0 0-.536-.715 2.276 2.276 0 0 0-.68-.425 1.807 1.807 0 0 0-.654-.144h-2.16v1.904h.919c.204 0 .365.04.484.119.12.08.213.178.28.298.069.119.111.252.128.399.017.147.026.289.026.425v2.584c0 .42.065.756.195 1.011.13.256.284.454.46.596.175.141.36.24.552.297.192.057.351.09.476.102v.051a2.294 2.294 0 0 0-.476.11 1.726 1.726 0 0 0-.553.306 1.907 1.907 0 0 0-.459.562c-.13.232-.195.53-.195.892v2.72c0 .125-.009.26-.026.408-.017.147-.06.28-.127.4a.878.878 0 0 1-.28.297c-.12.08-.281.119-.485.119h-.918z" /></svg>
