<svg id="iconPath" width="100%" height="100%" viewBox="0 0 24 24" xmlns="http://www.w3.org/2000/svg"><rect x="3" y="3" width="18" height="18" rx="1.87" ry="1.87" fill="#004482"/><path d="M10.08 13.27a2.31 2.31 0 0 1-.36 1.18 2.13 2.13 0 0 1-.93.79 3.09 3.09 0 0 1-1.36.29 2.49 2.49 0 0 1-2-.83 3.35 3.35 0 0 1-.73-2.32v-.31a3.86 3.86 0 0 1 .33-1.65A2.51 2.51 0 0 1 6 9.33 2.7 2.7 0 0 1 7.42 9a2.75 2.75 0 0 1 1.87.61 2.41 2.41 0 0 1 .8 1.69H8.55a1.16 1.16 0 0 0-.29-.84 1.22 1.22 0 0 0-.84-.25.92.92 0 0 0-.85.43A2.73 2.73 0 0 0 6.29 12v.45a3.1 3.1 0 0 0 .26 1.47.94.94 0 0 0 .88.44 1.24 1.24 0 0 0 .82-.25 1.11 1.11 0 0 0 .29-.8zm3.72-.66H15v1h-1.2v1.34h-1.07V13.6h-1.17v-1h1.17v-1.28h1.07zm4.44 0h1.17v1h-1.17v1.34h-1.07V13.6H16v-1h1.17v-1.28h1.07z" fill="#fff"/></svg>
