<svg id="iconPath" width="100%" height="100%" viewBox="0 0 24 24" xmlns="http://www.w3.org/2000/svg"><rect x="3" y="3" width="18" height="18" rx="1.87" ry="1.87" fill="#4cbdc9"/><path d="M12 14.65a2.56 2.56 0 0 1-1 .63 4.55 4.55 0 0 1-1.51.25 2.71 2.71 0 0 1-2-.77 3.16 3.16 0 0 1-.8-2.14v-.56a3.86 3.86 0 0 1 .33-1.65 2.41 2.41 0 0 1 1-1.08A2.63 2.63 0 0 1 9.32 9a2.85 2.85 0 0 1 1.85.54 2.32 2.32 0 0 1 .77 1.64h-1.48a1.18 1.18 0 0 0-.35-.77 1.09 1.09 0 0 0-.74-.23 1 1 0 0 0-.9.49A2.63 2.63 0 0 0 8.15 12v.39a2.55 2.55 0 0 0 .33 1.44 1.16 1.16 0 0 0 1 .48 1.31 1.31 0 0 0 .9-.27v-1H9.33V12H12zM13 13a2.73 2.73 0 0 1 .28-1.27 2 2 0 0 1 .79-.86 2.4 2.4 0 0 1 1.22-.3 2.19 2.19 0 0 1 1.68.67 2.54 2.54 0 0 1 .62 1.8 2.45 2.45 0 0 1-.62 1.76 2.18 2.18 0 0 1-1.67.66 2.23 2.23 0 0 1-1.63-.61 2.44 2.44 0 0 1-.67-1.58zm1.48.09a1.77 1.77 0 0 0 .21 1 .68.68 0 0 0 .61.3c.53 0 .79-.4.81-1.21V13c0-.86-.28-1.28-.82-1.28s-.76.37-.81 1.1z" fill="#fff"/></svg>
