<svg id="iconPath" width="100%" height="100%" viewBox="0 0 24 24" xmlns="http://www.w3.org/2000/svg"><rect x="3" y="3" width="18" height="18" rx="1.87" ry="1.87" fill="#2c81ce"/><path d="M7.73 9h1.54v4.39A2.08 2.08 0 0 1 9 14.52a1.88 1.88 0 0 1-.79.74 2.39 2.39 0 0 1-1.13.27A2.35 2.35 0 0 1 5.44 15a1.91 1.91 0 0 1-.58-1.5h1.55a1.06 1.06 0 0 0 .15.64.61.61 0 0 0 .51.2.58.58 0 0 0 .49-.24 1.09 1.09 0 0 0 .17-.67zM13 15.44a1.8 1.8 0 0 1-.14-.43 1.38 1.38 0 0 1-1.14.52 1.68 1.68 0 0 1-1.14-.41 1.27 1.27 0 0 1-.47-1 1.32 1.32 0 0 1 .57-1.17 2.85 2.85 0 0 1 1.66-.4h.46v-.25q0-.66-.57-.66a.47.47 0 0 0-.53.52h-1.45a1.31 1.31 0 0 1 .59-1.16 2.44 2.44 0 0 1 1.49-.44 2.14 2.14 0 0 1 1.44.45 1.54 1.54 0 0 1 .54 1.22v2.1a2.17 2.17 0 0 0 .2 1v.08zm-.92-1a.85.85 0 0 0 .46-.12.83.83 0 0 0 .26-.27v-.76h-.4c-.52 0-.78.24-.78.7a.45.45 0 0 0 .14.33.5.5 0 0 0 .35.15zm4.92-.76l.75-3h1.56l-1.55 4.76h-1.55l-1.55-4.76h1.56z" fill="#fff"/></svg>
