<svg id="iconPath" width="100%" height="100%" viewBox="0 0 24 24" xmlns="http://www.w3.org/2000/svg"><rect x="3" y="3" width="18" height="18" rx="1.87" ry="1.87" fill="#3e863d"/><path d="M9.79 15.44H8.25L6 11.46v4H4.44V9H6l2.26 4V9h1.53zM11.61 14a.87.87 0 0 1 .59.21.74.74 0 0 1 0 1.07.87.87 0 0 1-.59.21.85.85 0 0 1-.59-.21.73.73 0 0 1-.23-.54.7.7 0 0 1 .23-.53.85.85 0 0 1 .59-.21zM15 10.68v4.92a1.78 1.78 0 0 1-.48 1.3 1.85 1.85 0 0 1-1.34.46 3.13 3.13 0 0 1-.7-.08v-1.12a2.43 2.43 0 0 0 .42 0 .54.54 0 0 0 .61-.61v-4.87zm-1.6-1.22a.67.67 0 0 1 .23-.52.83.83 0 0 1 .59-.2.84.84 0 0 1 .6.2.67.67 0 0 1 .23.52.65.65 0 0 1-.23.51.84.84 0 0 1-.6.21.84.84 0 0 1-.59-.21.65.65 0 0 1-.22-.51zm4.93 4.64a.34.34 0 0 0-.19-.3 2.94 2.94 0 0 0-.76-.24 3.56 3.56 0 0 1-.91-.32 1.65 1.65 0 0 1-.55-.49 1.21 1.21 0 0 1-.19-.65 1.31 1.31 0 0 1 .54-1.1 2.27 2.27 0 0 1 1.42-.43 2.48 2.48 0 0 1 1.51.43 1.34 1.34 0 0 1 .57 1.12h-1.48c0-.38-.21-.57-.61-.57a.59.59 0 0 0-.39.13.42.42 0 0 0-.16.32.37.37 0 0 0 .2.32 1.76 1.76 0 0 0 .62.21 5.36 5.36 0 0 1 .74.18 1.35 1.35 0 0 1 1.07 1.33 1.25 1.25 0 0 1-.58 1.06 2.53 2.53 0 0 1-1.49.41 2.68 2.68 0 0 1-1.09-.22 1.89 1.89 0 0 1-.75-.6 1.35 1.35 0 0 1-.27-.8H17a.56.56 0 0 0 .22.48.84.84 0 0 0 .54.15.71.71 0 0 0 .45-.12.39.39 0 0 0 .12-.3z" fill="#fff"/></svg>
