<svg id="iconPath" width="100%" height="100%" viewBox="0 0 24 24" xmlns="http://www.w3.org/2000/svg"><rect x="3" y="3" width="18" height="18" rx="1.87" ry="1.87" fill="#7371cc"/><path d="M9.22 13.1a2.81 2.81 0 0 1-.5 1.76 1.6 1.6 0 0 1-1.34.67 1.37 1.37 0 0 1-1.08-.48v2.22H4.82v-6.59H6.2v.44a1.36 1.36 0 0 1 1.12-.53 1.61 1.61 0 0 1 1.36.65A2.88 2.88 0 0 1 9.22 13zM7.74 13c0-.84-.24-1.26-.74-1.26a.69.69 0 0 0-.7.38V14a.72.72 0 0 0 .71.39c.47 0 .72-.4.73-1.22zm3.58-1.81a1.49 1.49 0 0 1 1.22-.6 1.46 1.46 0 0 1 1.18.47 2.1 2.1 0 0 1 .41 1.38v3h-1.49v-3a.82.82 0 0 0-.15-.55.65.65 0 0 0-.52-.18.7.7 0 0 0-.65.29v3.41H9.84V8.69h1.48zm8.05 1.91a2.87 2.87 0 0 1-.5 1.76 1.61 1.61 0 0 1-1.35.67 1.36 1.36 0 0 1-1.07-.48v2.22H15v-6.59h1.39v.44a1.39 1.39 0 0 1 1.12-.53 1.61 1.61 0 0 1 1.37.65 2.88 2.88 0 0 1 .49 1.76zm-1.48-.1c0-.84-.25-1.26-.74-1.26a.68.68 0 0 0-.7.38V14a.72.72 0 0 0 .71.39c.47 0 .71-.4.73-1.22z" fill="#fff"/></svg>
