<svg id="iconPath" width="100%" height="100%" viewBox="0 0 24 24" xmlns="http://www.w3.org/2000/svg"><rect x="3" y="3" width="18" height="18" rx="1.87" ry="1.87" fill="#306998"/><path d="M6.56 13.27v2.17H5V9h2.57a3 3 0 0 1 1.3.27 2 2 0 0 1 .87.77 2.06 2.06 0 0 1 .31 1.13 1.86 1.86 0 0 1-.67 1.5 2.79 2.79 0 0 1-1.84.56zm0-1.19h1a.93.93 0 0 0 .68-.23.82.82 0 0 0 .24-.63 1 1 0 0 0-.24-.72.85.85 0 0 0-.66-.27h-1zm6.75 1.28l.79-2.68h1.59l-1.94 5.55-.08.21a1.49 1.49 0 0 1-1.46.92 2.32 2.32 0 0 1-.62-.09v-1.06h.2a.91.91 0 0 0 .48-.09.49.49 0 0 0 .24-.32l.12-.31L11 10.68h1.58zm5.21-3.86v1.18h.78v1h-.78v2.18a.57.57 0 0 0 .09.37.53.53 0 0 0 .39.11 1.86 1.86 0 0 0 .36 0v1.06a2.83 2.83 0 0 1-.83.13 1.55 1.55 0 0 1-1.13-.36 1.52 1.52 0 0 1-.36-1.1v-2.36h-.61v-1H17V9.5z" fill="#fff"/></svg>
