<svg id="iconPath" width="100%" height="100%" viewBox="0 0 24 24" xmlns="http://www.w3.org/2000/svg"><rect x="3" y="3" width="18" height="18" rx="1.87" ry="1.87" fill="#a53d3d"/><path d="M7 13.17h-.84v2.27H4.62V9h2.52a2.87 2.87 0 0 1 1.78.5 1.75 1.75 0 0 1 .64 1.5 2.1 2.1 0 0 1-.27 1.11 2 2 0 0 1-.85.71l1.34 2.58v.07H8.12zM6.16 12h1a.9.9 0 0 0 .66-.23.94.94 0 0 0 .18-.66.9.9 0 0 0-.23-.65.83.83 0 0 0-.65-.23h-1zM15 13.1a2.92 2.92 0 0 1-.48 1.8 1.62 1.62 0 0 1-1.36.63A1.4 1.4 0 0 1 12 15l-.06.49h-1.33v-6.8h1.48v2.37a1.37 1.37 0 0 1 1.07-.47 1.63 1.63 0 0 1 1.37.64A2.94 2.94 0 0 1 15 13zm-1.47-.1a1.93 1.93 0 0 0-.18-1 .61.61 0 0 0-.56-.29.7.7 0 0 0-.7.38V14a.71.71 0 0 0 .7.37.64.64 0 0 0 .67-.51 4 4 0 0 0 .07-.86zm3.99.36l.79-2.68h1.59L18 16.23l-.08.21a1.49 1.49 0 0 1-1.46.92 2.32 2.32 0 0 1-.62-.09v-1.06H16a.91.91 0 0 0 .48-.09.52.52 0 0 0 .24-.32l.12-.31-1.65-4.81h1.58z" fill="#fff"/></svg>
