<svg id="iconPath" width="100%" height="100%" viewBox="0 0 24 24" xmlns="http://www.w3.org/2000/svg"><path d="M3 17h6.975c.113.714.34 1.389.674 2H2.725A1.725 1.725 0 0 1 1 17.275V2.725C1 1.772 1.772 1 2.725 1h14.55C18.227 1 19 1.772 19 2.725v7.806a6.167 6.167 0 0 0-2-.647V3H3v7.222l2.34-1.959A2.92 2.92 0 0 1 5.045 7 2.958 2.958 0 0 1 8 4.045 2.958 2.958 0 0 1 10.955 7c0 .562-.166 1.083-.44 1.531l2.116 2.342a6.24 6.24 0 0 0-1.129.989L9.431 9.569c-.426.239-.91.386-1.431.386a2.932 2.932 0 0 1-1.696-.543L3 12.178V17zM8 6.045a.956.956 0 1 0 .002 1.912A.956.956 0 0 0 8 6.045zm14.628 15.187a.932.932 0 0 1-1.318 1.317l-1.526-1.527-.151-.151-1.056-1.053-.065-.068-.197-.197a4.117 4.117 0 0 1-3.46.46c-1.432-.438-2.548-1.663-2.842-3.12a4.207 4.207 0 0 1 .856-3.513 4.166 4.166 0 0 1 3.235-1.534c.287 0 .58.03.867.088 1.457.294 2.683 1.41 3.121 2.843a4.098 4.098 0 0 1-.46 3.459l.197.197.068.065 1.161 1.164 1.57 1.57zm-6.524-2.822a2.388 2.388 0 0 0 2.385-2.385 2.388 2.388 0 0 0-2.385-2.385 2.388 2.388 0 0 0-2.385 2.385 2.388 2.388 0 0 0 2.385 2.385z" /></svg>
