<svg id="iconPath" width="100%" height="100%" viewBox="0 0 24 24" xmlns="http://www.w3.org/2000/svg"><path d="M12 22C6.486 22 2 17.514 2 12S6.486 2 12 2s10 4.486 10 10-4.486 10-10 10zm0-18c-4.411 0-8 3.589-8 8s3.589 8 8 8 8-3.589 8-8-3.589-8-8-8zm1 9.25a.75.75 0 0 1 0 1.5H8.81l.72.72a.75.75 0 1 1-1.06 1.06l-1.999-1.999a.75.75 0 0 1-.163-.245.745.745 0 0 1-.051-.252c0-.012-.007-.022-.007-.034 0-.012.006-.022.007-.034a.745.745 0 0 1 .05-.252.75.75 0 0 1 .164-.245L8.47 11.47a.75.75 0 1 1 1.06 1.06l-.72.72H13zm4.692-2.964a.75.75 0 0 1-.163.245L15.53 12.53a.744.744 0 0 1-.53.22.75.75 0 0 1-.53-1.28l.72-.72H11a.75.75 0 0 1 0-1.5h4.19l-.72-.72a.75.75 0 1 1 1.06-1.06l1.999 1.999a.75.75 0 0 1 .163.245c.034.08.047.166.051.252 0 .012.007.022.007.034 0 .012-.006.022-.007.034a.745.745 0 0 1-.05.252z" /></svg>
