<svg id="iconPath" width="100%" height="100%" viewBox="0 0 24 24" xmlns="http://www.w3.org/2000/svg"><path d="M22 16h-2v3h-3v2h5v-5zM7 21v-2H4v-3H2v5h5zM4 5h3V3H2v5h2V5zm16 0v3h2V3h-5v2h3zm-5.164 6.44v.255h1.035c.845 0 1.528.683 1.528 1.528 0 .846-.683 1.237-1.528 1.237H8.978c-1.125 0-2.037-.62-2.037-1.746s.912-2.038 2.037-2.038h.362a2.802 2.802 0 0 1 5.496.764zm-6.93-2.842a4.261 4.261 0 0 0-3.181 4.116c0 2.295 1.789 3.961 4.253 3.961h6.893c2.17 0 3.744-1.451 3.744-3.452A3.75 3.75 0 0 0 16.69 9.57a5.026 5.026 0 0 0-4.655-3.147 5.04 5.04 0 0 0-4.13 2.175z" /></svg>
