<svg id="iconPath" viewBox="0 0 24 24" xmlns="http://www.w3.org/2000/svg"><path d="M16.78 13.786l1.008 1.74 3.12 5.39h-9.951l.038-.067 4.937-8.527.849 1.464zm-1.3 4.87v.904h.904v-.905h-.904zm0-2.715v1.81h.904v-1.81h-.904zM7.937 4.222l.001-.002a.945.945 0 0 1 .116 1.333L4.18 10.166l3.874 4.614a.946.946 0 1 1-1.448 1.219l-4.384-5.222a.944.944 0 0 1 0-1.216l4.384-5.223a.945.945 0 0 1 1.331-.116zm6.47 1.053l-3.168 10.39a.946.946 0 0 1-1.81-.551l3.168-10.39a.946.946 0 0 1 1.81.55zm7.371 4.284a.944.944 0 0 1 0 1.216l-3.02 3.596-1.008-1.74 2.07-2.464-3.875-4.614a.946.946 0 0 1 1.448-1.215l4.385 5.221z" fill-rule="nonzero"/></svg>
