<svg id="iconPath" width="100%" height="100%" viewBox="0 0 24 24" xmlns="http://www.w3.org/2000/svg"><path d="M6.284 10.144a3.325 3.325 0 0 1-3.322-3.322A3.325 3.325 0 0 1 6.284 3.5a3.326 3.326 0 0 1 3.321 3.322 3.326 3.326 0 0 1-3.321 3.322zm0-4.971c-.91 0-1.65.74-1.65 1.649s.74 1.649 1.65 1.649c.91 0 1.65-.74 1.65-1.65 0-.908-.74-1.648-1.65-1.648zm.311 5.795v1.673H4.213a2.043 2.043 0 0 0-2.04 2.04v.5H.5v-.5a3.717 3.717 0 0 1 3.713-3.713h2.382zm11.08-.824a3.326 3.326 0 0 1-3.321-3.323c0-1.83 1.49-3.32 3.32-3.32a3.325 3.325 0 0 1 3.323 3.32 3.326 3.326 0 0 1-3.322 3.323zm0-4.972c-.91 0-1.65.74-1.65 1.65 0 .909.74 1.65 1.65 1.65a1.65 1.65 0 0 0 0-3.299zm2.071 5.796a3.718 3.718 0 0 1 3.713 3.713v.5h-1.672v-.5c0-1.125-.916-2.04-2.04-2.04H17.22v-1.673h2.525zm-7.838-2.149c1.428 0 2.693.911 3.148 2.268.116.344.174.698.174 1.054a3.326 3.326 0 0 1-3.322 3.322 3.326 3.326 0 0 1-3.322-3.322c0-.51.117-1.005.347-1.47a3.304 3.304 0 0 1 2.975-1.852zm0 4.971a1.65 1.65 0 0 0 0-3.299c-.909 0-1.649.74-1.649 1.65 0 .909.74 1.649 1.65 1.649zm1.321 2.497c2.344 0 4.25 1.666 4.25 3.713v.5h-1.785V20c0-1.125-1.105-2.041-2.465-2.041h-2.5c-1.359 0-2.465.916-2.465 2.041v.5H6.48V20c0-2.047 1.907-3.713 4.25-3.713h2.5z" /></svg>
