<svg id="iconPath" width="100%" height="100%" viewBox="0 0 24 24" xmlns="http://www.w3.org/2000/svg"><path d="M21.8 10.7h-2l-4.4-3.1c.1-.2.1-.3.1-.5.2-1.5-.6-2.9-1.9-3.7-.3-.2-.6-.3-.9-.4v-.5h2l.9-2h-7l.9 2h1.6v.7c0 .2-.1 1.5.8 1.5 1.1 0 2 .9 2 2s-.9 2-2 2c-.5 0-.9-.2-1.3-.5l1.5-1c.3-.2.4-.7.2-1-.2-.3-.7-.4-1-.2L9.9 7v-.2c0-.2.1-.8.1-.8.1-.6-.2-1-.7-1h-.1c-.4 0-.8.3-.9.7 0 0 0 .2-.1.5v.7c0 .3.1.7.2 1l-4.2 3h-2c-.6-.1-1.2.4-1.2 1.1v9.3c0 .7.6 1.2 1.2 1.2h19.5c.7 0 1.2-.6 1.2-1.2V12c.1-.7-.4-1.3-1.1-1.3zM9.4 9c.2.2.4.4.6.5.6.5 1.4.8 2.2.7 1-.1 1.8-.5 2.5-1.2l2.5 1.8H6.9L9.4 9zM21 20.5H3v-7.8h18v7.8z" /><path d="M7 19.7c.6 0 1-.4 1-1v-4.1c0-.6-.4-1-1-1s-1 .4-1 1v4.1c0 .5.4 1 1 1zM12 19.7c.6 0 1-.4 1-1v-4.1c0-.6-.4-1-1-1s-1 .4-1 1v4.1c0 .5.4 1 1 1zM17 19.7c.6 0 1-.4 1-1v-4.1c0-.6-.4-1-1-1s-1 .4-1 1v4.1c0 .5.4 1 1 1z" fill="#585E67"/></svg>
