<svg id="iconPath" width="100%" height="100%" viewBox="0 0 24 24" xmlns="http://www.w3.org/2000/svg"><path d="M7.053 20.29c0 .834.677 1.51 1.511 1.51h9.68a1.51 1.51 0 0 0 1.51-1.51V7.9c1.393-.507 2.464-2.136 1.795-3.87a2.859 2.859 0 0 0-1.888-1.72 2.908 2.908 0 0 0-3.708 2.79c0 1.3.8 2.3 2 2.8v11.9h-8.8v-3c2.6-.5 4.8-2.9 4.8-5.8V5.6c0-1.32-1.08-2.4-2.4-2.4h-.6v-1h-2v3.9h2v-1h.5c.3 0 .5.2.5.5V11c0 2.54-2.398 4.413-4.888 3.774-1.752-.449-2.912-2.127-2.912-3.936V5.6c0-.3.2-.5.5-.5h.5v1h2V2.2h-2v1h-.5c-1.32 0-2.4 1.08-2.4 2.4V11c-.1 2.9 2 5.3 4.8 5.8v3.49z" /></svg>
