<svg id="iconPath" width="100%" height="100%" viewBox="0 0 24 24" xmlns="http://www.w3.org/2000/svg"><path d="M17.333 8.666l-5.511 3.195L6.77 8.639c.14-.372.467-.635.85-.635h8.855c.391 0 .723.277.858.662zm-5.514 4.376l5.582-3.244v5.168c0 .571-.416 1.038-.926 1.038H7.62c-.51 0-.926-.467-.926-1.038l.004-5.195 5.122 3.27zm8.297 6.966L17.066 20v-1.95h2.37c.34 0 .628-.288.628-.629V6.588a.637.637 0 0 0-.629-.628h-2.37V4h3.05c1.2 0 1.95.915 1.95 1.964v12.079c0 1.07-.9 1.965-1.95 1.965zM7.159 20l-3.012.008c-1.049 0-1.964-.938-1.964-1.965V5.964C2.183 4.894 3.036 4 4.147 4h3.012v1.96H4.796a.637.637 0 0 0-.629.628v10.833c0 .341.288.629.629.629h2.363V20z" /></svg>
