<svg id="iconPath" width="100%" height="100%" viewBox="0 0 24 24" xmlns="http://www.w3.org/2000/svg"><path d="M1.74 7.667A1.42 1.42 0 0 1 .324 6.25V3.417A1.42 1.42 0 0 1 1.74 2h14.167c.78 0 1.417.638 1.417 1.417V6.25c0 .779-.638 1.417-1.417 1.417H1.74zm.472-3.778v1.889h13.223V3.889H2.212zM12.934 17.11l.061.067A4.728 4.728 0 0 0 10.127 19H1.269a.946.946 0 0 1 0-1.89h6.61v-1.887H1.74a1.42 1.42 0 0 1-1.416-1.417v-2.833c0-.78.637-1.417 1.416-1.417h11.11a5.432 5.432 0 0 0-1.025 1.888H2.212v1.889h9.325c0 .672.114 1.3.317 1.89H9.768v1.887h3.166zm7.453 1.6c1.868 0 3.388 1.481 3.388 3.302H21.9c0-.786-.678-1.425-1.512-1.425h-6.125c-.834 0-1.513.639-1.513 1.425h-1.875c0-1.82 1.52-3.301 3.388-3.301h6.125zm-7.15-5.361a4.093 4.093 0 0 1 4.087-4.088 4.093 4.093 0 0 1 4.088 4.088c0 1.613-.947 2.997-2.307 3.662a4.04 4.04 0 0 1-1.78.426 4.04 4.04 0 0 1-1.781-.426c-1.36-.665-2.308-2.05-2.308-3.662zm1.874 0c0 1.22.993 2.212 2.213 2.212 1.22 0 2.213-.993 2.213-2.212 0-1.22-.992-2.213-2.213-2.213-1.22 0-2.213.993-2.213 2.213z" /></svg>
