<svg id="iconPath" width="100%" height="100%" viewBox="0 0 24 24" xmlns="http://www.w3.org/2000/svg"><path d="M9 11A5 5 0 1 1 9 1a5 5 0 0 1 0 10zm0-8a3 3 0 1 0 0 6 3 3 0 0 0 0-6zM1 17c0-2.21 1.856-4 4.111-4h5.518a7.419 7.419 0 0 0-.93 2H5.111C3.944 15 3 15.91 3 17H1zm15.663-5.47A5.48 5.48 0 0 1 22.139 17a5.48 5.48 0 0 1-5.476 5.47A5.474 5.474 0 0 1 11.197 17a5.474 5.474 0 0 1 5.466-5.47zM20.595 17a3.931 3.931 0 0 0-3.927-3.927A3.931 3.931 0 0 0 12.741 17a3.931 3.931 0 0 0 3.927 3.927A3.931 3.931 0 0 0 20.595 17zm-3.337-2.621v2.573l2.209 1.312-.613 1.006-2.801-1.681v-3.21h1.205z"  fill-rule="evenodd"/></svg>
