<svg id="iconPath" viewBox="0 0 24 24" xmlns="http://www.w3.org/2000/svg"><path d="M13.65 14.017h.001a2.063 2.063 0 0 1 1.376 1.941c0 .05-.01.097-.014.146h.29a24.5 24.5 0 0 0 3.25.47 7.948 7.948 0 0 0 1.343-3.345 30.34 30.34 0 0 0-5.28-4.015c-.125.17-.275.32-.446.445a2.054 2.054 0 0 1-.584.29l-.058.004.122 4.064zm-.962-.093l-.118-3.908a2.016 2.016 0 0 1-.209-.057 2.05 2.05 0 0 1-.696-.368 30.33 30.33 0 0 0-2.053 2.234c.241.33.388.735.388 1.175 0 .34-.093.654-.242.934.46.293.962.574 1.51.838a2.065 2.065 0 0 1 1.382-.852l.038.004zM12 2c5.514 0 10 4.486 10 10s-4.486 10-10 10S2 17.514 2 12 6.486 2 12 2zm7.997 9.943A7.983 7.983 0 0 0 16.8 5.616a21.65 21.65 0 0 0-2.056 1.344c.175.304.283.652.283 1.028 0 .091-.015.178-.026.267a30.574 30.574 0 0 1 4.996 3.688zM12 4c-1.661 0-3.206.51-4.486 1.38 1.403.25 2.735.652 3.98 1.146a2.05 2.05 0 0 1 2.53-.302c.71-.52 1.336-.931 1.835-1.227A7.947 7.947 0 0 0 12 4zM4.909 8.311l.033.066c.32.663.874 1.793 1.889 3.007A1.981 1.981 0 0 1 8 11c.295 0 .573.068.825.183a30.837 30.837 0 0 1 2.22-2.412 2.06 2.06 0 0 1-.156-.783c0-.2.037-.388.09-.57A18.943 18.943 0 0 0 6.461 6.24a8.059 8.059 0 0 0-1.552 2.071zM4 12c0 1.611.483 3.11 1.306 4.367.396-.712.798-1.4 1.21-2.037A1.985 1.985 0 0 1 6 13c0-.294.067-.57.181-.822a13.878 13.878 0 0 1-1.784-2.655A7.959 7.959 0 0 0 4 12zm8 8a7.97 7.97 0 0 0 5.778-2.482 24.534 24.534 0 0 1-3.049-.504 2.06 2.06 0 0 1-1.77 1.013 2.07 2.07 0 0 1-2.07-2.069c0-.079.015-.154.024-.231-.64-.303-1.26-.65-1.852-1.038-.317.202-.685.31-1.061.311a1.97 1.97 0 0 1-.645-.116 34.52 34.52 0 0 0-1.383 2.359A7.977 7.977 0 0 0 12 20z"  fill-rule="nonzero"/></svg>
