<svg id="iconPath" width="100%" height="100%" viewBox="0 0 24 24" xmlns="http://www.w3.org/2000/svg"><path d="M1.5 7.826c-.825 0-1.5-.675-1.5-1.5v-3c0-.825.675-1.5 1.5-1.5h15c.825 0 1.5.675 1.5 1.5v3c0 .825-.675 1.5-1.5 1.5h-15zm.5-4v2h14v-2H2zm8 14h1.283a6.048 6.048 0 0 0 1.19 2H1a1 1 0 1 1 0-2h7v-2H1.5c-.825 0-1.5-.675-1.5-1.5v-3c0-.825.675-1.5 1.5-1.5h14.438a6.046 6.046 0 0 0-3.529 2H2v2h9.258a6.041 6.041 0 0 0-.332 1.965l.001.035H10v2zm13.511 3.172a.932.932 0 0 1-1.317 1.317L20.59 20.71l-.074-.074-1.055-1.053-.065-.067-.198-.198a4.117 4.117 0 0 1-3.459.46c-1.433-.438-2.549-1.663-2.843-3.12a4.207 4.207 0 0 1 .856-3.513 4.166 4.166 0 0 1 3.235-1.533c.288 0 .58.03.868.087 1.457.294 2.682 1.41 3.12 2.843a4.098 4.098 0 0 1-.46 3.459l.199.199.066.064 1.088 1.09.074.074 1.57 1.569zm-6.524-2.821a2.388 2.388 0 0 0 2.386-2.386 2.388 2.388 0 0 0-2.386-2.385 2.388 2.388 0 0 0-2.385 2.385 2.388 2.388 0 0 0 2.385 2.386z" /></svg>
