<svg id="iconPath" width="100%" height="100%" viewBox="0 0 24 24" xmlns="http://www.w3.org/2000/svg">
    <path d="M12.4696436,4.88809924 C14.0397978,6.31578581 15.4125511,7.0296291 16.5879035,7.0296291 C18.6072618,7.0296291 21.5996822,7.99215508 21.5996822,10.023236 L18.6164656,17.0098932 C16.5854634,17.0098932 15.6638691,14.0243152 12.5910579,14.0243152 C10.9845859,14.0243152 9.61102978,13.6173681 8.47038958,12.803474 L5.03444309,19.6039433 C4.64330764,19.8484368 4.36316125,19.9249215 4.19400393,19.8333973 C4.02484661,19.741873 3.96630895,19.48214 4.01839096,19.0541983 L11.6050919,4.05034826 C12.0130369,3.98321725 12.2724025,3.98321725 12.3831889,4.05034826 C12.4939752,4.11747927 12.5632649,4.31662801 12.5910579,4.64779447 L12.4696436,4.88809924 Z"  />
</svg>
