<svg id="iconPath" width="100%" height="100%" viewBox="0 0 24 24" xmlns="http://www.w3.org/2000/svg"><path d="M19.5 10.165c.825 0 1.5.675 1.5 1.5v3c0 .825-.675 1.5-1.5 1.5h-15c-.825 0-1.5-.675-1.5-1.5v-3c0-.825.675-1.5 1.5-1.5h15zm-.5 4v-2H5v2h14zm-14.5-6c-.825 0-1.5-.675-1.5-1.5v-3c0-.825.675-1.5 1.5-1.5h15c.825 0 1.5.675 1.5 1.5v3c0 .825-.675 1.5-1.5 1.5h-15zm.5-4v2h14v-2H5zm-1 15h4.116a3.977 3.977 0 0 0-.141 1c0 .347.058.678.14 1H4a1 1 0 1 1 0-2zm16 0a1 1 0 1 1 0 2h-4.116c.083-.322.141-.653.141-1 0-.348-.058-.679-.14-1H20zm-8-1.684a2.68 2.68 0 0 1 2.486 1.684c.125.31.198.645.198 1 0 .354-.073.69-.198 1A2.682 2.682 0 0 1 12 22.848a2.682 2.682 0 0 1-2.486-1.683 2.667 2.667 0 0 1-.198-1c0-.355.073-.69.198-1A2.682 2.682 0 0 1 12 17.48z" /></svg>
