<svg id="iconPath" width="100%" height="100%" viewBox="0 0 24 24" xmlns="http://www.w3.org/2000/svg"><path d="M11.878 9a2.53 2.53 0 0 0-2.432 1.84h-.327a1.838 1.838 0 0 0-1.839 1.838c0 1.017.823 1.576 1.84 1.576h6.22c.764 0 1.38-.352 1.38-1.116 0-.763-.616-1.38-1.38-1.38h-.933v-.23A2.528 2.528 0 0 0 11.878 9zm8.238 11.008L17.066 20v-1.95h2.37c.34 0 .628-.288.628-.629V6.588a.637.637 0 0 0-.629-.628h-2.37V4h3.05c1.2 0 1.95.915 1.95 1.964v12.079c0 1.07-.9 1.965-1.95 1.965zM7.159 20l-3.012.008c-1.049 0-1.964-.938-1.964-1.965V5.964C2.183 4.894 3.036 4 4.147 4h3.012v1.96H4.796a.637.637 0 0 0-.629.628v10.833c0 .341.288.629.629.629h2.363V20zm4.719-13c1.9 0 3.532 1.177 4.202 2.84a3.385 3.385 0 0 1 2.64 3.298c0 1.806-1.421 3.116-3.38 3.116H9.12c-2.225 0-3.84-1.504-3.84-3.576a3.846 3.846 0 0 1 2.87-3.715A4.55 4.55 0 0 1 11.879 7z" /></svg>
