<svg id="iconPath" width="100%" height="100%" viewBox="0 0 24 24" xmlns="http://www.w3.org/2000/svg"><path d="M20.658 19.219l3.044 3.047a1.015 1.015 0 0 1-1.434 1.436l-3.045-3.047a1.016 1.016 0 0 1-.207-.3 4.061 4.061 0 0 1-6.178-3.466 4.061 4.061 0 0 1 4.059-4.063 4.061 4.061 0 0 1 3.462 6.185c.108.049.21.118.3.208zM18 11.239V4H4v14h7.254c.142.725.42 1.4.805 2H3.725A1.725 1.725 0 0 1 2 18.275V3.725C2 2.772 2.772 2 3.725 2h14.55C19.227 2 20 2.772 20 3.725v8.319a5.712 5.712 0 0 0-2-.804zm-5.972 2.589H6v-1.5h7.39c-.537.415-1 .923-1.362 1.5zM6 6.328h9v1.5H6v-1.5zm0 3h6.987v1.5H6v-1.5zm10.897 5.022c-1.4 0-2.537 1.14-2.537 2.54a2.54 2.54 0 0 0 2.537 2.539 2.54 2.54 0 0 0 0-5.08z" /></svg>
