<svg id="iconPath" width="100%" height="100%" viewBox="0 0 24 24" xmlns="http://www.w3.org/2000/svg"><path d="M13.2649802,4.78277687 L15.4387946,6.17042157 C18.3394512,8.02204265 20,11.0691498 20,14.4024327 C20,18.6195826 17.0016311,22.024763 12.4889642,21.9998622 C7.994453,21.9750617 5,19.0125516 5,14.9974285 C5,13.0172687 5.54948338,11.6985325 6.89441549,9.56467645 C6.96809406,9.44790099 6.96809406,9.44790099 7.0404904,9.33329648 C8.23422649,7.44275257 8.56215817,6.5853302 8.44434816,5.16536554 L8.13263253,1.40825509 L11.418249,3.25697634 C12.1289324,3.65685734 12.7441185,4.1759236 13.2649802,4.78277687 Z M10.4375,5 C10.8102778,9.49309285 7,11.0399568 7,14.9974285 C7,17.6855342 8.8755,19.9798928 12.5,19.9998927 C16.1245,20.0198925 18,17.2411624 18,14.4024327 C18,11.8143262 16.7398889,9.37371871 14.3626667,7.85622957 C14.9273333,9.48559291 14.1756667,10.9737073 13.4453889,11.4862036 C13.4881667,9.40059352 12.7578889,6.30561566 10.4375,5 Z M13.6813418,13 C15.8179706,14.7974369 15.0471643,17.6962044 13.563503,17.9713997 C12.6608112,18.1388346 12.1046442,17.5463089 12.0143683,16.8415204 C11.8471831,15.5345042 13.1841041,15.2854269 13.6813418,13 Z" /></svg>