<svg id="iconPath" width="100%" height="100%" viewBox="0 0 24 24" xmlns="http://www.w3.org/2000/svg"><path d="M23.14 23.008H11.712v-7.515h3.204l.949-1.42 3.176-.003.857 1.318a.23.23 0 0 0 .102.081.23.23 0 0 0 .094.024h3.046v7.515zM18 16.637a2.472 2.472 0 0 0-.574-.074c-.996 0-1.85.591-2.25 1.437a2.466 2.466 0 0 0-.243 1.057 2.494 2.494 0 0 0 2.493 2.493 2.496 2.496 0 0 0 2.493-2.493c0-.074-.015-.143-.022-.215A2.486 2.486 0 0 0 18 16.637zm-6-4.31v1.5H6v-1.5h6zm6.65 7.63a1.511 1.511 0 0 1-2.412.043 1.51 1.51 0 0 1 .093-2 1.517 1.517 0 0 1 1.67-.354c.556.227.949.772.949 1.41 0 .338-.114.648-.3.9zM4 4v14h5.78v2H3.725A1.725 1.725 0 0 1 2 18.275V3.725C2 2.772 2.772 2 3.725 2h14.55C19.227 2 20 2.772 20 3.725v8.386h-2V4H4zm2 2.328h7.04v1.5H6v-1.5zm0 3h9v1.5H6v-1.5z" /></svg>
