<svg id="iconPath" width="100%" height="100%" viewBox="0 0 24 24" xmlns="http://www.w3.org/2000/svg"><path d="M23 18h-3c1.1 0 1.99-.9 1.99-2L22 6c0-1.1-.9-2-2-2H4c-1.1 0-2 .9-2 2v10c0 1.1.9 2 2 2H1v2h22v-2zM4 6h16v10H4V6zm7.75 6.5H7.56l.72.72a.749.749 0 1 1-1.06 1.06l-2-2a.75.75 0 0 1-.001-1.061l2-2a.75.75 0 1 1 1.06 1.06l-.72.72h4.19a.75.75 0 0 1 0 1.5zm6.735-2.676a.738.738 0 0 1-.043.211.746.746 0 0 1-.162.245l-2 2a.744.744 0 0 1-.53.22.75.75 0 0 1-.53-1.28l.719-.72H11.75a.75.75 0 0 1 0-1.5h4.19l-.72-.72a.75.75 0 1 1 1.06-1.06l1.999 1.999a.75.75 0 0 1 .163.245c.029.07.039.147.046.225.001.021.012.04.012.061 0 .026-.012.049-.015.074z" /></svg>
