
<svg id="iconPath" width="100%" height="100%" viewBox="0 0 24 24" xmlns="http://www.w3.org/2000/svg">
    <path d="M12,19.5218564 L9.18267443,21.5949297 L7.93337741,18.3277883 L4.44250426,18.5486073 L5.15787876,15.1246921 L2.10178558,13.4231484 L4.55470525,10.9295282 L2.90368005,7.84584987 L6.31536023,7.0742316 L6.59359183,3.58746467 L9.88084816,4.78283164 L12,2 L14.1191518,4.78283164 L17.4064082,3.58746467 L17.6846398,7.0742316 L21.09632,7.84584987 L19.4452947,10.9295282 L21.8982144,13.4231484 L18.8421212,15.1246921 L19.5574957,18.5486073 L16.0666226,18.3277883 L14.8173256,21.5949297 L12,19.5218564 Z M13.7141275,10.2562683 L13.7451415,8.10079549 C13.5280424,8.03359816 13.2954398,8 13.0473266,8 C12.2512967,8 11.6284385,8.38508661 11.1787333,9.15527137 L11.1167053,8.15506998 L9,8.15506998 L9,16.5443561 L11.2407613,16.5443561 L11.2407613,11.0548787 C11.5043815,10.4811169 12.0600434,10.1942403 12.9077636,10.1942403 C13.1403697,10.1942403 13.409155,10.214916 13.7141275,10.2562683 Z M12.4646058,15.1393848 C12.4646058,15.5809455 12.6052772,15.9397081 12.8866241,16.2156835 C13.1679711,16.4916589 13.5257657,16.6296445 13.9600186,16.6296445 C14.4003878,16.6296445 14.7612405,16.4916589 15.0425874,16.2156835 C15.3239344,15.9397081 15.4646058,15.5809455 15.4646058,15.1393848 C15.4646058,14.6913306 15.3224054,14.3276979 15.0380003,14.0484757 C14.7535952,13.7692535 14.3942716,13.6296445 13.9600186,13.6296445 C13.5318819,13.6296445 13.1756164,13.7692535 12.8912113,14.0484757 C12.6068062,14.3276979 12.4646058,14.6913306 12.4646058,15.1393848 Z"  />
</svg>
