<svg id="iconPath" width="100%" height="100%" viewBox="0 0 24 24" xmlns="http://www.w3.org/2000/svg">
        <path d="M19.34997,8.53998 C21.94897,8.71997 24,10.85999 24,13.5 C24,16.26001 21.76001,18.5 19,18.5 L14.79136,18.5 L14.79136,16.5 L19,16.5 C20.65997,16.5 22,15.15997 22,13.5 C22,11.84003 20.65997,10.5 19,10.5 L17.5,10.5 L17.5,10 C17.5,6.96002 15.03998,4.5 12,4.5 C9.479,4.5 7.36999,6.19 6.71002,8.5 L6,8.5 C3.78998,8.5 2,10.28998 2,12.5 C2,14.71002 3.78998,16.5 6,16.5 L9.11289,16.5 L9.11289,18.5 L6,18.5 C2.68896,18.5 0,15.81 0,12.5 C0,9.40997 2.33996,6.85999 5.34998,6.53998 C6.59998,4.14001 9.10901,2.5 12,2.5 C15.64001,2.5 18.66998,5.09003 19.34997,8.53998 Z M15.26586,12.80042 C14.98944,13.08063 14.57952,13.12433 14.24902,12.95362 C14.1687,12.91218 14.08862,12.86847 14.02142,12.80042 L12.88372,11.6474 L12.88372,19.73707 C12.88372,20.22956 12.48974,20.62885 12.00372,20.62885 C11.5177,20.62885 11.12372,20.22956 11.12372,19.73707 L11.12372,11.64741 L9.98602,12.80043 C9.91607,12.8713 9.83307,12.91793 9.74902,12.95998 C9.42022,13.12447 9.01525,13.07783 8.74157,12.80043 C8.39788,12.45216 8.39788,11.88753 8.74157,11.53926 L9.78277,10.48408 L11.38146,8.86384 C11.72515,8.51551 12.28228,8.51551 12.62597,8.86384 L14.21429,10.47352 L15.26586,11.53925 C15.60955,11.88752 15.60955,12.45215 15.26586,12.80042 Z"  fill-rule="nonzero"></path>
</svg>
