<svg id="iconPath" viewBox="0 0 24 24" xmlns="http://www.w3.org/2000/svg"><path d="M18.363 11.13a5.199 5.199 0 0 0-1.818-.73V3.818H3.818v12.727h6.594c.129.659.38 1.273.731 1.818H3.568A1.568 1.568 0 0 1 2 16.795V3.568C2 2.702 2.702 2 3.568 2h13.227c.865 0 1.568.702 1.568 1.568v7.563zm-6.008.259a5.25 5.25 0 0 0-1.24 1.363H5.636V11.39h6.719zM5.636 5.934h8.182v1.364H5.636V5.934zm0 2.728h6.352v1.363H5.636V8.662zm11.832 10.024a3.692 3.692 0 0 1-4.536-.539 3.692 3.692 0 0 1-1.08-2.612 3.692 3.692 0 0 1 3.69-3.693 3.692 3.692 0 0 1 3.147 5.623c.1.045.192.108.272.188l2.768 2.77a.923.923 0 1 1-1.304 1.306l-2.768-2.77a.922.922 0 0 1-.189-.273zm-1.927-5.459h.001a2.31 2.31 0 0 0 0 4.617 2.309 2.309 0 0 0 0-4.617z" /></svg>
