<svg id="iconPath" width="100%" height="100%" viewBox="0 0 24 24" xmlns="http://www.w3.org/2000/svg"><path d="M17.123 8.018H7.3l.021-4.211c0-.926.884-1.684 1.964-1.684h5.763c1.081 0 2.076.757 2.076 1.684v4.21zm-6.877-1.966c.54 0 .983-.442.983-.981a.987.987 0 0 0-.983-.983.986.986 0 0 0-.982.982c0 .54.442.982.982.982zm3.93 0c.54 0 .982-.442.982-.981a.986.986 0 0 0-.982-.983.986.986 0 0 0-.982.982c0 .54.442.982.982.982zm5.784 3.44c.602 0 1.094.49 1.094 1.093v2.444c0 .602-.492 1.094-1.094 1.094l-.013 5.142c0 .503-.495.91-1.104.91-.61 0-1.105-.407-1.105-.91v-5.142h-1.58v4.5h-8v-4.5H6.686v5.142c0 .503-.495.91-1.105.91-.446 0-.826-.22-1-.533a.77.77 0 0 1-.105-.377v-5.142a1.1 1.1 0 0 1-1.105-1.094v-2.444c0-.602.492-1.093 1.093-1.093H19.96zM8.159 19.622h8v.407c0 .602-.492 1.094-1.094 1.094H9.253a1.097 1.097 0 0 1-1.094-1.094v-.406z" /></svg>
