<svg id="iconPath" width="100%" height="100%" viewBox="0 0 24 24" xmlns="http://www.w3.org/2000/svg"><path d="M11.37 12.86H7.8l.613.614a.638.638 0 1 1-.903.903l-1.703-1.703a.638.638 0 0 1-.139-.209.639.639 0 0 1-.043-.217c0-.009-.006-.017-.006-.026 0-.009.005-.016.005-.024a.64.64 0 0 1 .044-.22.636.636 0 0 1 .139-.208l1.703-1.704a.638.638 0 1 1 .903.903l-.613.614h3.569a.64.64 0 0 1 0 1.277zm4.04-4.071c.001.009.006.016.006.025 0 .01-.005.017-.005.026a.638.638 0 0 1-.044.218.636.636 0 0 1-.139.208l-1.703 1.703a.634.634 0 0 1-.903 0 .638.638 0 0 1 0-.903l.613-.613H9.666a.64.64 0 0 1 0-1.277h3.569l-.613-.614a.638.638 0 1 1 .903-.903l1.703 1.704a.636.636 0 0 1 .139.208c.027.067.04.141.044.218zm-4.892 8.543c.313 0 .619-.028.92-.07.146.58.38 1.124.689 1.617-.522.1-1.059.157-1.61.157C5.822 19.036 2 15.215 2 10.518 2 5.82 5.821 2 10.518 2c4.697 0 8.518 3.821 8.518 8.518 0 .052-.007.102-.008.153a5.593 5.593 0 0 0-1.708-.4c-.131-3.642-3.128-6.567-6.802-6.567a6.822 6.822 0 0 0-6.814 6.814 6.822 6.822 0 0 0 6.814 6.814zM23.37 21.38a.932.932 0 0 1-1.318 1.317l-1.677-1.678-1.056-1.053-.065-.068-.197-.197a4.117 4.117 0 0 1-3.46.46c-1.432-.438-2.548-1.663-2.842-3.12a4.207 4.207 0 0 1 .856-3.513 4.166 4.166 0 0 1 3.235-1.533c.287 0 .58.03.867.087 1.458.294 2.683 1.41 3.121 2.843a4.098 4.098 0 0 1-.46 3.46l.197.196.068.066L21.8 19.81l1.57 1.57zm-6.524-2.821a2.388 2.388 0 0 0 2.385-2.386 2.388 2.388 0 0 0-2.385-2.385 2.388 2.388 0 0 0-2.385 2.385 2.388 2.388 0 0 0 2.385 2.386z"  fill-rule="evenodd"/></svg>
