<svg id="iconPath" width="100%" height="100%" viewBox="0 0 24 24" xmlns="http://www.w3.org/2000/svg"><path d="M19.253 2.5c.965 0 1.747.782 1.747 1.747v11.512c0 .965-.782 1.746-1.747 1.746H4.747A1.746 1.746 0 0 1 3 15.76V4.247C3 3.282 3.782 2.5 4.747 2.5h14.506zM5 15.505h14V4.5H5v11.005zm6-8.961c0-.014.011-.026.026-.026h1.948c.015 0 .026.012.026.026v3.89a.026.026 0 0 1-.026.025h-1.948a.026.026 0 0 1-.026-.025v-3.89zm1.974 6.938h-1.948a.026.026 0 0 1-.026-.026v-1.849c0-.014.011-.025.026-.025h1.948c.015 0 .026.011.026.025v1.85a.026.026 0 0 1-.026.025zM3 19.5h18v2H3v-2z" /></svg>
