<svg id="iconPath" width="100%" height="100%" viewBox="0 0 24 24" xmlns="http://www.w3.org/2000/svg"><path d="M9 11A5 5 0 1 1 9 1a5 5 0 0 1 0 10zm0-8a3 3 0 1 0 0 6 3 3 0 0 0 0-6zM5.111 13h5.162a6.014 6.014 0 0 0-.607 2H5.11C3.944 15 3 15.91 3 17H1c0-2.21 1.856-4 4.111-4zm17.092 7.938c.176.176.273.41.273.659a.925.925 0 0 1-.273.659.926.926 0 0 1-.659.272.927.927 0 0 1-.659-.273l-1.633-1.634-.044-.044-1.055-1.053-.066-.068-.197-.196a4.117 4.117 0 0 1-3.46.46c-1.432-.439-2.548-1.664-2.842-3.121a4.207 4.207 0 0 1 .856-3.513 4.166 4.166 0 0 1 3.235-1.533c.288 0 .58.03.868.087 1.457.294 2.682 1.41 3.12 2.843a4.098 4.098 0 0 1-.46 3.46l.197.196.068.066 1.097 1.099.065.065 1.57 1.57zm-6.524-2.821a2.388 2.388 0 0 0 2.386-2.385 2.388 2.388 0 0 0-2.386-2.386 2.388 2.388 0 0 0-2.385 2.386 2.388 2.388 0 0 0 2.385 2.385z"  fill-rule="evenodd"/></svg>
