<svg id="iconPath" width="100%" height="100%" viewBox="0 0 24 24" xmlns="http://www.w3.org/2000/svg"><path d="M12 17.118a4.957 4.957 0 0 1-2.774-.82 5.2 5.2 0 0 1-1.875-2.11L3.251 7C2.39 8.537 2 10.256 2 12c0 2.5.812 4.68 2.44 6.544 1.627 1.862 3.653 2.974 6.075 3.34l2.9-5.02c-.292.086-.779.254-1.416.254" fill="#20A264"/><path d="M8.856 7.957C9.78 7.241 10.829 7 12 7h8.593c-.885-1.51-2.09-2.786-3.613-3.672A9.744 9.744 0 0 0 12 2c-1.563 0-3.022.332-4.375.997C6.27 3.66 5.018 4.627 4.1 5.868L7 10.75a5.107 5.107 0 0 1 1.856-2.793" fill="#DC5148"/><path d="M21.248 8.25h-5.81c1.015 1.016 1.68 2.318 1.68 3.75a5.118 5.118 0 0 1-.899 2.93L12.117 22c2.735-.026 5.065-1.016 6.993-2.969C21.036 17.078 22 14.734 22 12c0-1.275-.215-2.617-.752-3.75" fill="#FFCE55"/><path d="M12 15.75a3.75 3.75 0 1 0 0-7.5 3.75 3.75 0 0 0 0 7.5" fill="#4D86F7"/><path d="M12 17.118a4.957 4.957 0 0 1-2.774-.82 5.2 5.2 0 0 1-1.875-2.11L3.251 7C2.39 8.537 2 10.256 2 12c0 2.5.812 4.68 2.44 6.544 1.627 1.862 3.653 2.974 6.075 3.34l2.9-5.02c-.292.086-.779.254-1.416.254" fill="#20A264"/></svg>
