<svg id="iconPath" width="100%" height="100%" viewBox="0 0 24 24" xmlns="http://www.w3.org/2000/svg"><defs><radialGradient cx="86.85%" cy="30.027%" fx="86.85%" fy="30.027%" r="241.262%" gradientTransform="matrix(1 0 0 .36288 0 .191)" id="a"><stop stop-color="#FFEA00" offset="4.5%"/><stop stop-color="#FFDE00" offset="12%"/><stop stop-color="#FFBF00" offset="25.4%"/><stop stop-color="#FF8E00" offset="42.9%"/><stop stop-color="#FF272D" offset="76.9%"/><stop stop-color="#E0255A" offset="87.2%"/><stop stop-color="#CC2477" offset="95.3%"/><stop stop-color="#C42482" offset="100%"/></radialGradient><radialGradient cx="70.828%" cy="12.393%" fx="70.828%" fy="12.393%" r="133.749%" gradientTransform="scale(1 .9947)" id="b"><stop stop-color="#00CCDA" offset="0%"/><stop stop-color="#0083FF" offset="22%"/><stop stop-color="#007AF9" offset="26.1%"/><stop stop-color="#0060E8" offset="33%"/><stop stop-color="#005FE7" offset="33.3%"/><stop stop-color="#2639AD" offset="43.8%"/><stop stop-color="#401E84" offset="52.2%"/><stop stop-color="#4A1475" offset="100%"/></radialGradient><linearGradient x1="57.339%" y1="75.22%" x2="35.146%" y2="6.805%" id="c"><stop stop-color="#000F43" stop-opacity=".4" offset="0%"/><stop stop-color="#001962" stop-opacity=".173" offset="48.5%"/><stop stop-color="#002079" stop-opacity="0" offset="100%"/></linearGradient><radialGradient cx="147.727%" cy="-21.664%" fx="147.727%" fy="-21.664%" r="129.483%" gradientTransform="matrix(.92332 0 0 1 .113 0)" id="d"><stop stop-color="#FFEA00" offset=".3%"/><stop stop-color="#FF272D" offset="49.7%"/><stop stop-color="#C42482" offset="100%"/></radialGradient><radialGradient cx="135.976%" cy="-52.131%" fx="135.976%" fy="-52.131%" r="370.47%" gradientTransform="matrix(1 0 0 .54148 0 -.239)" id="e"><stop stop-color="#FFE900" offset=".3%"/><stop stop-color="#FFAF0E" offset="15.7%"/><stop stop-color="#FF7A1B" offset="31.6%"/><stop stop-color="#FF4E26" offset="47.2%"/><stop stop-color="#FF2C2E" offset="62.1%"/><stop stop-color="#FF1434" offset="76.2%"/><stop stop-color="#FF0538" offset="89.2%"/><stop stop-color="#FF0039" offset="100%"/></radialGradient><radialGradient cx="211.883%" cy="2.145%" fx="211.883%" fy="2.145%" r="164.388%" gradientTransform="matrix(.53347 0 0 1 .988 0)" id="f"><stop stop-color="#FF272D" offset=".3%"/><stop stop-color="#C42482" offset="49.7%"/><stop stop-color="#620700" offset="98.6%"/></radialGradient><radialGradient cx="86.413%" cy="39.058%" fx="86.413%" fy="39.058%" r="96.14%" gradientTransform="matrix(.9999 -.0138 .01438 .95937 -.006 .028)" id="g"><stop stop-color="#FFEA00" offset="0%"/><stop stop-color="#FFDE00" offset="23.1%"/><stop stop-color="#FFBF00" offset="36.5%"/><stop stop-color="#FF8E00" offset="54.1%"/><stop stop-color="#FF272D" offset="76.3%"/><stop stop-color="#F92433" offset="79.6%"/><stop stop-color="#E91C45" offset="84.1%"/><stop stop-color="#CF0E62" offset="89.3%"/><stop stop-color="#B5007F" offset="100%"/></radialGradient><radialGradient cx="77.22%" cy="-1.844%" fx="77.22%" fy="-1.844%" r="160.845%" gradientTransform="scale(1 .39649) rotate(50.789 .802 -.032)" id="h"><stop stop-color="#FFEC00" offset="0%"/><stop stop-color="#FFEA00" offset="0%"/><stop stop-color="#FD0" offset="39.712%"/><stop stop-color="#FFBA00" offset="63%"/><stop stop-color="#FF9100" offset="84.503%"/><stop stop-color="#FF6711" offset="93.3%"/><stop stop-color="#FF4A1D" offset="100%"/></radialGradient><linearGradient x1="-121.603%" y1="64.455%" x2="142.342%" y2="29.666%" id="i"><stop stop-color="#C42482" stop-opacity=".5" offset="0%"/><stop stop-color="#FF272D" stop-opacity=".5" offset="47.4%"/><stop stop-color="#FF2C2C" stop-opacity=".513" offset="48.6%"/><stop stop-color="#FF7A1A" stop-opacity=".72" offset="67.5%"/><stop stop-color="#FFB20D" stop-opacity=".871" offset="82.9%"/><stop stop-color="#FFD605" stop-opacity=".964" offset="94.2%"/><stop stop-color="#FFE302" offset="100%"/></linearGradient><linearGradient x1="56.498%" y1="94.893%" x2="19.49%" y2="5.478%" id="j"><stop stop-color="#891551" stop-opacity=".6" offset="0%"/><stop stop-color="#C42482" stop-opacity="0" offset="100%"/></linearGradient><linearGradient x1="8.04%" y1="6.686%" x2="47.914%" y2="47.886%" id="k"><stop stop-color="#891551" stop-opacity=".5" offset=".5%"/><stop stop-color="#FF272D" stop-opacity=".5" offset="48.4%"/><stop stop-color="#FF272D" stop-opacity="0" offset="100%"/></linearGradient><linearGradient x1="47.509%" y1="102.675%" x2="50.009%" y2="31.749%" id="l"><stop stop-color="#C42482" offset="0%"/><stop stop-color="#C42482" stop-opacity=".81" offset="8.3%"/><stop stop-color="#C42482" stop-opacity=".565" offset="20.6%"/><stop stop-color="#C42482" stop-opacity=".362" offset="32.8%"/><stop stop-color="#C42482" stop-opacity=".204" offset="44.7%"/><stop stop-color="#C42482" stop-opacity=".091" offset="56.2%"/><stop stop-color="#C42482" stop-opacity=".023" offset="67.3%"/><stop stop-color="#C42482" stop-opacity="0" offset="77.3%"/></linearGradient><linearGradient x1="6.334%" y1="1.647%" x2="92.351%" y2="89.461%" id="m"><stop stop-color="#FFF14F" offset="0%"/><stop stop-color="#FFEE4C" offset="26.8%"/><stop stop-color="#FFE643" offset="45.2%"/><stop stop-color="#FFD834" offset="61.2%"/><stop stop-color="#FFC41E" offset="75.7%"/><stop stop-color="#FFAB02" offset="89.2%"/><stop stop-color="#FFA900" offset="90.2%"/><stop stop-color="#FFA000" offset="94.9%"/><stop stop-color="#FF9100" offset="100%"/></linearGradient><linearGradient x1="71.789%" y1="7.159%" x2="42.746%" y2="81.948%" id="n"><stop stop-color="#FF8E00" offset="0%"/><stop stop-color="#FF8E00" stop-opacity=".858" offset="4%"/><stop stop-color="#FF8E00" stop-opacity=".729" offset="8.4%"/><stop stop-color="#FF8E00" stop-opacity=".628" offset="13%"/><stop stop-color="#FF8E00" stop-opacity=".557" offset="17.8%"/><stop stop-color="#FF8E00" stop-opacity=".514" offset="22.7%"/><stop stop-color="#FF8E00" stop-opacity=".5" offset="28.2%"/><stop stop-color="#FF8E00" stop-opacity=".478" offset="38.9%"/><stop stop-color="#FF8E00" stop-opacity=".416" offset="52.4%"/><stop stop-color="#FF8E00" stop-opacity=".314" offset="67.6%"/><stop stop-color="#FF8E00" stop-opacity=".172" offset="83.8%"/><stop stop-color="#FF8E00" stop-opacity="0" offset="100%"/></linearGradient></defs><g fill="none"><path d="M18.322 2.355c-.523.609-.767 1.98-.237 3.369.53 1.389 1.343 1.087 1.85 2.504.669 1.87.357 4.38.357 4.38s.804 2.328 1.365-.145c1.24-4.645-3.335-8.964-3.335-10.108z" fill="url(#a)"/><path d="M11.94 21.64c5.356 0 9.694-4.362 9.694-9.74 0-5.38-4.338-9.741-9.689-9.741-5.35 0-9.688 4.362-9.688 9.74-.01 5.384 4.333 9.74 9.683 9.74z" fill="url(#b)"/><path d="M19.204 17.905a5.5 5.5 0 0 1-.658.397c.302-.443.582-.902.836-1.375.207-.228.396-.45.55-.69.075-.119.16-.265.25-.434.544-.98 1.144-2.567 1.16-4.197v-.004l.001-.12a5.625 5.625 0 0 0-.125-1.218l.013.094-.015-.072.022.13c.111.944.032 1.865-.365 2.543l-.019.03c.206-1.032.275-2.171.046-3.311 0 0-.091-.555-.772-2.238-.392-.968-1.089-1.762-1.704-2.34-.539-.668-1.029-1.115-1.299-1.4-.564-.593-.8-1.038-.897-1.329-.084-.042-1.16-1.088-1.246-1.127-.47.728-1.947 3.006-1.244 5.135.318.964 1.124 1.966 1.967 2.527.037.042.501.547.722 1.685.228 1.176.108 2.093-.361 3.45-.552 1.19-1.967 2.367-3.292 2.488-2.831.257-3.868-1.422-3.868-1.422 1.012.404 2.13.32 2.81-.1.687-.424 1.101-.738 1.438-.614.332.123.596-.235.36-.607a1.714 1.714 0 0 0-1.735-.755c-.686.112-1.315.655-2.214.129a1.868 1.868 0 0 1-.17-.11c-.058-.04.194.059.135.014a4.397 4.397 0 0 1-.565-.376c-.014-.012.135.048.122.036-.841-.693-.736-1.16-.71-1.454.022-.235.174-.536.432-.658.124.068.202.12.202.12l-.082-.165c.01-.005.02-.004.03-.008.101.05.327.177.445.255.155.109.204.206.204.206s.04-.022.01-.117a.61.61 0 0 0-.21-.288h.01c.09.053.178.113.258.18.044-.156.121-.32.104-.613-.01-.206-.006-.259-.042-.338-.032-.069.018-.095.075-.024a.717.717 0 0 0-.048-.162v-.005c.07-.246 1.49-.884 1.594-.959.17-.12.312-.275.418-.454.079-.126.138-.302.152-.57.008-.193-.082-.322-1.517-.472-.393-.039-.624-.323-.754-.586a3.83 3.83 0 0 0-.073-.159 1.267 1.267 0 0 1-.056-.184 3.447 3.447 0 0 1 1.21-1.675c.03-.029-.127.007-.095-.021.036-.034.277-.13.322-.153.056-.026-.237-.15-.496-.12-.264.03-.32.061-.46.12.058-.057.244-.134.2-.133-.284.043-.637.209-.939.396 0-.033.006-.065.018-.095-.14.06-.486.3-.586.505a.968.968 0 0 0 .006-.118c-.108.09-.204.19-.289.302l-.005.005c-.816-.329-1.534-.35-2.141-.203-.133-.133-.198-.036-.5-.7-.02-.04.015.04 0 0-.05-.129.03.172 0 0-.509.401-1.178.856-1.499 1.177-.004.012.375-.107 0 0-.131.037-.122.115-.142.819-.005.053 0 .113-.005.16-.257.328-.431.604-.497.748-.332.572-.698 1.463-1.052 2.873.156-.383.345-.75.563-1.101-.294.748-.58 1.923-.636 3.733.071-.373.163-.743.274-1.106-.07 1.501.19 3 .758 4.39.204.499.541 1.255 1.115 2.084a9.849 9.849 0 0 0 7.16 3.077 9.858 9.858 0 0 0 7.39-3.328z" fill="url(#c)"/><path d="M17.029 19.283c3.557-.412 5.131-4.077 3.11-4.15-1.827-.058-4.795 4.344-3.11 4.15z" fill="url(#d)"/><path d="M20.394 14.385c2.448-1.424 1.81-4.5 1.81-4.5s-.945 1.096-1.587 2.845c-.633 1.732-1.694 2.515-.223 1.655z" fill="url(#e)"/><path d="M12.626 21.103c3.412 1.089 6.344-1.599 4.536-2.497-1.643-.809-6.155 1.982-4.536 2.497z" fill="url(#f)"/><path d="M20.649 15.69c.083-.116.195-.491.294-.659.602-.972.607-1.747.607-1.765.363-1.818.33-2.56.107-3.932-.18-1.105-.968-2.688-1.65-3.45-.704-.786-.208-.53-.89-1.104-.596-.661-1.175-1.316-1.49-1.58C15.35 1.297 15.401.892 15.445.823a2.64 2.64 0 0 0-.032.036 5.955 5.955 0 0 1-.046-.198s-1.245 1.245-1.507 3.32c-.17 1.354.336 2.766 1.07 3.668.383.468.815.893 1.289 1.267.555.796.86 1.779.86 2.836a4.795 4.795 0 0 1-5.87 4.674c-1.25-.238-1.972-.869-2.332-1.297-.206-.245-.294-.424-.294-.424 1.12.401 2.359.317 3.112-.099.758-.42 1.218-.732 1.59-.61.367.123.66-.232.398-.6-.257-.368-.926-.895-1.92-.75-.76.111-1.455.65-2.45.128a2.103 2.103 0 0 1-.187-.11c-.066-.038.213.06.148.016a4.94 4.94 0 0 1-.626-.373c-.014-.012.15.047.136.035-.931-.687-.815-1.151-.786-1.442a.835.835 0 0 1 .478-.652c.137.067.223.119.223.119l-.09-.165c.01-.004.021-.003.032-.007.113.049.362.175.494.253.17.108.225.204.225.204s.045-.022.012-.116a.609.609 0 0 0-.233-.286l.01.001c.1.052.197.111.287.179.048-.156.134-.318.115-.608-.012-.205-.007-.258-.047-.336-.036-.068.02-.095.083-.024a.656.656 0 0 0-.053-.16v-.006c.078-.243 1.65-.876 1.764-.95.184-.116.342-.27.462-.45.088-.125.154-.3.17-.566.005-.12-.032-.215-.448-.305-.25-.054-.636-.107-1.232-.163-.435-.039-.69-.32-.835-.581a3.58 3.58 0 0 0-.08-.158 1.16 1.16 0 0 1-.062-.182 3.46 3.46 0 0 1 1.338-1.662c.035-.028-.14.008-.105-.02.041-.034.307-.13.358-.152.061-.026-.263-.15-.55-.12-.291.03-.353.061-.51.12.066-.057.271-.133.223-.132-.315.043-.706.207-1.04.392 0-.032.007-.064.02-.094-.155.06-.537.299-.649.501a.862.862 0 0 0 .007-.117 1.937 1.937 0 0 0-.32.3l-.005.004c-.903-.325-1.698-.347-2.37-.2-.147-.133-.384-.333-.718-.992-.023-.04-.035.082-.053.043-.13-.302-.208-.796-.195-1.137 0 0-.27.123-.492.635-.041.092-.068.143-.094.194-.013.014.027-.169.02-.159-.038.066-.138.157-.182.276-.03.088-.073.137-.1.246l-.006.01c-.002-.032.008-.132 0-.112a5.284 5.284 0 0 0-.268.652c-.12.394-.26.93-.282 1.628-.005.053 0 .112-.005.16-.284.324-.477.599-.55.741-.368.567-.772 1.451-1.164 2.85a6.97 6.97 0 0 1 .623-1.093c-.326.743-.641 1.908-.704 3.703.08-.372.18-.738.303-1.097a9.294 9.294 0 0 0 .84 4.354c.449.985 1.483 2.984 4.01 4.544 0 0 .859.64 2.336 1.12.11.04.22.079.333.116a2.195 2.195 0 0 1-.103-.044 10.62 10.62 0 0 0 3.031.445c3.826.003 4.954-1.533 4.954-1.533l-.011.008c.054-.05.106-.103.156-.158-.604.57-1.981.608-2.496.566.878-.257 1.456-.476 2.58-.906.132-.049.267-.105.404-.167l.045-.02.082-.039a7.626 7.626 0 0 0 1.534-.96c1.13-.902 1.375-1.781 1.503-2.36a3.248 3.248 0 0 1-.113.268c-.29.622-.935 1.004-1.636 1.331.334-.437.643-.892.926-1.363.229-.227.3-.582.47-.82z" fill="url(#g)"/><path d="M19.274 17.847a7.234 7.234 0 0 0 1.187-1.746c.806-1.694 2.052-4.511 1.07-7.453-.775-2.326-1.84-3.597-3.192-4.84C16.144 1.792 15.531.892 15.531.356c0 0-2.536 2.827-1.436 5.774 1.1 2.948 3.351 2.84 4.84 5.915 1.754 3.62-1.417 7.57-4.04 8.675.16-.035 5.83-1.318 6.128-4.561-.007.06-.135.956-1.749 1.69z" fill="url(#h)"/><path d="M11.93 7.33c.008-.192-.091-.32-1.675-.469-.652-.06-.901-.662-.977-.916-.232.602-.327 1.234-.276 1.998.035.5.371 1.038.532 1.353 0 0 .036-.046.052-.063.303-.316 1.571-.796 1.69-.864.132-.083.632-.448.654-1.04z" fill="url(#i)"/><path d="M4.957 3.772c-.022-.04-.035.082-.052.043a2.9 2.9 0 0 1-.19-1.136s-.27.123-.492.635a2.959 2.959 0 0 1-.095.193c-.012.015.028-.168.022-.158-.039.066-.14.157-.183.27-.036.093-.073.143-.1.258-.009.03.008-.138 0-.118-.517 1-.616 2.514-.561 2.45C4.408 5.032 5.67 4.753 5.67 4.753c-.134-.1-.426-.385-.714-.98z" fill="url(#j)"/><path d="M9.14 16.081c-1.523-.65-3.254-1.567-3.188-3.65C6.04 9.688 8.51 10.23 8.51 10.23c-.093.023-.343.2-.43.39-.094.236-.264.77.251 1.33.81.877-1.664 2.081 2.155 4.357.096.053-.895-.031-1.346-.226z" fill="url(#k)"/><path d="M8.599 14.714c1.08.376 2.338.31 3.09-.106.505-.28 1.151-.73 1.55-.62a2.706 2.706 0 0 0-.92-.215c-.053 0-.118 0-.176-.007-.115 0-.23.006-.344.02-.194.017-.41.14-.606.12-.01-.001.19-.082.174-.079-.104.022-.216.027-.336.041-.075.009-.14.018-.216.021-2.248.191-4.15-1.218-4.15-1.218-.16.544.725 1.622 1.934 2.043z" fill="url(#l)"/><path d="M19.27 17.862c2.275-2.234 3.426-4.948 2.94-7.993 0 0 .194 1.561-.543 3.158.354-1.559.395-3.496-.546-5.503-1.255-2.678-3.32-4.087-4.108-4.675-1.195-.89-1.69-1.798-1.699-1.985-.357.731-1.436 3.237-.116 5.394 1.237 2.022 3.186 2.622 4.55 4.476 2.513 3.416-.478 7.128-.478 7.128z" fill="url(#m)"/><path d="M18.945 12.05c-.795-1.641-1.788-2.358-2.726-3.134.109.153.136.207.196.306.826.88 2.045 3.028 1.16 5.724-1.664 5.074-8.323 2.685-9.021 2.013.282 2.937 5.198 4.343 8.399 2.438 1.82-1.724 3.294-4.655 1.992-7.346z" fill="url(#n)"/></g></svg>
