<svg id="iconPath" width="100%" height="100%" viewBox="0 0 24 24" xmlns="http://www.w3.org/2000/svg"><path d="M3.844 6.852c.654-1.213 1.52-2.25 2.626-3.071a8.708 8.708 0 0 1 4.336-1.71c.5-.053 1-.091 1.501-.058.407.027.816.05 1.217.119a9.14 9.14 0 0 1 3.011 1.047c1.473.835 2.617 1.994 3.41 3.49.75 1.422 1.093 2.946 1.11 4.547.007.788.001 1.575 0 2.363 0 .17.023.166-.165.166H8.573a5.55 5.55 0 0 0-.129.002c-.053 0-.08.024-.077.08.006.08.013.16.017.24a3.29 3.29 0 0 0 .56 1.689c.402.615.962 1.045 1.608 1.37.853.433 1.766.64 2.714.7a8.226 8.226 0 0 0 1.584-.057 9.78 9.78 0 0 0 1.76-.416c.86-.285 1.672-.681 2.476-1.098.026-.013.091-.058.091-.058 0 .056.004.11.004.15 0 1.296-.002 2.592.003 3.888 0 .107-.035.158-.129.202-.95.448-1.936.794-2.958 1.035-.72.17-1.452.273-2.192.305-.22.009-.44.015-.66.025l-.382-.002a8.004 8.004 0 0 1-1.458-.141c-1.424-.268-2.708-.841-3.83-1.765a7.38 7.38 0 0 1-1.728-2.027 7.386 7.386 0 0 1-.98-4.225c.024-.381.065-.765.133-1.141a7.242 7.242 0 0 1 1.025-2.602A7.475 7.475 0 0 1 8.818 7.31c.256-.14.524-.261.787-.391.004.007.01.014.012.02a.46.46 0 0 1-.028.035 4.51 4.51 0 0 0-.914 1.508 7.31 7.31 0 0 0-.41 1.557l7.122-.018c-.015-.26-.026-.588-.046-.848a4.859 4.859 0 0 0-.283-1.348c-.276-.746-.766-1.302-1.489-1.643-.594-.28-1.227-.382-1.874-.406a7.726 7.726 0 0 0-.938.019c-.396.035-.795.077-1.184.158-1.332.275-2.562.8-3.696 1.549C4.76 8.24 3.785 9.13 3 10.22" fill="#0078D7"/></svg>
