<svg id="iconPath" width="100%" height="100%" viewBox="0 0 24 24" xmlns="http://www.w3.org/2000/svg"><g fill="none" fill-rule="evenodd"><path d="M9.168 13.944l-.013-4.583 3.775 4.351a20.632 20.632 0 0 0-3.762.232zm-6.905-2.123c0-5.468 4.432-9.9 9.899-9.9 5.467 0 9.899 4.432 9.899 9.9a9.868 9.868 0 0 1-.79 3.88c-1.653-.794-3.21-1.379-5.164-1.705l.019-6.095s.022-.288.177-.443a.864.864 0 0 1 .399-.221h.93v-.488h-3.721v.488h.93s.222.044.399.221c.156.155.177.443.177.443l.019 5.996c-.133-.018-.269-.033-.407-.049L9.128 6.749H6.381v.488h.931l1.171 1.349-.015 5.469c-2.395.412-4.593 1.089-5.482 1.483a9.858 9.858 0 0 1-.723-3.717z" fill="#178C93"/><path d="M12.095 14.633c-1.063.008-2.033.09-2.926.229l.003 1.056s.022.288.177.443a.87.87 0 0 0 .399.221h.931v.487H6.958v-.487h.931s.22-.045.397-.221c.155-.156.178-.443.178-.443l.003-.933a16.137 16.137 0 0 0-4.869 1.803 9.894 9.894 0 0 0 8.564 4.932 9.901 9.901 0 0 0 8.904-5.568c-.679-.316-3.597-1.52-8.729-1.52l-.242.001z" fill="#000"/></g></svg>
