<svg id="iconPath" width="100%" height="100%" viewBox="0 0 24 24" xmlns="http://www.w3.org/2000/svg"><g fill="none"><path d="M6.721 15.272a10.95 10.95 0 0 1-.412-2.95 21.8 21.8 0 0 1 .412-2.95c1.03-3.5 3.912-6.246 7.48-7.07C8.71.93 3.083 4.362 1.78 9.852.477 15.341 3.84 20.967 9.33 22.271a9.757 9.757 0 0 0 4.871 0c-3.567-.824-6.38-3.5-7.478-7" fill="#FE4B4B"/><path d="M21.064 7.998a10.171 10.171 0 0 0-4.94-4.94c-.344-.137-.756-.206-1.099-.137-1.716.274-3.363 1.029-4.667 2.196.48-.207.961-.276 1.441-.276 3.02 0 5.491 3.363 5.491 7.55 0 4.185-2.47 7.48-5.49 7.48-.48 0-1.03-.07-1.442-.275 1.304 1.166 2.951 1.921 4.667 2.195.343.07.755 0 1.098-.137 5.146-2.401 7.342-8.51 4.941-13.655" fill="#E53838"/></g></svg>
