<svg id="iconPath" width="100%" height="100%" viewBox="0 0 24 24" xmlns="http://www.w3.org/2000/svg"><path d="M15.738 15.738c1.403-.202 2.71-.524 3.76-.975a8.027 8.027 0 0 1-4.735 4.734c.451-1.05.772-2.356.975-3.759zm-7.477 0c.202 1.403.523 2.708.975 3.76a8.028 8.028 0 0 1-4.735-4.735c1.051.451 2.357.773 3.76.975zm0-7.477c-1.403.202-2.709.524-3.76.975a8.026 8.026 0 0 1 4.735-4.734c-.452 1.05-.773 2.356-.975 3.76zm7.477 0c-.203-1.403-.524-2.709-.975-3.759a8.024 8.024 0 0 1 4.734 4.734c-1.05-.45-2.356-.773-3.759-.975zm-2.06-.209A27.711 27.711 0 0 0 12 8c-.557 0-1.12.02-1.678.053C10.786 5.385 11.635 4 12 4s1.213 1.386 1.68 4.053zm-5.626 2.27A27.678 27.678 0 0 0 8 11.998c0 .558.02 1.121.053 1.68C5.384 13.211 4 12.362 4 11.998c0-.363 1.385-1.212 4.053-1.678zm2.02 3.606a25.219 25.219 0 0 1 0-3.857 25.688 25.688 0 0 1 3.855 0c.046.601.072 1.242.072 1.928 0 .687-.026 1.328-.072 1.93-.6.044-1.24.07-1.928.07a25.71 25.71 0 0 1-1.927-.07zm.25 2.02a27.676 27.676 0 0 0 3.356 0c-.466 2.666-1.314 4.051-1.679 4.051-.364 0-1.213-1.385-1.678-4.052zm5.677-3.949c0-.557-.018-1.12-.052-1.678C18.615 10.787 20 11.636 20 12c0 .364-1.384 1.213-4.052 1.68.034-.559.052-1.122.052-1.68zM2.14 13.693c.68 4.144 4.021 7.487 8.166 8.167A10.012 10.012 0 0 0 21.86 10.306c-.68-4.145-4.023-7.488-8.167-8.167A10.011 10.011 0 0 0 2.14 13.693z" fill="#585E67"/></svg>
