<svg id="iconPath" width="100%" height="100%" viewBox="0 0 24 24" xmlns="http://www.w3.org/2000/svg"><defs><radialGradient cx="51.54%" cy="50%" fx="51.54%" fy="50%" r="65.321%" gradientTransform="matrix(0 1 -.9999 0 1.015 -.015)" id="a"><stop stop-color="#00CAEF" offset="0%"/><stop stop-color="#02C1EC" offset="0%"/><stop stop-color="#1678D1" offset="100%"/></radialGradient></defs><g fill="none" fill-rule="evenodd"><path d="M12.29 21.532a9.241 9.241 0 1 1 9.242-9.241 9.24 9.24 0 0 1-9.241 9.24M12.29 2C6.607 2 2 6.608 2 12.29c0 5.684 4.607 10.29 10.29 10.29 5.684 0 10.29-4.606 10.29-10.29C22.58 6.609 17.975 2 12.29 2" fill="#DFDBDA" fill-rule="nonzero"/><path d="M13.47 13.368v.008l-.009.008-6.838 5.502.726-1.196-1.287.915 5.183-7.407 7.36-5.222-.678.97.819-.525-5.276 6.947zM12.29 3.05a9.241 9.241 0 1 0 0 18.482 9.241 9.241 0 1 0 0-18.482z" fill="#BFBFBF" fill-rule="nonzero"/><path d="M13.47 13.368v.008l-.009.008-7.399 5.22 5.183-7.406 7.36-5.222-5.136 7.392zM12.29 3.05a9.241 9.241 0 1 0 0 18.482 9.241 9.241 0 1 0 0-18.482z" fill="url(#a)" fill-rule="nonzero"/><path d="M11.25 11.204l1.096 1.079 1.085 1.085 4.496-6.422.678-.97-4.743 4.778-1.516 1.529-1.095-1.08z" fill="#D30D08" fill-rule="nonzero"/><path fill="#FF4E47" fill-rule="nonzero" d="M12.345 12.283l6.26-6.307-7.36 5.222.006.006z"/><path fill="#ACACAC" fill-rule="nonzero" d="M11.245 11.198l.004.004zm2.185 2.17l-1.089-1.081-6.279 6.318 1.287-.915 6.067-4.312z"/><path fill="#EEE" fill-rule="nonzero" d="M12.345 12.283l-1.093-1.077-.002-.002-.002-.002-.003-.004-5.182 7.407 6.279-6.318z"/><path fill="#000" d="M11.248 11.202l.003.001-.006-.005z"/></g></svg>
