<svg id="iconPath" width="100%" height="100%" viewBox="0 0 24 24" xmlns="http://www.w3.org/2000/svg">
	<path d="M15.368 6.778H22l-3.316 3.316-3.316-3.316zm-4.952-1.736c.167.25.418.583.668.916.75 1.167.916 2.584.25 3.917v5.166h-11v-1.666H7l1-1.166H.75a.747.747 0 0 1-.75-.75c0-.417.334-.75.75-.75h8.084c.25-.25.5-.5.666-.75l.417-.667c.75-1.834.083-2.667-.5-3.334L6.501 8.792 2.75 5.208 7.5.625a2.112 2.112 0 0 1 3 0l.75.75c.334.334.584.834.584 1.417 0 .5-.167 1-.584 1.416l-.834.835v-.001zM.334 8.792H5v1H.334v-1zm4.832-3.584l1.418 1.417 3.583-3.416c.083-.085.167-.25.167-.334 0-.167-.084-.25-.167-.333l-.75-.75c-.167-.167-.5-.167-.666 0L5.166 5.208z"  />
</svg>
