<svg id="iconPath" width="100%" height="100%" viewBox="0 0 24 24" xmlns="http://www.w3.org/2000/svg"><path d="M4.997 19h14v2h-14c-1.1 0-2-.9-2-2V5.1h2V19zM19.803 3.137c.8 0 1.4.6 1.4 1.3v2.3c0 .8-.6 1.4-1.4 1.4h-11.1c-.8 0-1.4-.6-1.4-1.4v-2.2c0-.8.6-1.4 1.4-1.4h11.1zm0 5.9c.8 0 1.4.6 1.5 1.4v2.2c0 .8-.6 1.4-1.4 1.4h-4.6v1h4.9c.6 0 1 .5 1 1 0 .6-.5 1-1 1h-11.9c-.6 0-1-.5-1-1 0-.6.5-1 1-1h5v-1h-4.6c-.8 0-1.4-.6-1.4-1.4v-2.2c0-.8.6-1.4 1.4-1.4h11.1zM9.1 4.8v1.5h10.4V4.8H9.1zm0 5.9v1.5h10.4v-1.5H9.1z" /></svg>
