<svg id="iconPath" width="100%" height="100%" viewBox="0 0 24 24" xmlns="http://www.w3.org/2000/svg"><path d="M11.979 18.966c1.85 0 3.593-.715 4.91-2.018l1.402 1.42c-1.693 1.674-3.932 2.594-6.365 2.594a8.921 8.921 0 0 1-6.335-2.668 8.917 8.917 0 0 1-2.594-6.365c0-.03.004-.06.005-.09L1.7 13.128a.998.998 0 1 1-1.403-1.42l3.01-2.976a.97.97 0 0 1 .383-.221c.109-.037.22-.064.325-.067a.996.996 0 0 1 .704.296l.738.747.998 1.01 1.24 1.254a.997.997 0 1 1-1.42 1.403L4.997 11.86c0 .027-.004.054-.004.082a6.939 6.939 0 0 0 2.016 4.95c1.313 1.328 3.063 2.064 4.97 2.075zm11.688-8.123a.999.999 0 0 1-.008 1.411l-3.012 2.977c-.065.065-.147.106-.227.15-.052.029-.1.057-.157.075a.993.993 0 0 1-.321.063.996.996 0 0 1-.706-.296l-.738-.747-1.965-1.988-.272-.276a.998.998 0 1 1 1.419-1.403l1.278 1.294c0-.028.005-.055.005-.082a6.936 6.936 0 0 0-2.018-4.95c-1.312-1.328-3.061-2.064-4.968-2.075a6.934 6.934 0 0 0-4.846 1.96L5.728 5.537C7.414 3.901 9.625 3 12.03 3a8.921 8.921 0 0 1 6.334 2.667 8.917 8.917 0 0 1 2.594 6.366c0 .03-.004.059-.004.089l1.301-1.287a.998.998 0 0 1 1.412.008z" /></svg>
