<svg id="iconPath" width="100%" height="100%" viewBox="0 0 24 24" xmlns="http://www.w3.org/2000/svg"><path d="M13.107 7.993c.392.31.494.855.249 1.305l-1.234 2.132a1.01 1.01 0 0 1-1.261.454l-1.19-.478a5.445 5.445 0 0 1-.498.29l-.18 1.253c-.063.507-.497.88-1.004.88H5.505c-.506 0-.94-.373-1.002-.867l-.182-1.265a5.22 5.22 0 0 1-.5-.29l-1.21.485c-.46.168-.995-.014-1.23-.446L.13 9.282a1.02 1.02 0 0 1 .26-1.291l1.005-.786a4.57 4.57 0 0 1 0-.582L.387 5.835a1.01 1.01 0 0 1-.248-1.304l1.233-2.133a1.01 1.01 0 0 1 1.261-.454l1.191.479a5.48 5.48 0 0 1 .497-.29l.18-1.254A1.008 1.008 0 0 1 5.505 0H7.99c.507 0 .941.372 1.003.866l.181 1.265c.171.087.338.184.5.29l1.21-.485c.46-.168.995.015 1.23.447l1.251 2.163c.237.435.135.98-.26 1.291l-1.004.786a4.562 4.562 0 0 1 0 .582l1.007.788zm2.7-1.009h6.16l-3.08 3.08-3.08-3.08zm-4.915 3.755a.337.337 0 0 1 .008-.015l-.008.015zm-3.298 2.023a.38.38 0 0 1 .002-.014l-.002.014zm-1.692.012L5.9 12.76l.002.015zm-3.29-2.02l-.012-.018a.44.44 0 0 1 .011.018zm-1.254-5.51l.003-.007a.4.4 0 0 1-.003.006zm1.245-2.155l-.01.016a.335.335 0 0 0 .01-.016zM5.9 1.067a.38.38 0 0 1-.002.014l.002-.014zm4.983 2.007l.011.019a.432.432 0 0 1-.01-.019zm1.078 5.815L10.61 7.832l.05-.397c.025-.207.038-.365.038-.52 0-.157-.013-.315-.038-.522l-.05-.397.315-.246 1.036-.81-.898-1.555-1.596.64-.32-.245a3.83 3.83 0 0 0-.886-.515l-.373-.153-.058-.4-.186-1.3H5.85l-.244 1.7-.374.153c-.3.123-.594.296-.893.52l-.318.238-.369-.148-1.221-.49-.899 1.555 1.351 1.056-.05.397a4.194 4.194 0 0 0-.037.521c0 .152.012.318.038.521l.05.397-.316.247-1.036.81.899 1.555 1.595-.641.32.246c.28.215.574.386.886.514l.374.154.057.4.186 1.3h1.794l.244-1.7.373-.154c.3-.122.595-.295.894-.52l.317-.238.37.148 1.22.49.9-1.554zM6.747 7.813a.9.9 0 0 0 .899-.899.9.9 0 0 0-.899-.899.9.9 0 0 0-.899.9.9.9 0 0 0 .9.898zm0 1.412a2.312 2.312 0 0 1-2.31-2.31 2.312 2.312 0 0 1 2.31-2.311 2.312 2.312 0 0 1 2.31 2.31 2.312 2.312 0 0 1-2.31 2.31z" /></svg>
