<svg id="iconPath" width="100%" height="100%" viewBox="0 0 24 24" xmlns="http://www.w3.org/2000/svg"><path d="M20.94 13.528c.532.439.671 1.211.337 1.848L19.6 18.398a1.35 1.35 0 0 1-1.716.643l-1.619-.678a7.34 7.34 0 0 1-.676.411l-.244 1.776c-.086.718-.677 1.245-1.367 1.245h-3.377c-.69 0-1.28-.527-1.364-1.227l-.247-1.792a7.036 7.036 0 0 1-.68-.412l-1.645.688a1.352 1.352 0 0 1-1.674-.632l-1.7-3.065c-.323-.616-.184-1.388.352-1.83l1.367-1.113a6.744 6.744 0 0 1 0-.824l-1.37-1.116a1.471 1.471 0 0 1-.338-1.848L4.98 5.602a1.35 1.35 0 0 1 1.716-.643l1.62.678c.222-.152.447-.289.675-.411l.245-1.776c.086-.718.677-1.245 1.366-1.245h3.377c.69 0 1.28.527 1.364 1.227l.247 1.792c.233.123.46.26.68.412l1.645-.688a1.352 1.352 0 0 1 1.674.632l1.7 3.065c.323.616.184 1.388-.352 1.83l-1.367 1.113a6.73 6.73 0 0 1 0 .824l1.37 1.116zm-3.014 3.89l.012-.02a.483.483 0 0 0-.012.02zm-4.484 2.866l.003-.02a.56.56 0 0 0-.003.02zm-2.302.018a.636.636 0 0 0-.003-.022l.003.022zM6.665 17.44a.63.63 0 0 0-.015-.026l.015.026zM4.96 9.633a.572.572 0 0 0 .005-.01l-.005.01zM6.653 6.58a.48.48 0 0 1-.012.022l.012-.022zm4.485-2.865l-.003.02a.56.56 0 0 0 .003-.02zm6.777 2.844a.62.62 0 0 0 .014.026l-.014-.026zm1.466 8.238L17.543 13.3l.068-.562c.035-.293.051-.517.051-.738 0-.221-.016-.445-.051-.738l-.068-.562.429-.35 1.409-1.147L18.159 7l-2.17.908-.434-.349a5.162 5.162 0 0 0-1.206-.729l-.508-.217-.078-.566-.254-1.842H11.07l-.331 2.408-.509.217a5.47 5.47 0 0 0-1.214.737l-.433.338-.501-.21L6.42 7 5.199 9.203 7.036 10.7l-.067.562a6.184 6.184 0 0 0-.052.738c0 .216.017.45.052.738l.067.562-.428.35-1.41 1.147L6.422 17l2.17-.908.434.349c.381.305.78.547 1.205.729l.509.217.078.566.253 1.842h2.44l.33-2.408.509-.217a5.47 5.47 0 0 0 1.215-.737l.432-.338.502.21 1.66.695 1.223-2.202zm-7.091-1.525c.673 0 1.222-.572 1.222-1.273s-.55-1.273-1.222-1.273c-.674 0-1.223.572-1.223 1.273s.55 1.273 1.223 1.273zm0 2c-1.734 0-3.143-1.467-3.143-3.273s1.409-3.273 3.143-3.273c1.733 0 3.142 1.467 3.142 3.273s-1.409 3.273-3.142 3.273z" /></svg>
