<svg id="iconPath" width="100%" height="100%" viewBox="0 0 24 24" xmlns="http://www.w3.org/2000/svg"><path d="M4.5 8h-2v13c0 1.1.9 2 2 2h11v-2h-11V8zm15-7h-11c-1.1 0-2 .9-2 2v14c0 1.1.9 2 2 2h11c1.1 0 2-.9 2-2V3c0-1.1-.9-2-2-2zm0 16h-11V3h11v14zm-3.994-3.51c.55-.321.976-.765 1.278-1.333.303-.567.454-1.21.454-1.925v-.36a4.005 4.005 0 0 0-.47-1.92 3.303 3.303 0 0 0-1.292-1.327c-.551-.313-1.172-.47-1.863-.47h-2.52v7.82h2.573a3.624 3.624 0 0 0 1.84-.486zm-2.527-.965V7.611h.634c.555 0 .977.191 1.267.574.29.383.435.953.435 1.708v.339c0 .759-.145 1.33-.435 1.716-.29.385-.705.577-1.246.577h-.655z" /></svg>
