<svg id="iconPath" width="100%" height="100%" viewBox="0 0 24 24" xmlns="http://www.w3.org/2000/svg" ><path d="M21.993266,6.03018932 L22,15.7341833 C21.9944628,17.95801 20.1755835,19.7602731 17.9281706,19.7688148 L7.12682379,19.7765887 L5.09090909,21.7944597 C4.64758698,22.2331273 3.88888889,21.9232836 3.88888889,21.3024857 L3.88664422,19.1291375 C2.7204108,18.3910037 2.01279494,17.1173669 2.00785634,15.7475099 L2,6.04351593 C2.00554375,3.81882605 3.82578441,2.01620778 6.07407407,2.00888441 L17.9147026,2 C20.1629995,2.00487261 21.9852461,3.80550635 21.993266,6.03018932 Z M17.9259259,17.547713 C18.9360269,17.547713 19.7553311,16.7347897 19.7553311,15.7352939 L19.7485971,6.03129987 C19.7474747,5.03291458 18.9259259,4.22110185 17.9158249,4.22110185 L6.07519641,4.22998626 C5.0650954,4.22998626 4.24579125,5.04290954 4.24579125,6.04240538 L4.25252525,15.7463994 C4.25364759,16.7447847 5.07519641,17.5565974 6.08529742,17.5565974 L17.9259259,17.547713 Z M6.49382716,10.14367 L14.335578,10.14367 L14.335578,11.8094963 L6.49382716,11.8094963 L6.49382716,10.14367 Z M6.49382716,6.74205246 L14.335578,6.74205246 L14.335578,8.40787885 L6.49382716,8.40787885 L6.49382716,6.74205246 Z M6.49607183,13.4742122 L16.5970819,13.4742122 L16.5970819,15.1400386 L6.49607183,15.1400386 L6.49607183,13.4742122 Z"  fill-rule="nonzero"/>
</svg>
