<svg id="iconPath" width="100%" height="100%" viewBox="0 0 24 24" xmlns="http://www.w3.org/2000/svg"><path d="M9.202 18.557c.239.523.541 1.016.916 1.453.089.108.191.2.286.303H2.756A1.76 1.76 0 0 1 1 18.557V4.51c0-.965.79-1.755 1.756-1.755h.878v-.878a.878.878 0 0 1 1.755 0v.878h8.779v-.878a.878.878 0 0 1 1.755 0v.878h.878c.966 0 1.756.79 1.756 1.755v6.344a6.193 6.193 0 0 0-1.756-.853v-1.1H2.756v9.656h6.446zM2.756 4.51v2.634H16.8V4.51H2.756zm2.064 8.17v-1.69h6.375c-.414.306-.8.641-1.126 1.038-.17.204-.323.424-.464.652H4.82zm0 3.583v-1.69h4c-.107.46-.164.935-.164 1.41-.003.09.007.187.009.28H4.82zm16.436 4.7l1.13 1.16c.196.265.239.53.131.84a1 1 0 0 1-1.271.62.7.7 0 0 1-.25-.17l-3.48-3.48a4.62 4.62 0 0 1-2.55.77 4.63 4.63 0 0 1-3.62-1.72 4.51 4.51 0 0 1-1-2 4.23 4.23 0 0 1-.09-1c0-.693.157-1.376.46-2a4.21 4.21 0 0 1 .59-.94 4.66 4.66 0 0 1 1.24-1.06 4.94 4.94 0 0 1 2.468-.66c.316 0 .632.034.942.1l.3.08a4.59 4.59 0 0 1 2 1.16 4.641 4.641 0 0 1 1.2 2 4.57 4.57 0 0 1-.56 3.94l2.36 2.36zm-5-2.36a2.84 2.84 0 1 0-2.58-5.06 2.84 2.84 0 0 0 2.58 5.06z" /></svg>
