<svg id="iconPath" width="100%" height="100%" viewBox="0 0 24 24" xmlns="http://www.w3.org/2000/svg"><path d="M15.123 3.184v4.21H5.3l.021-4.21c0-.926.884-1.684 1.964-1.684h5.763c1.081 0 2.076.758 2.076 1.684zM12.176 5.43c.54 0 .982-.442.982-.982a.986.986 0 0 0-.982-.983.986.986 0 0 0-.982.983c0 .54.442.982.982.982zm-3.93-1.965a.986.986 0 0 0-.982.983c0 .54.442.982.982.982s.983-.442.983-.982a.987.987 0 0 0-.983-.983zm9.156 6.671c-3.951 0-7.166 3.217-7.166 7.171 0 .234.013.465.035.693H6.16v-4.5H4.685v5.143c0 .502-.495.91-1.105.91-.446 0-.826-.22-1-.534a.77.77 0 0 1-.105-.376L2.463 13.5a1.097 1.097 0 0 1-1.094-1.094V9.962c0-.602.493-1.093 1.094-1.093h15.496c.603 0 1.095.491 1.095 1.093v.374a7.152 7.152 0 0 0-1.652-.2zM6.159 19h4.287c.128.525.313 1.027.55 1.5H7.252a1.097 1.097 0 0 1-1.094-1.094V19zm11.243-7.164a5.48 5.48 0 0 1 5.476 5.471 5.48 5.48 0 0 1-5.476 5.471 5.474 5.474 0 0 1-5.466-5.47 5.474 5.474 0 0 1 5.466-5.472zm.005 9.398a3.931 3.931 0 0 0 3.927-3.927 3.931 3.931 0 0 0-3.927-3.926 3.931 3.931 0 0 0-3.927 3.926 3.931 3.931 0 0 0 3.927 3.927zM16.3 15.207l1.8 1.1 1.8 1-1.8 1-1.8 1.1v-4.2z" /></svg>
