<svg id="iconPath" width="100%" height="100%" viewBox="0 0 24 24" xmlns="http://www.w3.org/2000/svg"><path d="M19.75 4.024c1.237 0 2.25 1 2.25 2V18c0 1.1-1.013 2-2.138 2H4.25C3.013 20 2 19 2 18V6.024c0-1.1 1.013-2 2.138-2H9v2H4.925c-.337 0-.675.3-.675.6V17.4c0 .4.338.6.675.6h14.15c.337 0 .675-.3.675-.6V6.624c0-.4-.338-.6-.675-.6H15v-2h4.75zM7.293 10.006a1 1 0 0 1 1.414 0L11 12.298V2.713c0-.269.109-.51.28-.69a.992.992 0 0 1 .72-.31c.284 0 .537.12.72.31.171.18.28.421.28.69v9.585l2.293-2.292a1 1 0 1 1 1.414 1.414l-4 4a1 1 0 0 1-1.414 0l-4-4a1 1 0 0 1 0-1.414z" /></svg>
