<svg id="iconPath" width="100%" height="100%" viewBox="0 0 24 24" xmlns="http://www.w3.org/2000/svg"><path d="M12.683 13.023l-7.01.001H2.995a1 1 0 1 1 0-2l2.688.002h7l-1.873-1.88a.996.996 0 0 1 1.41-1.408l3.688 3.689c.33.33.33.866 0 1.195l-3.688 3.689a.996.996 0 0 1-1.41-1.407l1.873-1.881zm6.319-9.982c1.098 0 1.996.898 1.996 1.996v13.975a2.002 2.002 0 0 1-1.996 1.996H5.027a1.997 1.997 0 0 1-1.996-1.996v-3.993h1.996v3.993h13.975V5.037H5.027V9.03H3.031V5.037c0-1.098.888-1.996 1.996-1.996h13.975z" /></svg>
