<svg id="iconPath" width="100%" height="100%" viewBox="0 0 24 24" xmlns="http://www.w3.org/2000/svg"><path d="M18.947 13.991l-6.769 5.265-6.76-5.255a.99.99 0 0 0-1.22 0 .994.994 0 0 0 0 1.57l7.38 5.74a.995.995 0 0 0 1.22 0l7.381-5.74A.993.993 0 0 0 20.18 14a.99.99 0 0 0-1.233-.01zm-7.37-10.8l-7.38 5.74a.994.994 0 0 0 0 1.57l.621.485 6.76 5.255a.99.99 0 0 0 1.22 0l6.75-5.255.626-.486a.994.994 0 0 0 .002-1.57l-7.378-5.74a.988.988 0 0 0-1.22 0zm6.35 6.522l-5.74 4.468-5.743-4.464 5.744-4.468 5.74 4.464z" /></svg>
