<svg id="iconPath" width="100%" height="100%" viewBox="0 0 24 24" xmlns="http://www.w3.org/2000/svg"><path d="M23.01 21.53l.03.05a1 1 0 0 1-.69 1.66 1 1 0 0 1-.67-.33l-3.48-3.49a4.62 4.62 0 0 1-4 .56 4.68 4.68 0 0 1-3.19-3.5 4.7 4.7 0 0 1 5.57-5.57 4.68 4.68 0 0 1 2.95 7.14l3.48 3.48zm-10.24-6.02a2.83 2.83 0 1 0 5.66-.01 2.83 2.83 0 1 0-5.66.01zm.69-6.08a2.762 2.762 0 0 0-2.23-1.11 2.79 2.79 0 0 0-1.68 5 6.32 6.32 0 0 0-.34 1.55A4.28 4.28 0 1 1 15 9.1a6.13 6.13 0 0 0-1.54.33zM9.25 16.5c.02.11.03.22.1.32a5.89 5.89 0 0 0 .65 1.82H1V4.24h5.7L8.2 2h6.15l1.55 2.24h5.5v8.46a6.39 6.39 0 0 0-2-2.4v-4h-4.6l-1.4-2.2H9.2L7.7 6.3H3.1v10.2h6.15zM16.4 7h1.9v1.1h-1.9V7zm-4.51 3.24a6.69 6.69 0 0 0-1.29 1.18c-.09.11-.17.23-.25.34a1.08 1.08 0 0 1 .88-1.77 1 1 0 0 1 .66.25z" /></svg>
