<?xml version="1.0" encoding="UTF-8"?>
<svg id="iconPath" width="24px" height="24px" viewBox="0 0 24 24" version="1.1" xmlns="http://www.w3.org/2000/svg" xmlns:xlink="http://www.w3.org/1999/xlink">

        <polygon  fill-rule="nonzero" points="17 11 22.788 11 19.894 13.894"></polygon>
        <path d="M12.9090057,15.241 C14.0800057,15.241 15.0330057,16.193 15.0330057,17.364 C15.0313534,18.5363677 14.0813734,19.4863476 12.9090057,19.488 C11.7368005,19.4863464 10.7871073,18.5362059 10.7860057,17.364 C10.7860057,17.204 10.8070057,17.044 10.8440057,16.891 L5.66600575,13.866 C5.27300575,14.23 4.75600575,14.456 4.18200575,14.456 C3.602712,14.4567991 3.04694393,14.2268923 2.63750868,13.8170818 C2.22807344,13.4072712 1.99867593,12.8512928 2.00000575,12.272 C2.00030675,11.4044094 2.51526552,10.6196609 3.31105867,10.2740791 C4.10685181,9.9284974 5.03183405,10.087936 5.66600575,10.68 L10.7930057,7.69 C10.7527218,7.52320855 10.7305931,7.35254976 10.7270057,7.181 C10.7270057,5.974 11.7020057,5 12.9090057,5 C14.1170057,5 15.0910057,5.974 15.0910057,7.181 C15.0915279,8.04871751 14.577165,8.83404393 13.781528,9.18030344 C12.9858909,9.52656294 12.0606418,9.36775255 11.4260057,8.776 L6.29800575,11.766 C6.33500575,11.932 6.36400575,12.1 6.36400575,12.274 C6.36400575,12.449 6.33400575,12.616 6.29800575,12.784 L11.4840057,15.802 C11.8620057,15.46 12.3570057,15.242 12.9090057,15.242 L12.9090057,15.241 Z"  fill-rule="nonzero"></path>
</svg>
