<svg id="iconPath" width="100%" height="100%" viewBox="0 0 24 24" xmlns="http://www.w3.org/2000/svg"><path d="M20.907 11.829l-6.558 6.558-3.102-3.093-1.218 1.218 4.32 4.32 7.777-7.776-1.219-1.227zm-5.64-5.79c-.54-2.28-2.718-3.922-5.227-3.922-1.974 0-3.771 1.004-4.71 2.626-2.157.25-3.773 1.957-3.773 4 0 2.226 1.936 4.037 4.317 4.037H14.9c1.997 0 3.623-1.52 3.623-3.388 0-1.728-1.421-3.181-3.257-3.353zm-.366 1.56c1.066 0 1.933.804 1.933 1.793 0 .988-.867 1.793-1.933 1.793H5.874c-1.45 0-2.629-1.096-2.629-2.441 0-1.346 1.18-2.44 2.629-2.44h.603l.033-.107c.448-1.463 1.9-2.485 3.53-2.485 2.023 0 3.669 1.531 3.669 3.413v.474h1.192z" /></svg>
