<svg id="iconPath" width="100%" height="100%" viewBox="0 0 24 24" xmlns="http://www.w3.org/2000/svg">
	<path d="M12,2 C17.52332,2 22,6.47668 22,12 C22,16.47803 19.05688,20.26697 14.99951,21.54108 L14.99951,19.41333 C17.93054,18.22626 20,15.35712 20,12 C20,7.5813 16.4187,4 12,4 C7.5813,4 4,7.5813 4,12 C4,15.35675 6.06891,18.22565 8.99951,19.41296 L8.99951,21.54071 C4.94275,20.26624 2,16.4776 2,12 C2,6.47668 6.47675,2 12,2 Z M16.14996,13.59625 C15.75946,13.98676 15.12628,13.98676 14.73578,13.59625 L13,11.86047 L13,22 L11,22 L11,11.86047 L9.26422,13.59625 C8.87372,13.98675 8.24054,13.98675 7.85004,13.59625 C7.45954,13.20568 7.45954,12.5725 7.85004,12.182 L11.29291,8.73913 C11.68341,8.34863 12.31659,8.34863 12.70709,8.73913 L16.14996,12.182 C16.54052,12.57251 16.54052,13.20569 16.14996,13.59625 Z"  fill-rule="nonzero" />
</svg>
