<svg id="iconPath" width="100%" height="100%" viewBox="0 0 24 24" xmlns="http://www.w3.org/2000/svg"><path d="M16.7 5.202h5.5v14.4H1.8v-14.4h5.7l1.5-2.2h6.1l1.6 2.2zm-2.5-.1H10l-1.5 2.2H3.9v10.2h16.3v-10.2h-4.6l-1.4-2.2zm.2 3.1c.6.4 1.1.9 1.4 1.4 2.3 4.3-2.1 8.6-6.3 6.3-.6-.3-1.1-.8-1.4-1.4-2.2-4.3 2.1-8.6 6.3-6.3zm-2.4 1.1c-2.1 0-3.6 2.3-2.2 4.4.1.2.3.4.5.5 1.3.9 2.8.7 3.7-.3.5-.5.8-1.2.8-1.9 0-1.5-1.3-2.7-2.8-2.7zm0 3.898a1.1 1.1 0 1 1 0-2.2 1.1 1.1 0 0 1 0 2.2zm5.2-5.198h1.9v1.1h-1.9v-1.1z" /></svg>
