<svg id="iconPath" width="100%" height="100%" viewBox="0 0 24 24" xmlns="http://www.w3.org/2000/svg"><path d="M12.217 5.157c5.235 0 9.705 2.864 11.516 6.907-1.81 4.043-6.281 6.907-11.516 6.907-5.234 0-9.705-2.864-11.516-6.907C2.512 8.02 6.983 5.157 12.217 5.157zm0 11.972c3.97 0 7.508-1.965 9.23-5.065-1.722-3.1-5.26-5.065-9.23-5.065-3.969 0-7.507 1.965-9.23 5.065 1.723 3.1 5.261 5.065 9.23 5.065zm1.003-5.952c.64.432 1.453.324 1.888-.21.109.327.182.67.182 1.033A3.29 3.29 0 1 1 12 8.71c.388 0 .754.08 1.1.203a1.215 1.215 0 0 0-.353.334c-.413.612-.2 1.476.473 1.93zM12 15.29a3.29 3.29 0 0 1 0-6.58c.388 0 .754.08 1.1.203a1.215 1.215 0 0 0-.353.334c-.413.612-.2 1.476.473 1.93.64.432 1.453.324 1.888-.21.109.327.182.67.182 1.033A3.29 3.29 0 0 1 12 15.29z" /></svg>
