<svg id="iconPath" width="100%" height="100%" viewBox="0 0 24 24" xmlns="http://www.w3.org/2000/svg"><path d="M7.2 10.8a1.2 1.2 0 1 1 0 2.4 1.2 1.2 0 0 1 0-2.4zm-.94-5.1a1 1 0 0 1 .1 1.4L2.26 12l4.1 5a1 1 0 0 1-.1 1.4 1.07 1.07 0 0 1-.6.2 1.23 1.23 0 0 1-.8-.4l-4.6-5.5a1.05 1.05 0 0 1 0-1.3l4.6-5.5a1 1 0 0 1 1.4-.2zm11.37 12.7a1 1 0 0 1-.1-1.4l4.07-4.9-4.1-5a1 1 0 0 1 .1-1.4 1.07 1.07 0 0 1 .6-.2c.307.028.593.171.8.4l4.63 5.5c.3.381.3.919 0 1.3l-4.6 5.5a1 1 0 0 1-1.4.2zm-.83-7.6a1.2 1.2 0 1 1 0 2.4 1.2 1.2 0 0 1 0-2.4zm-4.8 0a1.2 1.2 0 1 1 0 2.4 1.2 1.2 0 0 1 0-2.4z" /></svg>
