<svg id="iconPath" width="100%" height="100%" viewBox="0 0 24 24" xmlns="http://www.w3.org/2000/svg"><path d="M18.535 20.076H7.195C3.778 20.076 1 17.096 1 13.433c0-3.21 2.114-5.918 4.997-6.516C7.35 4.487 9.772 3 12.428 3c3.36 0 6.292 2.414 7.205 5.832 2.419.544 4.224 2.847 4.224 5.548 0 3.14-2.388 5.696-5.322 5.696zM12.428 4.92c-2.073 0-3.964 1.258-4.936 3.282l-.229.478-.526.06c-2.176.252-3.817 2.27-3.817 4.693 0 2.604 1.917 4.723 4.274 4.723h11.34c1.876 0 3.403-1.694 3.403-3.776 0-1.964-1.392-3.608-3.169-3.741l-.74-.056-.133-.73c-.518-2.858-2.818-4.933-5.467-4.933zm-.557 7.873c0-.515-.122-.89-.366-1.126-.244-.235-.64-.353-1.186-.353-.529 0-.923.128-1.183.383-.26.256-.39.628-.39 1.116 0 .282.049.51.145.685.096.175.217.316.363.424.146.107.304.195.474.262.17.067.328.133.474.198.145.065.266.143.362.235a.491.491 0 0 1 .145.373c0 .13-.035.24-.104.33a.356.356 0 0 1-.3.134.383.383 0 0 1-.295-.124c-.076-.083-.114-.228-.114-.434v-.114h-1.21v.168c0 .25.036.461.108.632a1 1 0 0 0 .312.413c.137.105.305.18.504.222.2.042.43.063.689.063.551 0 .972-.115 1.263-.346.292-.23.437-.601.437-1.112 0-.291-.05-.527-.151-.709a1.35 1.35 0 0 0-.38-.44 2.19 2.19 0 0 0-.49-.272c-.175-.07-.339-.138-.49-.205a1.394 1.394 0 0 1-.38-.239.48.48 0 0 1-.152-.373.49.49 0 0 1 .094-.292c.063-.087.162-.13.296-.13.121 0 .21.05.269.15a.72.72 0 0 1 .087.367v.114h1.17zm.841.094h1.13c0-.251.025-.423.077-.518.051-.094.137-.14.258-.14.108 0 .187.034.239.103.051.07.077.205.077.407 0 .139-.011.252-.033.34a.475.475 0 0 1-.101.204.34.34 0 0 1-.168.101.949.949 0 0 1-.242.027h-.182v.78h.316c.157 0 .272.04.346.12.074.081.111.238.111.47 0 .149-.004.27-.013.367a.755.755 0 0 1-.05.229.21.21 0 0 1-.105.114.43.43 0 0 1-.174.03c-.135 0-.229-.058-.283-.175a1.039 1.039 0 0 1-.064-.228 2 2 0 0 1-.023-.336h-1.17c0 .287.032.527.095.722.062.195.159.35.289.467.13.117.294.197.494.242.199.045.433.067.702.067.515 0 .903-.117 1.162-.352.26-.236.39-.622.39-1.16 0-.26-.056-.484-.168-.675-.112-.19-.307-.312-.584-.366a.835.835 0 0 0 .52-.386.963.963 0 0 0 .111-.283c.023-.1.034-.198.034-.292 0-.21-.024-.398-.07-.561a.925.925 0 0 0-.243-.413 1.098 1.098 0 0 0-.46-.256 2.55 2.55 0 0 0-.726-.087c-.488 0-.855.116-1.102.35-.246.228-.376.59-.39 1.088z" /></svg>
