<svg id="iconPath" width="100%" height="100%" viewBox="0 0 24 24" xmlns="http://www.w3.org/2000/svg"><path d="M18.535 20.076H7.195C3.778 20.076 1 17.096 1 13.433c0-3.21 2.114-5.918 4.997-6.516C7.35 4.487 9.772 3 12.428 3c3.36 0 6.293 2.414 7.205 5.832 2.419.544 4.223 2.847 4.223 5.548 0 3.14-2.387 5.696-5.321 5.696zM12.428 4.92c-2.073 0-3.964 1.258-4.936 3.282l-.229.478-.526.06c-2.176.252-3.817 2.27-3.817 4.693 0 2.604 1.917 4.723 4.274 4.723h11.341c1.875 0 3.401-1.694 3.401-3.776 0-1.964-1.392-3.608-3.168-3.741l-.74-.056-.133-.73c-.518-2.858-2.817-4.933-5.467-4.933zM9.68 12.793c0-.515-.122-.89-.367-1.126-.244-.235-.64-.353-1.186-.353-.528 0-.923.128-1.182.383-.26.256-.39.628-.39 1.116 0 .282.048.51.144.685.097.175.218.316.363.424.146.107.304.195.474.262.17.067.328.133.474.198.145.065.266.143.363.235a.491.491 0 0 1 .144.373c0 .13-.035.24-.104.33a.356.356 0 0 1-.3.134.383.383 0 0 1-.295-.124c-.076-.083-.114-.228-.114-.434v-.114h-1.21v.168c0 .25.036.461.108.632a1 1 0 0 0 .312.413c.137.105.305.18.504.222.2.042.43.063.69.063.55 0 .971-.115 1.262-.346.292-.23.437-.601.437-1.112 0-.291-.05-.527-.15-.709a1.35 1.35 0 0 0-.38-.44 2.19 2.19 0 0 0-.491-.272c-.175-.07-.338-.138-.49-.205a1.394 1.394 0 0 1-.38-.239.48.48 0 0 1-.152-.373.49.49 0 0 1 .094-.292c.063-.087.162-.13.296-.13.121 0 .21.05.269.15a.72.72 0 0 1 .087.367v.114h1.17zm.955-1.385v4.799h1.17v-2.964h.013l.833 2.964h1.37v-4.799h-1.169v2.957h-.013l-.806-2.957h-1.398zm7.4 1.385c0-.515-.123-.89-.367-1.126-.244-.235-.64-.353-1.186-.353-.528 0-.923.128-1.183.383-.26.256-.39.628-.39 1.116 0 .282.049.51.145.685.096.175.217.316.363.424.146.107.304.195.474.262.17.067.328.133.474.198.145.065.266.143.362.235a.491.491 0 0 1 .145.373c0 .13-.035.24-.104.33a.356.356 0 0 1-.3.134.383.383 0 0 1-.295-.124c-.076-.083-.114-.228-.114-.434v-.114h-1.21v.168c0 .25.036.461.108.632a1 1 0 0 0 .312.413c.137.105.305.18.504.222.2.042.43.063.689.063.551 0 .972-.115 1.263-.346.292-.23.437-.601.437-1.112 0-.291-.05-.527-.151-.709a1.35 1.35 0 0 0-.38-.44 2.19 2.19 0 0 0-.49-.272c-.175-.07-.339-.138-.49-.205a1.394 1.394 0 0 1-.38-.239.48.48 0 0 1-.152-.373.49.49 0 0 1 .094-.292c.063-.087.162-.13.296-.13.121 0 .21.05.269.15a.72.72 0 0 1 .087.367v.114h1.17z" /></svg>
