<svg id="iconPath" width="100%" height="100%" viewBox="0 0 24 24" xmlns="http://www.w3.org/2000/svg"><path d="M20.965 7.022l-2.588 5.694H22l-8.8 9.835 2.847-7.506H13.46l3.364-8.023h4.142zm-10.249 10.67c.819 0 1.558-.06 2.243-.146l-.663 1.75c-.523.04-1.05.075-1.58.075-3.684 0-7.405-.985-8.227-2.875a1.973 1.973 0 0 1-.173-.8c-.047-5.058-.047-8.323 0-9.796.07-2.21 4.716-3.329 8.4-3.329 3.384 0 6.8.83 7.973 2.429h-2.863l-.053-.007c-1.162-.44-2.867-.742-5.057-.742-4.169 0-6.72 1.291-6.72 1.995 0 .423.929 1.058 2.573 1.497 1.088.291 2.486.498 4.147.498 1.397 0 2.588-.153 3.584-.373l-.773 1.843a19.61 19.61 0 0 1-2.81.21c-1.437 0-2.875-.153-4.148-.447-.923-.213-1.755-.502-2.434-.865l-.139-.075v2.437c0 .423.929 1.058 2.573 1.497 1.088.292 2.486.499 4.147.499.524 0 1.008-.03 1.475-.069l-.576 1.374-.149.354c-.25.01-.5.02-.75.02-1.436 0-2.873-.153-4.147-.447-.923-.213-1.755-.501-2.434-.865l-.139-.074v2.436c0 .703 2.551 1.995 6.72 1.995z" /></svg>
