<svg id="iconPath" width="100%" height="100%" viewBox="0 0 24 24" xmlns="http://www.w3.org/2000/svg"><path d="M18 22.5H6a2 2 0 0 1-2-2V10.1A3.85 3.85 0 0 1 2 7c0-2.88 4.3-5 10-5s10 2.12 10 5a3.85 3.85 0 0 1-2 3.1v10.4a2 2 0 0 1-2 2zM12 3.95C7 3.95 4 5.73 4 7c0 .5.54 1.14 1.49 1.67l.51.29V20.5h12V8.96l.51-.29C19.46 8.14 20 7.5 20 7c0-1.27-3-3.05-8-3.05zM8.8 11.7a.75.75 0 0 1 0-1.06l2.67-2.67a.75.75 0 0 1 1.06 1.06L9.86 11.7a.75.75 0 0 1-.53.22.79.79 0 0 1-.53-.22zm4.67-4.67a.75.75 0 0 1 1.06-1.06.75.75 0 0 1-1.06 1.06zm-5 9a.75.75 0 0 1 0-1.06l6-6a.75.75 0 0 1 1.06 1.06l-6 6a.74.74 0 0 1-.53.22.74.74 0 0 1-.53-.22zm4 0a.75.75 0 0 1 0-1.06l2.17-2.17a.75.75 0 0 1 1.06 1.06l-2.17 2.17a.74.74 0 0 1-.53.22.74.74 0 0 1-.53-.22zm-2 2a.75.75 0 0 1 1.06-1.06.75.75 0 0 1-1.06 1.06z" /></svg>
