<svg id="iconPath" width="100%" height="100%" viewBox="0 0 24 24" xmlns="http://www.w3.org/2000/svg">
            <path d="M15.9886573,9.80529786 C15.4347783,9.63242189 14.8592229,9.54486555 14.2805857,9.54545753 C13.3763125,9.54545753 12.5247637,9.76216231 11.7657313,10.1380578 C10.8331924,10.5919489 10.0400717,11.3027319 9.47371216,12.1921316 C9.07607441,12.8150112 8.80218322,13.5132007 8.66792417,14.2462054 C8.60823617,14.5789653 8.57142857,14.9219957 8.57142857,15.2732423 C8.57142857,15.6234619 8.60823617,15.9664922 8.66891897,16.3002792 C8.73258617,16.6546069 8.83007657,16.9986643 8.95741097,17.3273161 C9.48458662,18.6826238 10.4874072,19.7828549 11.7657313,20.4084267 C12.5247637,20.7832952 13.3773073,21 14.2805857,21 C17.2351417,21 19.6644432,18.7579785 19.9678572,15.8822752 C20.0107143,15.4771153 20.0107143,15.0683422 19.9678572,14.6631824 C19.725126,12.3667279 18.1274772,10.4749259 15.9886573,9.80529786 Z M14.8933825,19.2211721 L13.6797265,19.2211721 L13.6797265,18.0934856 L14.8933825,18.0934856 L14.8933825,19.2211721 Z M15.9886573,15.0010775 L15.6026749,15.3687567 C15.1649629,15.7795715 14.8933825,16.1184936 14.8933825,16.964772 L13.6797265,16.964772 L13.6797265,16.6833639 C13.6797265,16.0620066 13.9532965,15.4981634 14.3900137,15.0863216 L15.1420825,14.375612 C15.3659125,14.1732858 15.5002105,13.8908506 15.5002105,13.5806855 C15.5002105,12.9603552 14.9530705,12.4519719 14.2865545,12.4519719 C13.6200385,12.4519719 13.0728985,12.9603552 13.0728985,13.5806855 L11.8622269,13.5806855 C11.8622269,12.3338627 12.9465589,11.3242854 14.2875493,11.3242854 C14.9510809,11.3242854 15.5519401,11.5728284 15.9896521,11.9743998 C16.4363173,12.3841875 16.7128717,12.9511119 16.7128717,13.5806855 C16.7128717,14.0767443 16.4950105,14.5286405 16.1488201,14.8501031 L15.9886573,15.0010775 Z" ></path>
            <path d="M3.03571429,16.0363636 L7.2452381,16.0363636 C7.19241792,15.7047704 7.16434583,15.369772 7.16125,15.0340909 L5.05952381,15.0340909 L5.05952381,14.0318182 L7.2452381,14.0318182 C7.29583333,13.6890409 7.36666667,13.3532795 7.46785714,13.0295455 L3.03571429,13.0295455 L3.03571429,12.0272727 L7.87261905,12.0272727 C8.04666667,11.6764773 8.2460119,11.3407159 8.47470238,11.025 L5.05952381,11.025 L5.05952381,10.0227273 L9.35607143,10.0227273 C11.177585,8.31177385 13.7518688,7.63450034 16.1904762,8.22465 L16.1904762,6.01363636 L10.1190476,0 L2.02380952,0 C0.910714286,0 0,0.902045455 0,2.00454545 L0,18.0409091 C0,19.1434091 0.910714286,20.0454545 2.02380952,20.0454545 L9.35607143,20.0454545 C8.47593352,19.2208111 7.82555723,18.185143 7.46785714,17.0386364 L3.03571429,17.0386364 L3.03571429,16.0363636 Z M14.672619,7.01590909 L9.10714286,7.01590909 L9.10714286,1.50340909 L14.672619,7.01590909 Z" ></path>
</svg>
