<svg id="iconPath" width="100%" height="100%" viewBox="0 0 24 24" xmlns="http://www.w3.org/2000/svg"><path d="M17.801 10.615l-.541-.548a.972.972 0 0 1-.023-1.332c.01-.01.012-.025.023-.035a.943.943 0 0 1 1.349 0l2.548 2.578a.977.977 0 0 1 0 1.367l-2.548 2.577a.943.943 0 0 1-1.35 0c-.01-.01-.012-.024-.022-.035a.973.973 0 0 1 .023-1.332l.542-.549c.02-.125.042-.251.057-.379H9.84a.963.963 0 0 1-.957-.966c0-.532.43-.965.957-.965h8.02a7.97 7.97 0 0 0-.058-.381zm-7.84 7.309a5.94 5.94 0 0 0 4.243-1.776l1.409 1.42a7.962 7.962 0 1 1-.002-11.215l-1.408 1.42a5.962 5.962 0 1 0-4.24 10.15z" /></svg>
