<svg id="iconPath" width="100%" height="100%" viewBox="0 0 24 24" xmlns="http://www.w3.org/2000/svg">
        <path d="M5.25,1 C4.0125,1 3,1.99 3,3.2 L3,20.8 C3,22.01 4.0125,23 5.25,23 L18.75,23 C19.9875,23 21,22.01 21,20.8 L21,7.6 L14.25,1 L5.25,1 Z M13.125,8.7 L13.125,2.65 L19.3125,8.7 L13.125,8.7 Z M8.625,12 L17.625,12 L17.625,13.1 L8.625,13.1 L8.625,12 Z M6.375,14.2 L15.375,14.2 L15.375,15.3 L6.375,15.3 L6.375,14.2 Z M8.625,16.4 L17.625,16.4 L17.625,17.5 L8.625,17.5 L8.625,16.4 Z M6.375,18.6 L15.375,18.6 L15.375,19.7 L6.375,19.7 L6.375,18.6 Z" fill-rule="nonzero"></path>
</svg>
