<svg id="iconPath" width="100%" height="100%" viewBox="0 0 24 24" xmlns="http://www.w3.org/2000/svg"><path d="M12 2C6.48 2 2 6.48 2 12s4.48 10 10 10 10-4.48 10-10S17.52 2 12 2zM9.94 13.401c.062.405.197.774.37 1.08.171.308.417.566.724.762.282.184.65.27 1.093.283.258-.013.503-.037.737-.123a1.931 1.931 0 0 0 1.08-.933 1.75 1.75 0 0 0 .184-.713h2.199c-.013.504-.148.97-.369 1.413a3.749 3.749 0 0 1-.909 1.154c-.38.331-.822.59-1.326.774a4.685 4.685 0 0 1-1.62.282c-.8 0-1.5-.147-2.089-.418-.59-.27-1.08-.65-1.473-1.117a4.466 4.466 0 0 1-.872-1.658 7.191 7.191 0 0 1-.283-2.014v-.332c0-.712.11-1.375.295-2.014a4.617 4.617 0 0 1 .872-1.67 4.223 4.223 0 0 1 1.474-1.13c.59-.282 1.29-.417 2.087-.417.627 0 1.192.086 1.707.283a4.01 4.01 0 0 1 1.327.81c.368.344.65.761.86 1.24.208.48.319 1.007.343 1.584h-2.198a2.151 2.151 0 0 0-.172-.785 2.367 2.367 0 0 0-.418-.651 1.979 1.979 0 0 0-.638-.442 2.227 2.227 0 0 0-.774-.16c-.454.012-.823.098-1.117.282a2.148 2.148 0 0 0-.725.762 3.14 3.14 0 0 0-.368 1.068c-.062.405-.099.81-.099 1.24v.332c0 .405.037.823.099 1.228z" /></svg>
