<svg id="iconPath" width="100%" height="100%" viewBox="0 0 24 24" xmlns="http://www.w3.org/2000/svg"><path d="M18.58 20.237H7.24c-3.416 0-6.195-2.98-6.195-6.643 0-3.209 2.114-5.917 4.997-6.516 1.353-2.429 3.775-3.917 6.431-3.917 3.36 0 6.293 2.414 7.205 5.832 2.419.545 4.223 2.848 4.223 5.548 0 3.14-2.387 5.696-5.321 5.696zM12.473 5.081c-2.073 0-3.964 1.258-4.936 3.283l-.229.477-.526.06c-2.176.252-3.817 2.27-3.817 4.693 0 2.605 1.917 4.723 4.274 4.723H18.58c1.875 0 3.401-1.694 3.401-3.776 0-1.964-1.392-3.607-3.168-3.74l-.74-.056-.133-.73c-.518-2.859-2.817-4.934-5.467-4.934zM6.086 11.57v4.798h1.17v-3.575l.678 3.575h.9l.666-3.575.013 3.575h1.17V11.57H8.895l-.504 2.842-.517-2.842H6.086zm6.674 2.399c0 .322.005.59.014.803.009.213.028.382.057.507.029.126.071.213.127.262.056.05.131.074.225.074.095 0 .17-.024.226-.074.056-.049.098-.136.127-.262.03-.125.048-.294.057-.507.01-.213.014-.48.014-.803 0-.323-.005-.59-.014-.803a2.876 2.876 0 0 0-.057-.507c-.029-.126-.071-.213-.127-.263a.329.329 0 0 0-.226-.073.329.329 0 0 0-.225.073c-.056.05-.098.137-.127.263-.03.125-.048.294-.057.507-.01.213-.014.48-.014.803zm-1.29 0c0-.448.029-.83.087-1.146.058-.316.155-.573.29-.773.134-.199.31-.345.53-.436.22-.092.488-.138.806-.138.319 0 .587.046.807.138.22.091.396.237.53.436.135.2.231.457.29.773.058.316.087.698.087 1.146 0 .448-.029.83-.087 1.146a2.034 2.034 0 0 1-.29.772c-.134.2-.31.342-.53.427-.22.085-.488.128-.807.128-.318 0-.586-.043-.806-.128a1.113 1.113 0 0 1-.53-.427 2.012 2.012 0 0 1-.29-.772 6.43 6.43 0 0 1-.087-1.146zm6.076-2.4c.363 0 .645.067.846.2.202.131.353.308.454.53.1.222.162.477.185.766.022.289.033.59.033.904 0 .314-.01.615-.033.904a2.264 2.264 0 0 1-.185.766 1.23 1.23 0 0 1-.454.53c-.201.133-.483.199-.846.199H15.73V11.57h1.815zm-.565 3.898h.249a.69.69 0 0 0 .289-.05c.072-.034.126-.104.164-.212.039-.107.063-.26.074-.457.012-.197.017-.457.017-.78 0-.322-.005-.581-.017-.779a1.724 1.724 0 0 0-.074-.457c-.038-.107-.092-.178-.164-.211a.69.69 0 0 0-.29-.05h-.248v2.996z" /></svg>
