<svg id="iconPath" width="100%" height="100%" viewBox="0 0 24 24" xmlns="http://www.w3.org/2000/svg"><g><path d="M10.364 14.136c3.659 0 7.363-1.125 7.363-3.272V6.773c0-2.148-3.704-3.273-7.363-3.273C6.704 3.5 3 4.625 3 6.773v4.09c0 2.148 3.704 3.273 7.364 3.273zm0-9c3.72 0 5.728 1.161 5.728 1.637 0 .287-.74.823-2.141 1.204-.918.25-2.116.432-3.587.432s-2.67-.182-3.586-.432c-1.403-.38-2.141-.917-2.141-1.204 0-.476 2.007-1.637 5.727-1.637zM4.637 8.9c.6.32 1.332.572 2.14.759 1.105.255 2.347.386 3.587.386 1.24 0 2.482-.131 3.587-.386.809-.187 1.54-.44 2.14-.76v1.965c0 .475-2.007 1.636-5.727 1.636s-5.727-1.162-5.727-1.636V8.9z" /><path d="M18.667 11.44c1.786.535 3.06 1.439 3.06 2.696v4.091c0 2.15-3.704 3.273-7.363 3.273C10.704 21.5 7 20.376 7 18.227v-3.403c.99.193 2.05.294 3.118.308a8.8 8.8 0 0 0 .66.21c.917.248 2.115.43 3.586.43 1.47 0 2.669-.182 3.587-.43 1.402-.38 2.14-.918 2.14-1.206 0-.292-.766-.843-2.219-1.224.403-.427.683-.915.795-1.473zm1.425 6.787v-1.964c-.601.32-1.332.573-2.141.76a16.29 16.29 0 0 1-3.587.386c-1.24 0-2.482-.133-3.586-.387-.81-.186-1.54-.439-2.141-.759v1.964c0 .475 2.007 1.636 5.727 1.636s5.728-1.16 5.728-1.636z"/></g></svg>
