<svg id="iconPath" width="100%" height="100%" viewBox="0 0 24 24" xmlns="http://www.w3.org/2000/svg"><g><path d="M3.856 12.188c.025.217.805.706 2.228 1.016v1.832c-1.82-.334-3.393-1.024-3.875-2.13a1.812 1.812 0 0 1-.154-.719V4.631c0-.18.061-.357.181-.522.688-1.593 3.8-2.328 6.57-2.328 3.25 0 6.75.969 6.75 3.094 0 .086-.01.168-.024.25.014.053.023.1.023.156v1.09c-.18-.005-.356-.013-.54-.013-1.222 0-4.55.144-6.78 1.573-.94-.031-1.869-.123-2.696-.315a8.42 8.42 0 0 1-1.684-.561V8.53c.005.04.07.12.23.248.014.01.034.021.048.032.268.187.747.428 1.527.637.293.078.61.139.934.192-.024.045-.055.084-.077.13a2.85 2.85 0 0 0-.433 1.503v.089c-.182-.03-.373-.05-.545-.09a9.72 9.72 0 0 1-.9-.25c-.028-.01-.05-.022-.078-.031a7.209 7.209 0 0 1-.705-.28v1.476zM5.61 3.976c-1.15.32-1.737.743-1.755.9.005.04.071.125.21.23l.019.016.032.022c.265.188.748.435 1.543.648.246.066.508.121.777.17 1.48.265 3.26.265 4.74 0 .268-.049.528-.104.774-.17 1.11-.297 1.615-.66 1.757-.838.006-.007.016-.016.02-.023.004-.005.004-.008.007-.014a.146.146 0 0 0 .02-.044c-.018-.155-.604-.577-1.755-.898-.073-.02-.136-.042-.213-.06-.127-.032-.276-.058-.415-.086-.147-.03-.285-.063-.445-.088-.158-.025-.34-.041-.511-.061-.157-.019-.304-.041-.471-.055a14.674 14.674 0 0 0-2.279 0c-.168.014-.315.037-.472.055-.171.02-.352.036-.51.061-.16.026-.299.058-.446.088-.139.029-.287.054-.413.085-.078.02-.14.042-.214.062z" /><path d="M15.014 8.358c-2.844 0-6.041.752-6.747 2.389a.886.886 0 0 0-.183.526v7.78c0 .249.053.495.158.731.732 1.682 3.929 2.435 6.772 2.435 2.844 0 6.04-.753 6.774-2.434.105-.244.157-.483.157-.733v-7.11a.615.615 0 0 0-.025-.158c.013-.085.025-.17.025-.26 0-2.175-3.593-3.166-6.93-3.166zm0 12.044c-3.266 0-5.101-1.014-5.114-1.35v-1.55c.063.03.139.054.204.082.457.2.97.375 1.552.508 1.028.238 2.193.357 3.358.357s2.33-.12 3.358-.357a8.535 8.535 0 0 0 1.756-.59v1.55c-.013.336-1.848 1.35-5.114 1.35zm3.243-4.151c-.947.253-2.095.38-3.243.38-1.148 0-2.295-.127-3.243-.38-1.394-.374-1.865-.843-1.871-.963v-1.55a8.629 8.629 0 0 0 1.756.59c1.029.238 2.195.357 3.36.357 1.167 0 2.331-.12 3.357-.357a8.638 8.638 0 0 0 1.755-.588v1.548c-.006.12-.477.59-1.87.963zm1.858-4.696c-.062.152-.553.582-1.858.931-.948.254-2.096.38-3.243.38-1.147 0-2.294-.126-3.243-.38-1.304-.35-1.795-.779-1.858-.93-.005-.011-.013-.024-.013-.032 0-.02.03-.05.044-.075.015-.026.016-.049.046-.08.407-.42 2.168-1.195 5.024-1.195 3.101 0 4.892.908 5.078 1.288.01.02.035.045.036.062 0 .008-.008.02-.013.031z"/></g></svg>
