<svg id="iconPath" width="100%" height="100%" viewBox="0 0 24 24" xmlns="http://www.w3.org/2000/svg"><path d="M4.402 17.342v-2.754l.157.083c.768.412 1.708.738 2.752.978 1.44.333 3.065.506 4.689.506s3.249-.173 4.69-.506c1.043-.24 1.982-.566 2.753-.978l.155-.083v2.754c0 .794-2.884 2.256-7.598 2.256s-7.598-1.462-7.598-2.256zM19.598 6.658c0 .478-1.05 1.196-2.909 1.692-1.23.33-2.812.564-4.689.564-1.878 0-3.459-.235-4.69-.564-1.858-.496-2.908-1.214-2.908-1.692 0-.796 2.884-2.255 7.598-2.255s7.598 1.459 7.598 2.255zm0 5.342c0 .478-1.05 1.196-2.909 1.693-1.23.329-2.812.563-4.689.563-1.878 0-3.459-.234-4.69-.563-1.858-.497-2.908-1.215-2.908-1.693V9.245c.051.029.104.056.157.084.768.41 1.708.737 2.752.979 1.439.332 3.065.505 4.689.505s3.25-.173 4.69-.505c1.044-.242 1.983-.568 2.753-.979.051-.028.104-.054.155-.084V12zM12 2.503c-4.166 0-8.372 1.113-9.302 3.251-.202.534-.195.904-.195.904v10.684c0 .32.07.62.195.904.93 2.137 5.136 3.251 9.302 3.251 4.166 0 8.372-1.114 9.302-3.25.124-.285.195-.584.195-.905V6.658c0-2.728-4.777-4.155-9.497-4.155z" /></svg>
