<svg id="iconPath" width="100%" height="100%" viewBox="0 0 24 24" xmlns="http://www.w3.org/2000/svg"><path d="M23.686 12.024l.314.174-.183.292c-.682 1.308-2.102 1.653-3.53 1.595-2.172 4.997-6.753 7.471-12.337 7.293-5.317-.171-7.325-3.922-7.325-3.922-.497-1.071-.715-2.302-.59-3.433l.062-.44h16.077c.56 0 1.117.024 1.675-.155.25-.119.56-.153.808-.272-.31-.417-.496-.951-.558-1.487-.063-.714.123-1.665.62-2.202l.248-.297.31.238c.808.596 1.429 1.369 1.553 2.32.93-.238 2.05-.18 2.856.296zm-20.24 5.37c0 .67.606 1.216 1.271 1.216.666 0 1.271-.547 1.271-1.216 0-.671-.544-1.218-1.27-1.218-.727 0-1.271.547-1.271 1.218zm5.75-8.679V6.43h2.386v2.285H9.197zm3.578 0V6.43h2.385v2.285h-2.385zM9.197 5.287V3h2.386v2.287H9.197zm0 6.857V9.858h2.385v2.286H9.197zM5.619 8.715V6.43h2.385v2.285H5.62zm0 3.429V9.858h2.385v2.286H5.62zm7.155 0V9.858h2.385v2.286h-2.385zm-10.732 0V9.858h2.385v2.286H2.042z" /></svg>
