<svg id="iconPath" width="100%" height="100%" viewBox="0 0 24 24" xmlns="http://www.w3.org/2000/svg"><path d="M20 10c.55 0 1 .45 1 1v2c0 .55-.45 1-1 1h-6c-.55 0-1-.45-1-1v-.25h-2.25v5.5H13V18c0-.55.45-1 1-1h6c.55 0 1 .45 1 1v2c0 .55-.45 1-1 1h-6c-.55 0-1-.45-1-1v-.25H7V20c0 .55-.45 1-1 1H4c-.55 0-1-.45-1-1v-2c0-.55.45-1 1-1h2c.55 0 1 .45 1 1v.25h2.25v-5.5H7V13c0 .55-.45 1-1 1H4c-.55 0-1-.45-1-1v-2c0-.55.45-1 1-1h2c.55 0 1 .45 1 1v.25h2.25v-5.5H7V6c0 .55-.45 1-1 1H4c-.55 0-1-.45-1-1V4c0-.55.45-1 1-1h2c.55 0 1 .45 1 1v.25h3.75v7H13V11c0-.55.45-1 1-1h6zm0-7c.55 0 1 .45 1 1v2c0 .55-.45 1-1 1h-6c-.55 0-1-.45-1-1V4c0-.55.45-1 1-1h6z" /></svg>
