<svg id="iconPath" width="100%" height="100%" viewBox="0 0 24 24" xmlns="http://www.w3.org/2000/svg">
<g><path d="M3.632 8.347A1.42 1.42 0 0 1 2.216 6.93V4.097A1.42 1.42 0 0 1 3.632 2.68h14.167c.779 0 1.417.638 1.417 1.417V6.93c0 .779-.638 1.417-1.417 1.417H3.632zm.472-3.778v1.889h13.223v-1.89H4.104zm0 7.554v1.89h5.372v1.89H3.632a1.42 1.42 0 0 1-1.416-1.418v-2.833c0-.78.637-1.417 1.416-1.417h14.167c.779 0 1.417.637 1.417 1.417v1.786h-1.862l-.027-.028v-1.287H4.104zm-1.888 6.612c0-.522.423-.945.945-.945h6.315l-.001 1.89H3.16a.946.946 0 0 1-.945-.945z" /><path d="M21.92 15.544h-5.287L15.389 14.3h-3.422a.492.492 0 0 0-.488.494l-.006 7.465a.5.5 0 0 0 .494.493h9.953a.501.501 0 0 0 .494-.494v-6.22a.5.5 0 0 0-.494-.494z"/></g></svg>
