<svg id="iconPath" width="100%" height="100%" viewBox="0 0 24 24" xmlns="http://www.w3.org/2000/svg"><path d="M18 3c1.654 0 3 1.346 3 3v12c0 1.654-1.346 3-3 3H6c-1.654 0-3-1.346-3-3V6c0-1.654 1.346-3 3-3h12zM5 9.51V18c0 .552.449 1 1 1h12a1 1 0 0 0 1-1V9.51H5zm4.966 6.72a.75.75 0 0 1-1.111 1.008l-2.144-2.367a.75.75 0 0 1 0-1.008l2.144-2.366a.75.75 0 1 1 1.111 1.007l-1.688 1.863 1.688 1.863zm7.323-1.359l-2.143 2.367a.748.748 0 0 1-1.06.052.748.748 0 0 1-.052-1.059l1.688-1.864-1.688-1.864a.749.749 0 1 1 1.112-1.006l2.143 2.366a.751.751 0 0 1 0 1.008zM19 8.01V6c0-.551-.448-1-1-1H6c-.551 0-1 .449-1 1v2.01h14zM6.38 6h3.03v1H6.38V6z"  fill-rule="evenodd"/></svg>
