<svg id="iconPath" viewBox="0 0 24 24" xmlns="http://www.w3.org/2000/svg"><path d="M7.2 12.544h.002a.912.912 0 0 1-.737-.374 6.336 6.336 0 0 1-1.237-3.777A6.4 6.4 0 0 1 11.621 2a6.4 6.4 0 0 1 5.803 9.078.913.913 0 0 1-1.657-.767 4.572 4.572 0 0 0-4.146-6.485 4.572 4.572 0 0 0-4.566 4.567c-.003.97.306 1.916.88 2.698a.911.911 0 0 1-.734 1.453zm9.29 7.374l.603-4.242c.007-.17-.081-.269-.164-.303a.862.862 0 0 1-.141-.074l-2.74-1.75-.673-.018a.913.913 0 0 1-.913-.914v-4.84c-.05-.07-.43-.297-.7-.297-.27 0-.65.227-.71.355l.01 8.605a.915.915 0 0 1-1.101.894l-2.746-.576 3.33 3.329c.055.054.13.085.208.087h5.478c.209 0 .252-.213.26-.256zm1.224-6.196v.001a2.137 2.137 0 0 1 1.213 1.918c0 .087-.011.191-.025.291l-.604 4.25C18.137 21.24 17.269 22 16.23 22h-5.478a2.135 2.135 0 0 1-1.5-.622l-3.986-3.986a.913.913 0 0 1-.003-1.288l.636-.645c.425-.423 1.072-.6 1.574-.51.01.003.085.014.095.016l1.666.35V7.776c0-1.315 1.472-2.123 2.526-2.123 1.056 0 2.527.808 2.527 2.123v3.95c.166.025.329.071.484.136.05.02.097.045.143.073l2.799 1.787z"  fill-rule="evenodd"/></svg>
