<svg id="iconPath" width="100%" height="100%" viewBox="0 0 24 24" xmlns="http://www.w3.org/2000/svg"><path d="M13.25 9.425h7.072c.274 0 .53.105.719.294l1.542 1.542c.38.426.369 1.048-.01 1.428l-1.485 1.484a1.019 1.019 0 0 1-1.439 0l-.587-.587-.587.587a1 1 0 0 1-1.429-.013l-.587-.586-.657.657a.998.998 0 0 1-.72.294h-1.867a5.437 5.437 0 0 1-5.16 2.895 5.453 5.453 0 0 1-5.1-5.101c-.066-1.548.465-2.994 1.496-4.075A5.43 5.43 0 0 1 8.43 6.528a5.486 5.486 0 0 1 4.82 2.897zm4.552 3.059l.587-.588a.999.999 0 0 1 1.428.013l.563.563.491-.491-.847-.848-7.891-.012-.215-.522A3.734 3.734 0 0 0 8.43 8.226c-1.05 0-2.03.415-2.743 1.19a3.736 3.736 0 0 0-1.013 2.817 3.738 3.738 0 0 0 3.513 3.492 3.762 3.762 0 0 0 3.728-2.358l.217-.527h2.7l.943-.943a1.019 1.019 0 0 1 1.44 0l.587.587zm-8.726.374a1.125 1.125 0 0 1-1.27.005c-.606-.387-.649-1.419-.006-1.877.383-.264.89-.265 1.268-.005.307.197.502.56.502.941 0 .371-.18.712-.494.936z" /></svg>
