<svg id="iconPath" width="100%" height="100%" viewBox="0 0 24 24" xmlns="http://www.w3.org/2000/svg"><path d="M20.227 2C21.202 2 22 2.798 22 3.773v16.454c0 .975-.798 1.773-1.773 1.773H3.773A1.779 1.779 0 0 1 2 20.227V3.773C2 2.798 2.798 2 3.773 2h16.454zM19 4H5c-.542 0-1 .458-1 1v14c0 .542.458 1 1 1h14c.542 0 1-.458 1-1V5c0-.542-.458-1-1-1zm-4 3.75h-3.25v3.5h3.249v1.5H11.75v3.5H15v1.5h-4a.75.75 0 0 1-.75-.75v-4.25H8V14H5v-4h3v1.25h2.25V7a.75.75 0 0 1 .75-.75h4v1.5zM18.833 18h-2.667v-2.667h2.667V18zm0-4.667h-2.667v-2.667h2.667v2.667zm0-4.666h-2.667V6h2.667v2.667z"  fill-rule="evenodd"/></svg>
