<svg id="iconPath" width="100%" height="100%" viewBox="0 0 24 24" xmlns="http://www.w3.org/2000/svg"><g><path d="M3.416 8.667A1.42 1.42 0 0 1 2 7.25V4.417A1.42 1.42 0 0 1 3.416 3h14.167C18.362 3 19 3.638 19 4.417V7.25c0 .779-.638 1.417-1.417 1.417H3.416zm.472-3.778v1.889h13.223V4.889H3.888zm0 7.555v1.889h5.373v1.89H3.416A1.42 1.42 0 0 1 2 14.806v-2.833c0-.78.637-1.417 1.416-1.417h14.167c.779 0 1.417.637 1.417 1.417v1.785h-1.861l-.028-.028v-1.286H3.888zM2 19.055c0-.522.423-.945.945-.945h6.316L9.259 20H2.945A.946.946 0 0 1 2 19.055z" /><path d="M11 24h13v-9H11v9zm1.3-7.309l5.2 3.356 5.2-3.356v1.342l-5.2 3.356-5.2-3.356v-1.342z"/></g></svg>
