<svg id="iconPath" width="100%" height="100%" viewBox="0 0 24 24" xmlns="http://www.w3.org/2000/svg"><path d="M12 2.4c-5.28 0-9.6 4.32-9.6 9.6 0 5.28 4.32 9.6 9.6 9.6 5.28 0 9.6-4.32 9.6-9.6 0-5.28-4.32-9.6-9.6-9.6zm3.456 13.056v-4.608c0-.192-.096-.384-.192-.576a.75.75 0 0 0-.384-.384c-.192-.096-.384-.096-.672-.096-.288 0-.48.096-.672.192a.75.75 0 0 0-.384.384c-.096.192-.192.384-.192.576v4.512h-1.92v-4.512c0-.192 0-.384-.096-.576-.096-.192-.192-.288-.288-.384-.192-.096-.384-.192-.672-.192-.096 0-.192 0-.384.096s-.288.096-.384.192c-.096.096-.288.288-.384.48-.096.192-.192.48-.192.864v4.032H6.72V8.448h1.824v.96c.288-.384.576-.672.864-.864a2.657 2.657 0 0 1 1.248-.288c.48 0 .864.096 1.248.288.384.192.672.48.864.864.192-.288.48-.576.864-.768.384-.192.768-.384 1.248-.384.384 0 .672 0 1.056.096.288.096.576.192.768.384.192.192.384.48.48.768.096.288.192.672.192 1.152v4.8h-1.92z" /></svg>
