
<svg id="iconPath" width="100%" height="100%" viewBox="0 0 24 24" xmlns="http://www.w3.org/2000/svg">
        <path d="M19.0309673,7.39028174 C21.1900687,10.0911332 21.6097234,13.790593 20.1104492,16.9064387 C18.6111751,20.0222844 15.4584477,22.0027951 12.0006573,22.0009259 C9.57214543,22.0026152 7.24615048,21.0222013 5.55158787,19.2826237 C3.85702526,17.543046 2.9379165,15.1921519 3.00326065,12.7645187 C3.12626607,7.96030687 7.19744557,3.99913223 12.0016574,4.00013227 C14.0457775,3.99980902 16.0285495,4.69849004 17.6209051,5.98021957 L18.3709382,5.22918646 C18.7573569,4.84193051 19.3844771,4.84103526 19.772,5.22718637 L19.7860006,5.24218703 C20.1693298,5.63018609 20.1670951,6.25500149 19.7810004,6.64024867 L19.0309673,7.39028174 Z M18.8709602,14.3695895 L18.8719603,14.3695895 C19.3272725,12.0742936 18.6073173,9.70315673 16.9526735,8.04851291 C15.2980297,6.39386908 12.9268929,5.67391394 10.631597,6.12922614 C7.87347537,6.64924907 5.64937731,8.87334713 5.12935439,11.6314687 C4.67443346,13.9266126 5.39456343,16.2974209 7.04914839,17.9518051 C8.70373335,19.6061893 11.0746291,20.3260315 13.3697177,19.870832 C16.1278393,19.3508091 18.3509373,17.1277111 18.8709602,14.3695895 Z M10.0005692,3.00008818 C9.44826005,3.00008818 9.00052506,2.55235319 9.00052506,2.00004409 C9.00052506,1.44773499 9.44826005,1 10.0005692,1 L14.0007455,1 C14.5530546,1 15.0007896,1.44773499 15.0007896,2.00004409 C15.0007896,2.55235319 14.5530546,3.00008818 14.0007455,3.00008818 L10.0005692,3.00008818 Z M15.4298085,12.1794929 L15.4288085,12.1784929 C15.8665165,12.2001031 16.210309,12.5612879 16.210309,12.999529 C16.210309,13.4377702 15.8665165,13.798955 15.4288085,13.8205652 L12.8206935,13.8205652 L12.8206935,16.4286802 C12.7990832,16.8663883 12.4378985,17.2101808 11.9996573,17.2101808 C11.5614161,17.2101808 11.2002314,16.8663883 11.1786211,16.4286802 L11.1786211,13.8205652 L8.5705061,13.8205652 C8.13279808,13.798955 7.78900558,13.4377702 7.78900558,12.999529 C7.78900558,12.5612879 8.13279808,12.2001031 8.5705061,12.1784929 L11.1786211,12.1784929 L11.1786211,9.57037786 C11.2002314,9.13266983 11.5614161,8.78887734 11.9996573,8.78887734 C12.4378985,8.78887734 12.7990832,9.13266983 12.8206935,9.57037786 L12.8206935,12.1794929 L15.4298085,12.1794929 Z"  fill-rule="nonzero"></path>
</svg>
