<svg id="iconPath" width="100%" height="100%" viewBox="0 0 24 24" xmlns="http://www.w3.org/2000/svg"><path d="M10.728 17.705c1.383 0 2.584-.144 3.577-.36.216.563.457 1.084.713 1.56-1.308.317-2.8.481-4.29.481-3.688 0-7.412-.986-8.235-2.878a1.975 1.975 0 0 1-.172-.8c-.047-5.062-.047-8.33 0-9.805C2.39 3.69 7.04 2.57 10.728 2.57c1.918 0 3.84.27 5.366.79-.285.426-.58.922-.866 1.487-1.13-.343-2.657-.595-4.5-.595-4.173 0-6.726 1.292-6.726 1.996 0 .423.93 1.06 2.575 1.499 1.089.291 2.488.498 4.151.498 1.27 0 2.386-.122 3.329-.31a17.678 17.678 0 0 0-.383 1.769c-.947.144-1.945.223-2.946.223-1.438 0-2.877-.153-4.151-.448-.924-.213-1.757-.502-2.437-.866l-.138-.074v2.439c0 .423.93 1.058 2.575 1.498 1.089.292 2.488.5 4.151.5a17.44 17.44 0 0 0 2.712-.209c.007.583.044 1.146.118 1.68-.912.134-1.87.209-2.83.209-1.438 0-2.876-.154-4.151-.448-.924-.213-1.757-.501-2.437-.866a4.892 4.892 0 0 1-.138-.074v2.439c0 .703 2.553 1.997 6.726 1.997zM18.714 4.97c.206.527 2.122 1.907 2.933 6.107.633 4.338-1.236 6.989-2.225 8.06a5.361 5.361 0 0 1-.505.484 1.272 1.272 0 0 0-.214.49c-.117.621-.033 1.906-.033 1.906l-.414-.161s.028-1.323-.254-2.097a8.698 8.698 0 0 1-1.27-1.408 9.97 9.97 0 0 1-.885-1.455 9.372 9.372 0 0 1-.981-4.416c.001-.054-.003-.105 0-.16.045-1.122.215-2.105.449-2.965.21-.768.47-1.437.75-2.006a9.797 9.797 0 0 1 1.007-1.642c.378-.493.695-.8.835-.93.116-.146.182-.254.229-.357.074-.162.092-.307.107-.534l.016.05s.228.66.455 1.034z" /></svg>
