<svg id="iconPath" width="100%" height="100%" viewBox="0 0 24 24" xmlns="http://www.w3.org/2000/svg">
	<path d="M10.08 17.962a5.962 5.962 0 1 1 4.24-10.15l1.409-1.42a7.962 7.962 0 1 0 .002 11.215l-1.41-1.421a5.941 5.941 0 0 1-4.242 1.776z" /><path d="M21.275 11.316l-2.549-2.578a.944.944 0 0 0-1.349 0c-.01.01-.013.025-.023.036a.972.972 0 0 0 .023 1.331l.542.548.376.381H9.956A.963.963 0 0 0 9 12c0 .533.43.966.956.966H18.294l-.375.38-.542.548a.973.973 0 0 0-.022 1.332c.01.01.012.025.022.035a.943.943 0 0 0 1.35 0l2.548-2.577a.977.977 0 0 0 0-1.367z" fill="#585E67"/>
</svg>
