<svg id="iconPath" width="100%" height="100%" viewBox="0 0 24 24" xmlns="http://www.w3.org/2000/svg"><path d="M9.656 8.675a2.053 2.053 0 1 0-4.105 0 2.053 2.053 0 0 0 4.105 0zm1.833 0a3.885 3.885 0 1 1-7.77 0 3.885 3.885 0 0 1 7.77 0zm6.767 0a2.053 2.053 0 1 0-4.105 0 2.053 2.053 0 0 0 4.105 0zm1.833 0a3.885 3.885 0 1 1-7.77 0 3.885 3.885 0 0 1 7.77 0zM2.106 18.296H.273c0-2.479 1.636-4.582 3.767-4.582h7.127c2.132 0 3.767 2.103 3.767 4.582h-1.832c0-1.553-.93-2.749-1.935-2.749H4.04c-1.004 0-1.934 1.196-1.934 2.75zm21.428 0h-1.832c0-1.553-.93-2.749-1.935-2.749h-3.563v-1.833h3.563c2.132 0 3.767 2.103 3.767 4.582z" /></svg>
