<svg id="iconPath" width="100%" height="100%" viewBox="0 0 24 24" xmlns="http://www.w3.org/2000/svg"><path d="M2.077 9.043a1 1 0 0 1 .538-1.307l8.775-3.66c.24-.1.512-.102.754-.006l9.225 3.659a1 1 0 0 1 .56 1.298.989.989 0 0 1-.534.54l-9.22 4.033a1 1 0 0 1-.817-.008L2.583 9.568a1.033 1.033 0 0 1-.506-.525zm9.707-2.964l-6.29 2.623 6.291 2.885 6.613-2.884-6.614-2.624zm8.817 5.322a1 1 0 0 1 .799 1.833l-9.225 4.024a1 1 0 0 1-.817-.008l-8.775-4.023a1 1 0 0 1 .834-1.819l8.368 3.837 8.816-3.844zm0 3.658a1 1 0 1 1 .798 1.834l-9.224 4.024a1 1 0 0 1-.817-.008l-8.775-4.024a1 1 0 0 1 .834-1.819l8.368 3.838 8.816-3.845z" /></svg>
