<svg id="iconPath" width="100%" height="100%" viewBox="0 0 24 24" xmlns="http://www.w3.org/2000/svg">
        <path d="M7.62203365,2 L20.7032907,2 C21.9709846,2.00179349 22.9982065,3.02901539 23,4.29670926 L23,14.878287 C22.9982052,16.1458046 21.970809,17.1727153 20.7032907,17.1739109 L11.1517588,17.1739109 C12.5888302,16.5411219 13.8153338,15.7835118 14.6510928,15.2060782 L20.7032907,15.2060782 C20.8835313,15.2037533 21.0292466,15.0585189 21.0321673,14.878287 L21.0321673,4.29670926 C21.0321673,4.11978884 20.8812966,3.96891805 20.7032907,3.96891805 L7.62203365,3.96891805 C7.44294242,3.96891805 7.29315704,4.11978884 7.29315704,4.29670926 L7.29315704,7.17519365 C6.75167509,6.63881713 6.06943691,6.266653 5.32532439,6.10173171 L5.32532439,4.29670926 C5.32532439,3.03113128 6.35428487,2 7.62203365,2 Z M5.06591346,14.0837732 C8.96250432,14.8761162 13.329074,11.0652721 13.37249,11.0261976 L15.1189008,12.9842617 C14.9398096,13.1459865 11.3362771,16.3359811 7.11189501,16.7647146 C7.11515122,16.7647146 7.11189501,16.8884503 7.11189501,16.9535744 L7.11189501,22.6237111 L1,22.6237111 L1,16.9535744 C1.00119727,15.2666171 2.3684475,13.8993669 4.05540481,13.8981696 C4.40038696,13.9016867 4.74219844,13.9644684 5.06591346,14.0837732 Z M1.99314224,10.037397 C1.99314224,8.67844247 3.09479256,7.57679215 4.4537471,7.57679215 C5.81270164,7.57679215 6.91435197,8.67844247 6.91435197,10.037397 C6.91435197,11.3963516 5.81270164,12.4980019 4.4537471,12.4980019 C3.09479256,12.4980019 1.99314224,11.3963516 1.99314224,10.037397 Z" ></path>
</svg>
