<svg id="iconPath" width="100%" height="100%" viewBox="0 0 24 24" xmlns="http://www.w3.org/2000/svg"><path d="M13.604 3.901A1.867 1.867 0 1 1 9.87 3.9a1.867 1.867 0 0 1 3.734.001zm.883 9.902a1.181 1.181 0 0 0-.505.882l-.473 6.186a1.184 1.184 0 0 1-1.18 1.094h-1.183a1.184 1.184 0 0 1-1.18-1.094l-.473-6.186a1.184 1.184 0 0 0-.505-.882l-.48-.333A1.185 1.185 0 0 1 8 12.498V7.97c0-.587.431-1.086 1.012-1.17l.442-.065c.503-.074.997.182 1.227.636a1.184 1.184 0 0 0 2.112 0c.23-.454.724-.71 1.228-.636l.441.064a1.184 1.184 0 0 1 1.013 1.171v4.528c0 .388-.19.75-.509.972l-.479.333z" /></svg>
