<svg id="iconPath" width="100%" height="100%" viewBox="0 0 24 24" xmlns="http://www.w3.org/2000/svg"><path d="M6,4 L18,4 C19.1045695,4 20,4.8954305 20,6 L20,18 C20,19.1045695 19.1045695,20 18,20 L6,20 C4.8954305,20 4,19.1045695 4,18 L4,6 C4,4.8954305 4.8954305,4 6,4 Z M12,14.2253999 L9.06107374,16.045085 L9.8835189,12.6876864 L7.24471742,10.454915 L10.6919427,10.1996136 L12,7 L13.3080573,10.1996136 L16.7552826,10.454915 L14.1164811,12.6876864 L14.9389263,16.045085 L12,14.2253999 Z M6,6 L6,18 L18,18 L18,6 L6,6 Z" /></svg>
