<svg id="iconPath" width="100%" height="100%" viewBox="0 0 24 24" xmlns="http://www.w3.org/2000/svg"><path d="M2.087 6h19.826C23.065 6 24 8.687 24 12s-.935 6-2.087 6H2.087C.934 18 0 15.313 0 12s.934-6 2.087-6zM22 12c0-1.966-.373-3.394-.663-4H2.663C2.373 8.606 2 10.034 2 12c0 1.966.373 3.394.663 4h18.674c.29-.606.663-2.034.663-4zM8.562 10.917v-.102a.643.643 0 0 0-.078-.327.258.258 0 0 0-.24-.135c-.12 0-.208.04-.264.117a.437.437 0 0 0-.084.261c0 .14.045.251.135.333.09.082.203.153.339.213s.282.121.438.183c.156.062.302.143.438.243s.249.231.339.393c.09.162.135.373.135.633 0 .456-.13.787-.39.993-.26.206-.636.31-1.128.31-.232 0-.437-.02-.615-.058a1.103 1.103 0 0 1-.45-.198.893.893 0 0 1-.28-.369 1.457 1.457 0 0 1-.095-.564v-.15h1.08v.102c0 .184.034.313.102.387a.342.342 0 0 0 .264.111c.116 0 .205-.04.267-.12a.465.465 0 0 0 .093-.294.438.438 0 0 0-.13-.333 1.133 1.133 0 0 0-.323-.21c-.13-.058-.271-.117-.423-.177a1.856 1.856 0 0 1-.423-.234 1.153 1.153 0 0 1-.324-.378c-.086-.156-.13-.36-.13-.612 0-.436.117-.768.349-.996.232-.228.584-.342 1.056-.342.488 0 .84.105 1.059.315.218.21.327.545.327 1.005H8.562zm4.052 3.744l-.612-.66a4.023 4.023 0 0 1-.141.021 1.19 1.19 0 0 1-.153.01H11.6a2 2 0 0 1-.72-.115.994.994 0 0 1-.474-.38 1.816 1.816 0 0 1-.258-.69 5.74 5.74 0 0 1-.078-1.024c0-.4.026-.74.078-1.023.052-.282.138-.512.258-.69.12-.178.278-.308.474-.39.196-.082.436-.123.72-.123s.524.041.72.123c.196.082.354.212.474.39.12.178.206.408.258.69.052.282.078.623.078 1.023 0 .412-.028.76-.084 1.044a1.786 1.786 0 0 1-.276.696l.516.516-.672.582zm-1.392-2.838c0 .288.004.527.012.717.008.19.025.341.05.453.027.112.065.19.115.234.05.044.117.066.2.066a.293.293 0 0 0 .202-.066c.05-.044.088-.122.114-.234a2.49 2.49 0 0 0 .05-.453c.009-.19.013-.429.013-.717s-.004-.527-.012-.717a2.568 2.568 0 0 0-.051-.453c-.026-.112-.064-.19-.114-.234a.293.293 0 0 0-.201-.066.293.293 0 0 0-.201.066c-.05.044-.088.122-.114.234a2.568 2.568 0 0 0-.051.453c-.008.19-.012.43-.012.717zm4.058-.906v-.102a.643.643 0 0 0-.078-.327.258.258 0 0 0-.24-.135c-.12 0-.208.04-.264.117a.437.437 0 0 0-.084.261c0 .14.045.251.135.333.09.082.203.153.339.213s.282.121.438.183c.156.062.302.143.438.243s.249.231.339.393c.09.162.135.373.135.633 0 .456-.13.787-.39.993-.26.206-.636.31-1.128.31-.232 0-.437-.02-.615-.058a1.103 1.103 0 0 1-.45-.198.893.893 0 0 1-.28-.369 1.457 1.457 0 0 1-.095-.564v-.15h1.08v.102c0 .184.034.313.102.387a.342.342 0 0 0 .264.111c.116 0 .205-.04.267-.12a.465.465 0 0 0 .093-.294.438.438 0 0 0-.13-.333 1.133 1.133 0 0 0-.323-.21c-.13-.058-.271-.117-.423-.177a1.856 1.856 0 0 1-.423-.234 1.153 1.153 0 0 1-.324-.378c-.086-.156-.13-.36-.13-.612 0-.436.117-.768.349-.996.232-.228.584-.342 1.056-.342.488 0 .84.105 1.059.315.218.21.327.545.327 1.005H15.28z" /></svg>
