<svg id="iconPath" width="100%" height="100%" viewBox="0 0 24 24" xmlns="http://www.w3.org/2000/svg"><path d="M14.678 2.546c1.081 0 2.076.758 2.076 1.684v4.21H6.93l.021-4.21c0-.926.884-1.684 1.964-1.684h5.763zm-.87 1.965a.986.986 0 0 0-.983.983c0 .54.442.982.982.982s.982-.442.982-.982a.986.986 0 0 0-.982-.983zm-3.93 0a.986.986 0 0 0-.983.983c0 .54.442.982.982.982s.983-.442.983-.982a.987.987 0 0 0-.983-.983zm9.712 5.404c.602 0 1.094.49 1.094 1.093v2.444a1.1 1.1 0 0 1-1.106 1.094v5.095c0 .5-.495.905-1.104.905-.61 0-1.105-.405-1.105-.905v-5.095h-1.58v4.5h-8v-4.5H6.315v5.095c0 .5-.495.905-1.105.905s-1.105-.405-1.105-.905l-.012-5.095A1.097 1.097 0 0 1 3 13.452v-2.444c0-.602.492-1.093 1.093-1.093H19.59zm-11.8 10.13h8v.407c0 .602-.493 1.094-1.095 1.094H8.883a1.097 1.097 0 0 1-1.094-1.094v-.406z" /></svg>
