<svg id="iconPath" width="100%" height="100%" viewBox="0 0 24 24" xmlns="http://www.w3.org/2000/svg"><path d="M9.60937327,2 C10.1092342,7.8909839 5,9.91910814 5,15.1078284 C5,18.6322577 7.51487406,21.6404371 12.3749972,21.6666593 C17.2351204,21.6928815 19.7499945,18.0496329 19.7499945,14.3277176 C19.7499945,10.9343994 18.0603007,7.73447007 14.872663,5.74485971 C15.6298293,7.88115057 14.6219131,9.83224706 13.6426773,10.5041913 C13.7000384,7.76970617 12.7208027,3.7118188 9.60937327,2 Z M13.4697746,12.6527738 C16.5467873,15.9215364 14.6571492,20.027771 12.1857056,20.027771 C10.6820256,20.027771 9.90847038,18.9911742 9.91666482,17.9160635 C9.93223426,15.9223559 12.1594834,15.920717 13.4697746,12.6527738 Z" /></svg>