<svg id="iconPath" width="100%" height="100%" viewBox="0 0 24 24" xmlns="http://www.w3.org/2000/svg"><path d="M0 6.5l1.177-1.177 13.267 13.268-1.176 1.177-1.821-1.821A6.957 6.957 0 0 1 7.767 19a7 7 0 0 1-7-7c0-1.351.39-2.61 1.054-3.68L0 6.5zm5.188 6.151v-.963L3.3 9.8c-.03.06-.058.12-.086.182L3.033 9.8A4.938 4.938 0 0 0 2.5 12a5.006 5.006 0 0 0 5.13 4.998 4.938 4.938 0 0 0 2.337-.53L8.612 15.11a3.22 3.22 0 0 1-.206.062l-.061-.062a2.66 2.66 0 0 1-.692.142 2.613 2.613 0 0 1-2.464-2.602zM17.172 9.5a.752.752 0 0 1-.75-.75.75.75 0 0 1 .75-.749h4.192l-.72-.721a.752.752 0 0 1 0-1.061.746.746 0 0 1 1.059 0l2 2.001a.752.752 0 0 1 0 1.061l-2 2a.746.746 0 0 1-1.06 0 .752.752 0 0 1 0-1.061l.72-.72h-4.19zm6 5.5a.75.75 0 0 1 0 1.501h-4.19l.72.719a.749.749 0 1 1-1.06 1.06l-1.997-1.998a.751.751 0 0 1-.006-1.058l2.003-2.004a.744.744 0 0 1 1.06 0 .749.749 0 0 1 0 1.06l-.72.72h4.19zM7.768 7c-.619 0-1.205.128-1.752.334l-1.52-1.52a7 7 0 0 1 9.458 9.458l-1.52-1.52A4.949 4.949 0 0 0 12.768 12c0-2.757-2.243-5-5-5zm.024 1.744a2.612 2.612 0 0 1 2.604 2.604h-.366l-2.57-2.57c.11-.015.218-.034.332-.034z" /></svg>
