<svg id="iconPath" width="100%" height="100%" viewBox="0 0 24 24" xmlns="http://www.w3.org/2000/svg"><path d="M8 5a7 7 0 1 1 0 14A7 7 0 0 1 8 5zm0 2c-2.757 0-5 2.243-5 5s2.243 5 5 5 5-2.243 5-5-2.243-5-5-5zm-.646 5.115H8.48l-.564-1.76-.563 1.76zm1.558 1.361H6.917L6.44 14.91H4.911L7.345 8h1.141l2.434 6.91H9.393l-.48-1.434zM16.75 9.5a.752.752 0 0 1-.751-.75c0-.413.338-.75.751-.75h4.192l-.721-.72a.752.752 0 0 1 0-1.061.746.746 0 0 1 1.059 0l2.001 2a.752.752 0 0 1 0 1.062l-2.001 2a.746.746 0 0 1-1.059 0 .752.752 0 0 1 0-1.061l.72-.72H16.75zm6 5.5a.75.75 0 0 1 0 1.5h-4.19l.719.72a.749.749 0 1 1-1.059 1.06l-1.998-1.998a.751.751 0 0 1-.005-1.058l2.003-2.004a.744.744 0 0 1 1.059 0 .749.749 0 0 1 0 1.06l-.719.72h4.19z"  fill-rule="evenodd"/></svg>
