<svg id="iconPath" width="100%" height="100%" viewBox="0 0 24 24" xmlns="http://www.w3.org/2000/svg">
	<path d="M3.92 12c0-.677.1-1.333.264-1.96h3.413A15.89 15.89 0 0 0 7.456 12c0 .667.06 1.313.141 1.96H4.184A7.783 7.783 0 0 1 3.92 12zm5.465-7.41A15.045 15.045 0 0 0 7.99 8.08h-2.98a8.023 8.023 0 0 1 4.374-3.49zm.252 5.45h4.727c.09.636.162 1.294.162 1.96 0 .667-.071 1.313-.162 1.96H9.637A14.016 14.016 0 0 1 9.475 12c0-.666.071-1.324.162-1.96zM12 4.2a13.654 13.654 0 0 1 1.93 3.88h-3.858A13.63 13.63 0 0 1 12 4.2zM16.01 15.92h2.98a8.057 8.057 0 0 1-4.373 3.49 15.01 15.01 0 0 0 1.393-3.49zm2.98-7.842h-2.98a14.99 14.99 0 0 0-1.393-3.49 8.057 8.057 0 0 1 4.373 3.49zm.829 1.961c.161.627.262 1.284.262 1.96 0 .677-.1 1.334-.262 1.96h-3.415c.08-.647.142-1.293.142-1.96 0-.666-.061-1.313-.142-1.96h3.415zM12 19.803a13.63 13.63 0 0 1-1.928-3.882h3.858A13.648 13.648 0 0 1 12 19.803zM5.01 15.92h2.981a15.033 15.033 0 0 0 1.394 3.49 8.011 8.011 0 0 1-4.374-3.49zm6.98 5.881c5.585 0 10.109-4.39 10.109-9.802 0-5.411-4.524-9.802-10.11-9.802-5.573 0-10.088 4.39-10.088 9.802s4.515 9.802 10.089 9.802z"  />
</svg>
