<svg id="iconPath" width="100%" height="100%" viewBox="0 0 24 24" xmlns="http://www.w3.org/2000/svg"><path d="M2.087 6h19.826C23.065 6 24 8.687 24 12s-.935 6-2.087 6H2.087C.934 18 0 15.313 0 12s.934-6 2.087-6zM22 12c0-1.966-.373-3.394-.663-4H2.663C2.373 8.606 2 10.034 2 12c0 1.966.373 3.394.663 4h18.674c.29-.606.663-2.034.663-4zM4.389 13.187c.026.111.064.19.114.234.05.043.117.066.2.066a.298.298 0 0 0 .202-.066c.05-.044.088-.123.114-.234a2.49 2.49 0 0 0 .05-.453c.009-.19.013-.429.013-.717s-.004-.527-.012-.717a2.568 2.568 0 0 0-.051-.453c-.026-.112-.064-.19-.114-.234a.293.293 0 0 0-.201-.066.293.293 0 0 0-.201.066c-.05.044-.088.122-.114.234a2.568 2.568 0 0 0-.051.453c-.008.19-.012.43-.012.717 0 .288.004.527.012.717.008.19.025.341.05.453zm.717 1.008a4.023 4.023 0 0 1-.141.021 1.2 1.2 0 0 1-.153.008h-.108a2 2 0 0 1-.72-.113.994.994 0 0 1-.474-.38 1.816 1.816 0 0 1-.258-.69 5.74 5.74 0 0 1-.078-1.024c0-.4.026-.74.078-1.023.052-.282.138-.512.258-.69.12-.178.278-.308.474-.39.196-.082.436-.123.72-.123s.524.041.72.123c.196.082.354.212.474.39.12.178.206.408.258.69.052.282.078.623.078 1.023 0 .412-.028.76-.084 1.043a1.785 1.785 0 0 1-.276.697l.516.516-.672.582-.612-.66zm3.078-1.23c0 .208.03.347.09.417s.142.105.246.105a.307.307 0 0 0 .246-.105c.06-.07.09-.209.09-.417v-3.09h1.116v2.808c0 .3-.032.55-.096.75-.064.2-.157.36-.279.48a.955.955 0 0 1-.453.246c-.18.044-.388.065-.624.065-.232 0-.439-.02-.621-.065a.956.956 0 0 1-.456-.246 1.157 1.157 0 0 1-.279-.48c-.064-.2-.096-.45-.096-.75V9.875h1.116v3.09zm5.286-3.09v.912h-1.422v.732h1.332v.876h-1.332v.852h1.476v.912h-2.592V9.875h2.538zm2.01 3.09c0 .208.03.347.09.417s.141.105.246.105a.31.31 0 0 0 .246-.105c.06-.07.09-.209.09-.417v-3.09h1.115v2.808c0 .3-.03.55-.096.75-.064.2-.156.36-.279.48a.946.946 0 0 1-.453.246c-.18.044-.388.065-.623.065a2.65 2.65 0 0 1-.62-.065.959.959 0 0 1-.458-.246 1.168 1.168 0 0 1-.279-.48c-.063-.2-.096-.45-.096-.75V9.875h1.117v3.09zm5.285-3.09v.912h-1.422v.732h1.332v.876h-1.332v.852h1.477v.912h-2.59V9.875h2.537z" /></svg>
