<svg id="iconPath" width="100%" height="100%" viewBox="0 0 24 24" xmlns="http://www.w3.org/2000/svg"><g fill-rule="evenodd"><path d="M2.511 8.9c-.825 0-1.5-.675-1.5-1.5v-3c0-.825.675-1.5 1.5-1.5h15c.825 0 1.5.675 1.5 1.5v3c0 .825-.675 1.5-1.5 1.5h-15zm.5-4v2h14v-2h-14zM10.17 17a7.407 7.407 0 0 0 1.116 3.9H2.011a1 1 0 1 1 0-2h7v-2h-6.5c-.825 0-1.5-.675-1.5-1.5v-3c0-.825.675-1.5 1.5-1.5h10.823c-.22.159-.435.326-.64.509a7.69 7.69 0 0 0-1.276 1.491H3.011v2h7.468a7.414 7.414 0 0 0-.304 1.923c-.004.06-.006.118-.006.177z" /><path d="M19.017 11.53c2.45.464 4.341 2.435 4.608 4.876a5.462 5.462 0 0 1 0 1.188c-.306 2.799-2.747 4.982-5.717 4.982a5.8 5.8 0 0 1-4.099-1.677 5.554 5.554 0 0 1-1.64-3.9c0-.033.005-.065.005-.099a5.41 5.41 0 0 1 .42-2 5.58 5.58 0 0 1 1.434-2 5.803 5.803 0 0 1 3.88-1.476c.38 0 .75.038 1.11.106zm-1.715 2.05a7.65 7.65 0 0 0-.485 1.19h2.194a7.766 7.766 0 0 0-1.097-2.208c-.23.323-.433.664-.612 1.018zm-3.834 4.535h1.941A9.015 9.015 0 0 1 15.33 17c0-.034.006-.066.007-.1a9.49 9.49 0 0 1 .073-1.015h-1.941a4.495 4.495 0 0 0-.143 1.015c-.001.034-.007.066-.007.1 0 .385.057.758.15 1.115zm2.227 2.784c.233.125.476.232.731.316-.057-.101-.098-.211-.15-.316a8.63 8.63 0 0 1-.643-1.669h-1.695c.42.706 1.03 1.28 1.757 1.67zm.676-7.999c.02-.038.034-.078.055-.115-.093.03-.176.079-.266.115-.93.374-1.716 1.02-2.222 1.87h1.695c.17-.65.421-1.275.738-1.87zm1.867 8c.315-.525.59-1.075.773-1.67h-2.194c.183.595.458 1.145.773 1.67.108.18.202.368.324.539.122-.171.216-.36.324-.54zm1.02-2.785A7.96 7.96 0 0 0 19.351 17a7.9 7.9 0 0 0-.093-1.115H16.57a8.28 8.28 0 0 0-.088 1.015c0 .034-.005.066-.005.1 0 .38.041.747.093 1.115h2.688zm.144 3.1a4.583 4.583 0 0 0 2.487-1.985h-1.695a8.54 8.54 0 0 1-.792 1.985zm2.959-3.1c.092-.356.149-.73.149-1.115s-.057-.758-.15-1.115h-1.94c.045.368.08.736.08 1.115 0 .38-.035.747-.08 1.115h1.942zm-.472-3.345a4.584 4.584 0 0 0-2.487-1.985 8.53 8.53 0 0 1 .792 1.985h1.695z"/></g></svg>
