<svg id="iconPath" width="100%" height="100%" viewBox="0 0 24 24" xmlns="http://www.w3.org/2000/svg"><path d="M11.992 2C6.482 2 2 6.482 2 11.992c0 5.51 4.482 9.992 9.992 9.992 5.51 0 9.992-4.482 9.992-9.992 0-5.51-4.482-9.992-9.992-9.992zM5.19 13.952a.343.343 0 0 1-.191-.308v-3.572c0-.19.155-.345.345-.345h2.382c.091 0 .178.036.246.104.095.092 2.348 2.276 4.515 2.276.19 0 .346.156.346.346v1.786a.35.35 0 0 1-.087.23l-4.2 4.724a8.132 8.132 0 0 1-1.166-.685v-3.46l-2.19-1.096zm4.07-9.461v.82a.344.344 0 0 1-.1.243L6.777 7.936a.345.345 0 0 1-.243.1H5.057a8.026 8.026 0 0 1 4.204-3.545zm9 12.444c.66-3.154.235-5.457 0-6.335l-.051-.196-.202.01a3.322 3.322 0 0 1-3.484-3.318c0-.865.333-1.675.93-2.296 2.676 1.293 4.53 4.027 4.53 7.192a7.946 7.946 0 0 1-1.724 4.943z" /></svg>
